<svg width="166" height="125" viewBox="0 0 166 125" fill="none" xmlns="http://www.w3.org/2000/svg">
<path d="M164.541 50.0859H137.102V88.7383H164.541L152.682 69.4121L164.541 50.0859Z" fill="url(#paint0_linear_2408_18274)" stroke="#0500FF" stroke-width="0.538347"/>
<path d="M147.515 84.168L137.119 88.7385V84.168H147.515Z" fill="#888888"/>
<path d="M0.724697 50.0859H28.164V88.7383H0.724697L12.5843 69.4121L0.724697 50.0859Z" fill="#DEDEDE"/>
<path d="M0.724697 50.0859H28.164V88.7383H0.724697L12.5843 69.4121L0.724697 50.0859Z" fill="url(#paint1_linear_2408_18274)"/>
<path d="M0.724697 50.0859H28.164V88.7383H0.724697L12.5843 69.4121L0.724697 50.0859Z" stroke="#0500FF" stroke-width="0.538347"/>
<path d="M17.751 84.168L28.1475 88.7385V84.168H17.751Z" fill="#888888"/>
<circle cx="82.6333" cy="62.3599" r="61.9087" fill="url(#paint2_linear_2408_18274)"/>
<path fill-rule="evenodd" clip-rule="evenodd" d="M82.6333 124.269C116.825 124.269 144.542 96.5511 144.542 62.3599C144.542 28.1686 116.825 0.451172 82.6333 0.451172C48.4421 0.451172 20.7246 28.1686 20.7246 62.3599C20.7246 96.5511 48.4421 124.269 82.6333 124.269ZM82.6333 116.828C112.716 116.828 137.102 92.4419 137.102 62.3596C137.102 32.2773 112.716 7.89077 82.6333 7.89077C52.551 7.89077 28.1645 32.2773 28.1645 62.3596C28.1645 92.4419 52.551 116.828 82.6333 116.828Z" fill="url(#paint3_linear_2408_18274)"/>
<mask id="mask0_2408_18274" style="mask-type:alpha" maskUnits="userSpaceOnUse" x="20" y="0" width="125" height="125">
<path d="M82.6343 0.451172C116.825 0.451172 144.543 28.1684 144.543 62.3594C144.543 96.5506 116.826 124.269 82.6343 124.269C48.4433 124.268 20.7261 96.5504 20.7261 62.3594C20.7263 28.1685 48.4434 0.45143 82.6343 0.451172ZM82.6343 7.89062C52.5521 7.89073 28.1657 32.2773 28.1655 62.3594C28.1655 92.4416 52.5521 116.828 82.6343 116.828C112.717 116.828 137.103 92.4417 137.103 62.3594C137.103 32.2772 112.716 7.89062 82.6343 7.89062Z" fill="url(#paint4_linear_2408_18274)"/>
</mask>
<g mask="url(#mask0_2408_18274)">
<path d="M140.765 25.7987L149.905 42.561L127.417 51.1888L121.105 40.1965L140.765 25.7987Z" fill="#48FF91"/>
<path d="M77.455 140.236L125.667 126.16L108.595 103.233L79.7699 108.122L77.455 140.236Z" fill="white"/>
<path d="M40.5679 9.875L51.9422 3.18351L59.798 19.868L51.9422 25.6912L40.5679 9.875Z" fill="#48FF91"/>
<path d="M23.187 27.6602L35.3461 14.0091L49.8976 30.7369L43.1349 41.3206L23.187 27.6602Z" fill="#48FF91"/>
</g>
<circle cx="82.6339" cy="62.3595" r="54.0524" stroke="url(#paint5_linear_2408_18274)" stroke-width="0.832976"/>
<circle cx="82.6333" cy="62.3598" r="61.4922" stroke="#0500FF" stroke-width="0.832976"/>
<rect x="18.087" y="40.8082" width="129.092" height="43.0997" fill="white" stroke="#0500FF" stroke-width="0.538347"/>
<g clip-path="url(#clip0_2408_18274)">
<path fill-rule="evenodd" clip-rule="evenodd" d="M52.2234 58.2297C49.9437 60.5095 49.9451 64.2059 52.2234 66.4842C54.2066 68.4658 57.2591 68.7254 59.5197 67.2599L60.8205 68.5607L62.5337 66.8475L61.2373 65.5511C62.7206 63.2877 62.4684 60.2188 60.4779 58.2283C58.198 55.95 54.5017 55.95 52.2234 58.2283V58.2297ZM57.1939 61.5078L59.4425 63.7564C60.0076 62.506 59.7778 60.9842 58.7499 59.9563C57.4238 58.6302 55.276 58.6302 53.95 59.9563C52.6239 61.2823 52.6239 63.4301 53.95 64.7562C54.9705 65.7751 56.4774 66.011 57.7204 65.4621L55.4792 63.2209L57.1924 61.5078H57.1939ZM89.5367 62.0076H90.5628V65.8997C90.5628 67.5536 91.435 68.1365 93.1825 68.1365C93.7641 68.1365 94.2238 68.0905 94.6526 68.0297V66.0229H94.6419C94.3737 66.054 94.2355 66.0688 93.948 66.0688C93.3354 66.0688 92.9839 65.9472 92.9839 65.2723V62.0091H94.5616V59.9874H92.9839V57.7507H90.5628V59.9859H89.5367V62.0076ZM81.2393 59.9859H83.6893V60.7988C84.1333 60.2781 84.8836 59.8183 85.9102 59.8183C87.5637 59.8183 88.605 60.9664 88.605 62.7285V68.0594H86.1545V63.4331C86.1545 62.6202 85.8182 62.024 85.0217 62.024C84.3466 62.024 83.6883 62.4986 83.6883 63.4479V68.0594H81.2378V59.9859H81.2393ZM75.1177 63.218C73.4179 63.4627 72.0088 64.1361 72.0088 65.8063C72.0088 67.2317 73.1732 68.2122 74.7973 68.2122C75.8547 68.2122 76.6502 67.8903 77.1871 67.34C77.6006 68.0297 78.55 68.2908 79.9592 68.0608V66.2528C79.4847 66.3151 79.3303 66.1919 79.3303 65.7781V62.6692C79.3303 60.7839 77.9669 59.8198 75.9141 59.8198C73.8614 59.8198 72.5902 60.9842 72.2372 62.4081L74.5808 62.7596C74.7335 62.1011 75.1014 61.7955 75.8059 61.7955C76.6024 61.7955 76.9245 62.1782 76.9245 62.776V62.9139L75.1177 63.2195V63.218ZM75.5153 64.7487L76.9245 64.4892V65.1625C76.9245 65.9902 76.1737 66.4189 75.3609 66.4189C74.7795 66.4189 74.3969 66.143 74.3969 65.6372C74.3969 65.0706 74.8715 64.8555 75.5153 64.7487ZM68.4697 68.0579H70.9201V59.9859H68.4697V64.6582C68.4697 65.6075 67.8259 66.0822 67.1526 66.0822C66.356 66.0822 66.0045 65.5616 66.0045 64.7502V59.9859H63.5542V65.3316C63.5542 67.0937 64.6414 68.227 66.2967 68.227C67.3068 68.227 68.0277 67.7672 68.4712 67.2628V68.0594L68.4697 68.0579ZM96.843 65.2233L95.572 66.8757C96.3213 67.7479 97.9153 68.224 99.3245 68.224C101.378 68.224 103.002 67.2599 103.002 65.4355C103.002 63.6111 101.378 63.261 99.9224 62.9688L99.8645 62.9584C99.8304 62.9525 99.7964 62.945 99.7624 62.9391H99.7593C98.8886 62.7775 98.466 62.6988 98.466 62.2791C98.466 61.9112 98.8485 61.6813 99.4464 61.6813C100.243 61.6813 101.039 62.0343 101.652 62.6766L102.877 61.0984C102.202 60.3627 100.916 59.8124 99.4611 59.8124C97.4704 59.8124 96.014 60.8996 96.014 62.5401C96.014 64.2859 97.4394 64.639 98.7713 64.8985L98.8546 64.9134C98.9003 64.9223 98.9466 64.9297 98.9907 64.9371C100.119 65.1373 100.594 65.2204 100.594 65.7247C100.594 66.1534 100.058 66.3684 99.4149 66.3684C98.5432 66.3684 97.5003 65.9398 96.8415 65.2204L96.843 65.2233ZM103.66 62.0061H104.687V65.8983C104.687 67.5521 105.56 68.135 107.306 68.135C107.888 68.135 108.347 68.089 108.776 68.0282V66.0213H108.766C108.497 66.0525 108.359 66.0674 108.071 66.0674C107.459 66.0674 107.107 65.9457 107.107 65.2708V62.0076H108.686V59.9859H107.107V57.7491H104.687V59.9845H103.66V62.0061ZM109.773 65.8063C109.773 64.1361 111.182 63.4627 112.882 63.218L114.69 62.9124V62.7745C114.69 62.1767 114.368 61.7941 113.571 61.7941C112.867 61.7941 112.499 62.0996 112.346 62.7582L110.003 62.4066C110.354 60.9827 111.627 59.8183 113.68 59.8183C115.733 59.8183 117.096 60.7825 117.096 62.6677V65.7766C117.096 66.1904 117.249 66.3136 117.725 66.2513V68.0594C116.316 68.2893 115.366 68.0297 114.951 67.3385C114.416 67.8903 113.619 68.2106 112.562 68.2106C110.937 68.2106 109.773 67.2302 109.773 65.8063ZM113.279 64.7487L114.688 64.4892V65.1625C114.688 65.9902 113.938 66.4189 113.126 66.4189C112.545 66.4189 112.162 66.143 112.162 65.6372C112.162 65.0706 112.637 64.8555 113.281 64.7487H113.279ZM118.861 68.0579H121.313V63.4464C121.313 62.4971 121.941 62.0224 122.584 62.0224C123.381 62.0224 123.686 62.6202 123.686 63.4316V68.0579H126.136V63.4464C126.136 62.4971 126.765 62.0224 127.407 62.0224C128.189 62.0224 128.51 62.6202 128.51 63.4316V68.0579H130.96V62.727C130.96 60.9649 129.873 59.8168 128.232 59.8168C126.992 59.8168 126.196 60.4146 125.736 60.9189C125.276 60.2292 124.479 59.8168 123.515 59.8168C122.489 59.8168 121.753 60.2767 121.309 60.7973V59.9845H118.859V68.0564L118.861 68.0579ZM134.634 67.2628V70.7545H132.183V59.9859H134.634V60.7988C135.094 60.2173 135.859 59.8183 136.825 59.8183C139.045 59.8183 140.301 61.7169 140.301 64.0308C140.301 66.3447 139.045 68.2285 136.825 68.2285C135.861 68.2285 135.094 67.8309 134.634 67.2643V67.2628ZM134.618 64.2444C134.618 65.4547 135.276 66.143 136.196 66.143C137.268 66.143 137.835 65.2693 137.835 64.0293C137.835 62.7893 137.268 61.9157 136.196 61.9157C135.278 61.9157 134.618 62.589 134.618 63.8143V64.2429V64.2444Z" fill="#01091C"/>
<path d="M42.8094 62.3581C42.8094 60.7681 42.3525 59.2017 41.4774 57.8698L44.6991 54.6303L42.2843 52.1992L39.0612 55.4387C36.3468 53.6573 32.8344 53.6573 30.12 55.4387L26.8909 52.1992L24.4688 54.6303L27.6904 57.8698C25.9164 60.6004 25.9164 64.1247 27.6904 66.8554L24.4688 70.0874L26.8909 72.5185L30.1126 69.2791C32.827 71.0605 36.3393 71.0605 39.0538 69.2791L42.2754 72.5185L44.6976 70.0874L41.4759 66.848C42.3511 65.516 42.8168 63.9586 42.8079 62.3596L42.8094 62.3581ZM29.7893 62.3581C29.7893 60.3928 30.9714 58.6188 32.7869 57.8861C34.6025 57.1533 36.6835 57.5954 38.0407 59.0104C39.3979 60.4269 39.7642 62.5332 38.9573 64.3235L35.7935 61.1419L33.3788 63.573L36.5425 66.7546C35.0608 67.4205 33.3372 67.296 31.9726 66.4045C30.6154 65.513 29.7907 63.9882 29.7907 62.3581H29.7893Z" fill="#01091C"/>
</g>
<defs>
<linearGradient id="paint0_linear_2408_18274" x1="168.142" y1="69.412" x2="137.102" y2="69.412" gradientUnits="userSpaceOnUse">
<stop offset="0.0598417" stop-color="#FFF8A3"/>
<stop offset="0.777316" stop-color="#48FF91"/>
</linearGradient>
<linearGradient id="paint1_linear_2408_18274" x1="-2.87565" y1="69.412" x2="28.1641" y2="69.412" gradientUnits="userSpaceOnUse">
<stop offset="0.1875" stop-color="#FFF8A3"/>
<stop offset="0.777316" stop-color="#48FF91"/>
</linearGradient>
<linearGradient id="paint2_linear_2408_18274" x1="82.6333" y1="0.451172" x2="82.6333" y2="124.269" gradientUnits="userSpaceOnUse">
<stop offset="0.0598417" stop-color="#FFF465"/>
<stop offset="0.777316" stop-color="#48FF91"/>
</linearGradient>
<linearGradient id="paint3_linear_2408_18274" x1="45.9874" y1="16.0309" x2="121.239" y2="127.154" gradientUnits="userSpaceOnUse">
<stop offset="0.0598417" stop-color="white"/>
<stop offset="0.777316" stop-color="white" stop-opacity="0"/>
</linearGradient>
<linearGradient id="paint4_linear_2408_18274" x1="82.6348" y1="0.451172" x2="82.6348" y2="124.269" gradientUnits="userSpaceOnUse">
<stop offset="0.0598417" stop-color="#FFF8A3"/>
<stop offset="0.777316" stop-color="#FFAEFE"/>
</linearGradient>
<linearGradient id="paint5_linear_2408_18274" x1="82.6339" y1="7.89062" x2="82.6339" y2="116.828" gradientUnits="userSpaceOnUse">
<stop offset="0.0457846" stop-color="#2ECCFF"/>
<stop offset="1" stop-color="#0500FF"/>
</linearGradient>
<clipPath id="clip0_2408_18274">
<rect width="116.328" height="20.3193" fill="white" transform="translate(24.4688 52.1992)"/>
</clipPath>
</defs>
</svg>
