<svg xmlns="http://www.w3.org/2000/svg" width="309" height="265" fill="none" viewBox="0 0 309 265"><g clip-path="url(#a)"><path fill="#fff" d="M.5 13.805C.5 6.548 6.382.666 13.639.666h281.656c7.256 0 13.139 5.882 13.139 13.139v29.561H.5V13.805Z"/><path fill="#929AA5" fill-rule="evenodd" d="m15.277 22.16 5.807-5.805 1.451 1.451-3.329 3.33h10.852v2.052h-10.85l3.328 3.329-1.451 1.451-4.356-4.355-1.452-1.452Z" clip-rule="evenodd" opacity=".01"/><path fill="#202630" d="M101.297 27.32c-1.537 0-2.588-.605-3.35-1.55l1.024-.96c.644.789 1.406 1.196 2.405 1.196 1.169 0 1.773-.578 1.773-1.459 0-.709-.368-1.116-1.432-1.326l-.814-.145c-1.774-.328-2.68-1.156-2.68-2.614 0-1.63 1.26-2.628 3.205-2.628 1.38 0 2.391.499 3.101 1.406l-1.038.92c-.473-.618-1.13-1.012-2.142-1.012-1.051 0-1.655.433-1.655 1.235 0 .762.473 1.09 1.458 1.287l.815.171c1.826.355 2.654 1.17 2.654 2.628 0 1.708-1.222 2.85-3.324 2.85Zm6.459-.158c-.972 0-1.458-.539-1.458-1.419V17.44h1.432v8.553h.946v1.17h-.92Zm3.011-8.054c-.591 0-.854-.315-.854-.749v-.223c0-.434.263-.749.854-.749s.841.315.841.749v.223c0 .434-.25.75-.841.75Zm-.722 1.222h1.432v6.832h-1.432V20.33Zm3.477 0h1.432v1.13h.065c.29-.815 1.012-1.288 1.919-1.288 1.721 0 2.719 1.327 2.719 3.574s-.998 3.574-2.719 3.574c-.907 0-1.629-.486-1.919-1.288h-.065v3.758h-1.432v-9.46Zm2.982 5.755c.986 0 1.642-.697 1.642-1.748v-1.182c0-1.051-.656-1.748-1.642-1.748-.867 0-1.55.473-1.55 1.17v2.338c0 .697.683 1.17 1.55 1.17Zm4.793-5.755h1.432v1.13h.066c.289-.815 1.011-1.288 1.918-1.288 1.721 0 2.72 1.327 2.72 3.574s-.999 3.574-2.72 3.574c-.907 0-1.629-.486-1.918-1.288h-.066v3.758h-1.432v-9.46Zm2.982 5.755c.986 0 1.643-.697 1.643-1.748v-1.182c0-1.051-.657-1.748-1.643-1.748-.867 0-1.55.473-1.55 1.17v2.338c0 .697.683 1.17 1.55 1.17Zm9.799 1.077c-.749 0-1.143-.473-1.235-1.143h-.066c-.262.854-.998 1.3-1.997 1.3-1.405 0-2.207-.8-2.207-2.036 0-1.353 1.012-2.05 2.917-2.05h1.235v-.577c0-.828-.447-1.314-1.406-1.314-.801 0-1.288.394-1.629.933l-.854-.776c.447-.762 1.248-1.327 2.575-1.327 1.761 0 2.746.868 2.746 2.392v3.429h.723v1.17h-.802Zm-2.89-.933c.88 0 1.537-.42 1.537-1.09v-.986h-1.209c-.998 0-1.485.329-1.485.92v.237c0 .604.447.92 1.157.92Zm11.086 1.577c0 1.419-1.011 2.142-3.468 2.142-2.234 0-3.101-.605-3.101-1.643 0-.749.447-1.156 1.169-1.314v-.144c-.499-.158-.775-.539-.775-1.051 0-.71.552-1.051 1.209-1.209v-.053c-.802-.38-1.248-1.103-1.248-2.023 0-1.393.985-2.339 2.719-2.339.46 0 .881.066 1.235.21V20.2c0-.605.29-.973.894-.973h1.051v1.157h-1.393v.276c.618.407.959 1.064.959 1.852 0 1.38-.998 2.313-2.732 2.313-.329 0-.644-.04-.894-.106-.341.119-.657.342-.657.684 0 .367.355.512.959.512h1.682c1.682 0 2.391.71 2.391 1.892Zm-3.481-4.02c.84 0 1.327-.382 1.327-1.157v-.262c0-.776-.487-1.157-1.327-1.157-.841 0-1.327.381-1.327 1.157v.262c0 .775.486 1.156 1.327 1.156Zm2.141 4.178c0-.473-.315-.776-1.248-.776h-2.312c-.316.184-.473.46-.473.789 0 .552.407.933 1.471.933h.894c1.116 0 1.668-.316 1.668-.946Zm5.009-.644c-1.944 0-3.14-1.393-3.14-3.574 0-2.18 1.196-3.574 3.14-3.574 2.01 0 3.035 1.511 3.035 3.403v.539h-4.69v.223c0 1.051.644 1.8 1.8 1.8.841 0 1.406-.394 1.8-1.024l.841.827c-.513.828-1.511 1.38-2.786 1.38Zm0-6.03c-.985 0-1.655.735-1.655 1.786v.092h3.179v-.131c0-1.052-.578-1.748-1.524-1.748Zm9.749-1.985h-2.733v-1.314h6.95v1.314h-2.732v7.857h-1.485v-7.857Zm7.38 8.015c-1.905 0-3.14-1.393-3.14-3.574 0-2.18 1.235-3.574 3.14-3.574s3.14 1.393 3.14 3.574-1.235 3.574-3.14 3.574Zm0-1.183c.972 0 1.629-.604 1.629-1.813v-1.156c0-1.209-.657-1.813-1.629-1.813s-1.629.604-1.629 1.813v1.156c0 1.209.657 1.813 1.629 1.813Zm6.194 1.025c-.972 0-1.458-.539-1.458-1.419V17.44h1.432v8.553h.946v1.17h-.92Zm4.969.158c-1.945 0-3.141-1.393-3.141-3.574 0-2.18 1.196-3.574 3.141-3.574 2.01 0 3.035 1.511 3.035 3.403v.539h-4.691v.223c0 1.051.644 1.8 1.8 1.8.841 0 1.406-.394 1.8-1.024l.841.827c-.512.828-1.511 1.38-2.785 1.38Zm0-6.03c-.986 0-1.656.735-1.656 1.786v.092h3.18v-.131c0-1.052-.578-1.748-1.524-1.748Zm4.62 5.872V20.33h1.432v1.314h.066c.197-.696.788-1.314 1.879-1.314h.381v1.38h-.565c-1.13 0-1.761.38-1.761 1.09v4.362h-1.432Zm9.933 0c-.749 0-1.143-.473-1.235-1.143h-.066c-.263.854-.999 1.3-1.997 1.3-1.406 0-2.207-.8-2.207-2.036 0-1.353 1.011-2.05 2.916-2.05h1.235v-.577c0-.828-.446-1.314-1.405-1.314-.802 0-1.288.394-1.63.933l-.854-.776c.447-.762 1.249-1.327 2.576-1.327 1.76 0 2.745.868 2.745 2.392v3.429h.723v1.17h-.801Zm-2.891-.933c.88 0 1.537-.42 1.537-1.09v-.986h-1.208c-.999 0-1.485.329-1.485.92v.237c0 .604.447.92 1.156.92Zm5.096.933V20.33h1.432v1.13h.065c.289-.736.868-1.288 1.919-1.288 1.392 0 2.22.973 2.22 2.654v4.336h-1.432V23.01c0-1.064-.407-1.603-1.288-1.603-.748 0-1.484.381-1.484 1.183v4.572h-1.432Zm10.262.158c-1.971 0-3.101-1.393-3.101-3.574 0-2.18 1.13-3.574 3.101-3.574 1.366 0 2.233.67 2.641 1.682l-1.183.552c-.197-.63-.683-1.038-1.458-1.038-1.051 0-1.59.723-1.59 1.774v1.222c0 1.05.539 1.773 1.59 1.773.828 0 1.314-.446 1.603-1.13l1.09.578c-.446 1.117-1.379 1.735-2.693 1.735Zm6.66 0c-1.945 0-3.14-1.393-3.14-3.574 0-2.18 1.195-3.574 3.14-3.574 2.01 0 3.035 1.511 3.035 3.403v.539h-4.691v.223c0 1.051.644 1.8 1.8 1.8.841 0 1.406-.394 1.8-1.024l.841.827c-.512.828-1.511 1.38-2.785 1.38Zm0-6.03c-.986 0-1.656.735-1.656 1.786v.092h3.18v-.131c0-1.052-.578-1.748-1.524-1.748Z"/><path fill="#929AA5" d="m281.909 16.065-1.742 1.742 4.355 4.355-4.355 4.355 1.742 1.742 4.355-4.355 4.355 4.355 1.742-1.742-4.355-4.355 4.355-4.355-1.742-1.742-4.355 4.355-4.355-4.355Z"/><path fill="#fff" d="M.5 42.545h307.934v132.32H.5z"/><path fill="#707A8A" d="M16.208 68c-1.345 0-2.265-.529-2.932-1.356l.897-.84c.563.69 1.23 1.047 2.104 1.047 1.023 0 1.552-.506 1.552-1.276 0-.621-.322-.978-1.253-1.162l-.713-.126c-1.552-.287-2.345-1.012-2.345-2.288 0-1.425 1.103-2.299 2.805-2.299 1.207 0 2.092.437 2.713 1.23l-.908.805c-.414-.54-.989-.885-1.874-.885-.92 0-1.449.379-1.449 1.08 0 .667.414.955 1.276 1.127l.713.15c1.598.31 2.322 1.023 2.322 2.299C19.116 67 18.047 68 16.208 68Zm5.652-.138c-.85 0-1.276-.471-1.276-1.241v-7.266h1.253v7.484h.828v1.023h-.805Zm2.634-7.047c-.517 0-.747-.276-.747-.655v-.196c0-.379.23-.655.747-.655.518 0 .736.276.736.655v.196c0 .38-.218.655-.736.655Zm-.632 1.07h1.253v5.977h-1.253v-5.978Zm3.043 0h1.253v.988h.057c.253-.713.885-1.127 1.678-1.127 1.506 0 2.38 1.161 2.38 3.127 0 1.966-.874 3.127-2.38 3.127-.793 0-1.425-.425-1.678-1.126h-.057v3.288h-1.254v-8.278Zm2.61 5.035c.861 0 1.436-.61 1.436-1.53v-1.034c0-.92-.575-1.529-1.437-1.529-.759 0-1.356.414-1.356 1.023v2.047c0 .609.597 1.023 1.356 1.023Zm4.193-5.036h1.253v.989h.058c.252-.713.885-1.127 1.678-1.127 1.506 0 2.38 1.161 2.38 3.127 0 1.966-.874 3.127-2.38 3.127-.793 0-1.426-.425-1.678-1.126h-.058v3.288h-1.253v-8.278Zm2.61 5.036c.862 0 1.437-.61 1.437-1.53v-1.034c0-.92-.575-1.529-1.437-1.529-.76 0-1.357.414-1.357 1.023v2.047c0 .609.598 1.023 1.357 1.023Zm8.573.942c-.655 0-1-.414-1.08-1h-.058c-.23.747-.873 1.138-1.747 1.138-1.23 0-1.931-.701-1.931-1.782 0-1.184.885-1.793 2.552-1.793h1.08v-.506c0-.724-.39-1.15-1.23-1.15-.701 0-1.126.345-1.425.817l-.748-.679c.391-.666 1.093-1.16 2.254-1.16 1.54 0 2.402.758 2.402 2.092v3h.633v1.023h-.702Zm-2.529-.816c.77 0 1.345-.368 1.345-.954v-.862H42.65c-.874 0-1.3.287-1.3.804v.207c0 .53.391.805 1.012.805Zm9.701 1.38c0 1.241-.885 1.873-3.035 1.873-1.954 0-2.713-.528-2.713-1.437 0-.655.39-1.011 1.023-1.15v-.126c-.437-.138-.678-.47-.678-.92 0-.62.483-.919 1.058-1.057v-.046c-.702-.333-1.093-.966-1.093-1.77 0-1.219.863-2.047 2.38-2.047.402 0 .77.058 1.08.184v-.16c0-.53.254-.851.782-.851h.92v1.011H50.57v.242c.54.356.839.93.839 1.62 0 1.208-.874 2.024-2.391 2.024a3.17 3.17 0 0 1-.782-.092c-.3.103-.575.299-.575.598 0 .322.31.448.84.448h1.47c1.472 0 2.093.621 2.093 1.656Zm-3.046-3.518c.735 0 1.16-.334 1.16-1.012v-.23c0-.678-.425-1.011-1.16-1.011-.736 0-1.162.333-1.162 1.011v.23c0 .678.426 1.012 1.162 1.012Zm1.873 3.656c0-.414-.276-.679-1.092-.679h-2.023c-.276.161-.414.403-.414.69 0 .483.357.816 1.288.816h.781c.978 0 1.46-.276 1.46-.827ZM55.273 68c-1.701 0-2.747-1.218-2.747-3.127 0-1.908 1.046-3.127 2.747-3.127 1.76 0 2.656 1.322 2.656 2.978v.471h-4.104v.196c0 .92.563 1.575 1.575 1.575.736 0 1.23-.345 1.575-.897l.736.724c-.449.724-1.322 1.207-2.438 1.207Zm0-5.276c-.862 0-1.448.643-1.448 1.563v.08h2.782v-.115c0-.92-.506-1.528-1.334-1.528Zm8.53-1.736h-2.39v-1.15h6.08v1.15h-2.39v6.874h-1.3v-6.874ZM70.261 68c-1.667 0-2.748-1.218-2.748-3.127 0-1.908 1.081-3.127 2.748-3.127 1.667 0 2.748 1.219 2.748 3.127 0 1.909-1.081 3.127-2.748 3.127Zm0-1.034c.85 0 1.426-.53 1.426-1.587v-1.011c0-1.058-.575-1.587-1.426-1.587-.85 0-1.425.529-1.425 1.587v1.011c0 1.058.574 1.587 1.425 1.587Zm5.42.896c-.85 0-1.276-.471-1.276-1.241v-7.266h1.253v7.484h.828v1.023h-.805Zm4.347.138c-1.701 0-2.747-1.218-2.747-3.127 0-1.908 1.046-3.127 2.747-3.127 1.76 0 2.656 1.322 2.656 2.978v.471H78.58v.196c0 .92.563 1.575 1.575 1.575.736 0 1.23-.345 1.575-.897l.736.724c-.449.724-1.322 1.207-2.438 1.207Zm0-5.276c-.862 0-1.448.643-1.448 1.563v.08h2.782v-.115c0-.92-.506-1.528-1.334-1.528Zm4.043 5.138v-5.978h1.253v1.15h.058c.172-.61.69-1.15 1.644-1.15h.333v1.207h-.494c-.989 0-1.54.334-1.54.955v3.816H84.07Zm8.691 0c-.655 0-1-.414-1.08-1h-.058c-.23.747-.874 1.138-1.747 1.138-1.23 0-1.932-.701-1.932-1.782 0-1.184.886-1.793 2.553-1.793h1.08v-.506c0-.724-.39-1.15-1.23-1.15-.701 0-1.127.345-1.425.817l-.748-.679c.391-.666 1.092-1.16 2.254-1.16 1.54 0 2.402.758 2.402 2.092v3h.632v1.023h-.7Zm-2.529-.816c.77 0 1.345-.368 1.345-.954v-.862H90.52c-.873 0-1.299.287-1.299.804v.207c0 .53.391.805 1.012.805Zm4.459.816v-5.978h1.253v.989h.057c.253-.644.759-1.127 1.679-1.127 1.218 0 1.943.851 1.943 2.323v3.793H98.37V64.23c0-.932-.356-1.403-1.126-1.403-.656 0-1.3.333-1.3 1.035v4h-1.252Zm8.979.138c-1.724 0-2.713-1.218-2.713-3.127 0-1.908.989-3.127 2.713-3.127 1.196 0 1.954.587 2.311 1.472l-1.035.483c-.172-.552-.598-.909-1.276-.909-.92 0-1.391.633-1.391 1.552v1.07c0 .92.471 1.552 1.391 1.552.724 0 1.15-.391 1.403-.99l.954.507c-.391.977-1.207 1.517-2.357 1.517Zm5.828 0c-1.702 0-2.748-1.218-2.748-3.127 0-1.908 1.046-3.127 2.748-3.127 1.758 0 2.655 1.322 2.655 2.978v.471h-4.104v.196c0 .92.563 1.575 1.575 1.575.736 0 1.23-.345 1.575-.897l.736.724c-.449.724-1.322 1.207-2.437 1.207Zm0-5.276c-.863 0-1.449.643-1.449 1.563v.08h2.782v-.115c0-.92-.506-1.528-1.333-1.528Z"/><rect width="283.299" height="41.35" x="12.816" y="75.968" fill="#F5F5F5" rx="3.285"/><path fill="#202630" d="M25.613 92.315a.15.15 0 0 1 .157.157v9.013a.152.152 0 0 1-.157.158H24.47a.152.152 0 0 1-.158-.158v-7.528l-1.63 1.432c-.104.092-.196.04-.196-.092V94.01a.28.28 0 0 1 .092-.198l1.655-1.418a.239.239 0 0 1 .184-.08h1.196Z"/><path fill="#848E9C" d="M278.504 97.228c-1.012 0-1.84-.643-1.84-1.8v-1.326c0-1.157.828-1.787 1.84-1.787 1.011 0 1.839.63 1.839 1.787v1.327c0 1.156-.828 1.8-1.839 1.8Zm4.375-4.637a.198.198 0 0 1 .184-.119h.906c.119 0 .171.066.119.184l-4.178 8.869a.2.2 0 0 1-.184.118h-.92c-.118 0-.171-.066-.118-.184l4.191-8.868Zm-4.375 3.639c.486 0 .788-.302.788-.907V94.22c0-.605-.302-.907-.788-.907-.486 0-.775.302-.775.907v1.103c0 .605.289.907.775.907Zm5.846 5.571c-1.011 0-1.839-.631-1.839-1.787v-1.327c0-1.156.828-1.8 1.839-1.8 1.012 0 1.84.644 1.84 1.8v1.327c0 1.156-.828 1.787-1.84 1.787Zm0-1.078c.487 0 .776-.302.776-.906v-1.104c0-.604-.289-.906-.776-.906-.486 0-.788.302-.788.906v1.104c0 .604.302.906.788.906Z"/><rect width="40.781" height="25.569" x="12.816" y="136.978" fill="#FAFAFA" rx="1.642"/><path fill="#848E9C" d="M23.702 153.401c-1.299 0-2.356-.886-2.356-2.346v-3.609c0-1.46 1.057-2.346 2.356-2.346 1.31 0 2.368.886 2.368 2.346v3.609c0 1.46-1.057 2.346-2.368 2.346Zm0-1.196c.69 0 1.092-.506 1.092-1.23v-3.449c0-.724-.402-1.23-1.092-1.23-.678 0-1.08.506-1.08 1.23v3.449c0 .724.402 1.23 1.08 1.23Zm5.371.92c0 .08-.057.138-.138.138H27.81a.133.133 0 0 1-.138-.138v-1.127c0-.08.057-.138.138-.138h1.126c.08 0 .138.058.138.138v1.127Zm4.2-5.334c1.437 0 2.23 1 2.23 2.793 0 1.816-.862 2.817-2.46 2.817-.747 0-1.356-.219-1.782-.644-.345-.345-.54-.839-.62-1.495-.012-.092.046-.149.138-.149h1c.092 0 .138.069.15.149.103.679.436.955 1.114.955.85 0 1.184-.449 1.184-1.633 0-1.173-.356-1.667-1.138-1.667-.529 0-.896.184-1.057.575-.046.092-.092.149-.173.149h-.908a.133.133 0 0 1-.138-.138v-4.127c0-.08.057-.138.138-.138h4.184c.081 0 .139.058.139.138v.851a.133.133 0 0 1-.139.138h-3.103v1.793c.298-.241.724-.367 1.241-.367Zm5.107 1.609c-.885 0-1.61-.563-1.61-1.575v-1.161c0-1.012.725-1.564 1.61-1.564.885 0 1.61.552 1.61 1.564v1.161c0 1.012-.725 1.575-1.61 1.575Zm3.828-4.058a.174.174 0 0 1 .161-.104h.793c.104 0 .15.058.104.161l-3.656 7.76a.174.174 0 0 1-.161.104h-.805c-.103 0-.15-.058-.103-.161l3.667-7.76Zm-3.828 3.184c.425 0 .69-.264.69-.793v-.966c0-.528-.265-.793-.69-.793-.426 0-.678.265-.678.793v.966c0 .529.252.793.678.793Zm5.116 4.875c-.886 0-1.61-.552-1.61-1.564v-1.161c0-1.012.724-1.575 1.61-1.575.885 0 1.609.563 1.609 1.575v1.161c0 1.012-.724 1.564-1.61 1.564Zm0-.943c.425 0 .678-.264.678-.793v-.966c0-.529-.253-.793-.678-.793-.426 0-.69.264-.69.793v.966c0 .529.264.793.69.793Z"/><rect width="30.781" height="25.569" x="70.019" y="136.978" fill="#FAFAFA" rx="1.642"/><path fill="#202630" d="M81.524 145.1c.08 0 .138.058.138.138v7.887c0 .08-.057.138-.138.138h-1a.133.133 0 0 1-.138-.138v-6.588l-1.425 1.254c-.092.08-.173.034-.173-.081v-1.127c0-.069.035-.126.08-.172l1.45-1.242a.209.209 0 0 1 .16-.069h1.046Zm4.394 4.3c-.885 0-1.61-.563-1.61-1.575v-1.161c0-1.012.725-1.564 1.61-1.564.885 0 1.61.552 1.61 1.564v1.161c0 1.012-.725 1.575-1.61 1.575Zm3.828-4.058a.174.174 0 0 1 .161-.104h.794c.103 0 .15.058.103.161l-3.656 7.76a.174.174 0 0 1-.16.104h-.805c-.104 0-.15-.058-.104-.161l3.667-7.76Zm-3.828 3.184c.425 0 .69-.264.69-.793v-.966c0-.528-.264-.793-.69-.793-.425 0-.678.265-.678.793v.966c0 .529.253.793.678.793Zm5.116 4.875c-.885 0-1.61-.552-1.61-1.564v-1.161c0-1.012.725-1.575 1.61-1.575.885 0 1.61.563 1.61 1.575v1.161c0 1.012-.725 1.564-1.61 1.564Zm0-.943c.425 0 .678-.264.678-.793v-.966c0-.529-.253-.793-.678-.793-.425 0-.69.264-.69.793v.966c0 .529.265.793.69.793Z"/><rect width="40.781" height="25.569" x="117.223" y="136.978" fill="#FAFAFA" rx="1.642"/><path fill="#848E9C" d="M130.396 152.067c.081 0 .138.058.138.138v.92c0 .08-.057.138-.138.138h-4.483a.133.133 0 0 1-.138-.138v-.966c0-.069.023-.115.069-.161l3.035-3.483c.264-.299.437-.736.437-1.092 0-.69-.46-1.15-1.15-1.15-.655 0-1.161.46-1.161 1.15 0 .092-.058.138-.138.138h-.989c-.08 0-.138-.046-.138-.138 0-1.311 1.035-2.323 2.426-2.323 1.449 0 2.414.932 2.414 2.334 0 .54-.31 1.253-.77 1.771l-2.506 2.862h3.092Zm3.084 1.058c0 .08-.058.138-.138.138h-1.127a.133.133 0 0 1-.138-.138v-1.127c0-.08.058-.138.138-.138h1.127c.08 0 .138.058.138.138v1.127Zm4.199-5.334c1.437 0 2.231 1 2.231 2.793 0 1.816-.863 2.817-2.461 2.817-.747 0-1.356-.219-1.781-.644-.345-.345-.541-.839-.621-1.495-.012-.092.046-.149.138-.149h1c.092 0 .138.069.149.149.104.679.437.955 1.115.955.851 0 1.185-.449 1.185-1.633 0-1.173-.357-1.667-1.139-1.667-.528 0-.896.184-1.057.575-.046.092-.092.149-.173.149h-.908a.133.133 0 0 1-.138-.138v-4.127c0-.08.058-.138.138-.138h4.185c.08 0 .138.058.138.138v.851a.133.133 0 0 1-.138.138h-3.104v1.793c.299-.241.724-.367 1.241-.367Zm5.107 1.609c-.885 0-1.609-.563-1.609-1.575v-1.161c0-1.012.724-1.564 1.609-1.564s1.609.552 1.609 1.564v1.161c0 1.012-.724 1.575-1.609 1.575Zm3.828-4.058a.174.174 0 0 1 .161-.104h.793c.104 0 .15.058.104.161l-3.656 7.76a.173.173 0 0 1-.161.104h-.805c-.103 0-.149-.058-.103-.161l3.667-7.76Zm-3.828 3.184c.425 0 .69-.264.69-.793v-.966c0-.528-.265-.793-.69-.793-.425 0-.678.265-.678.793v.966c0 .529.253.793.678.793Zm5.116 4.875c-.885 0-1.61-.552-1.61-1.564v-1.161c0-1.012.725-1.575 1.61-1.575.885 0 1.609.563 1.609 1.575v1.161c0 1.012-.724 1.564-1.609 1.564Zm0-.943c.425 0 .678-.264.678-.793v-.966c0-.529-.253-.793-.678-.793-.426 0-.69.264-.69.793v.966c0 .529.264.793.69.793Z"/><path fill="#fff" d="M.5 174.043h307.934v64.05H.5z"/><rect width="283.299" height="39.416" x="12.816" y="186.361" fill="#0500FF" rx="3.285"/><path fill="#fff" d="M143.088 211.373c-1.537 0-2.589-.605-3.351-1.551l1.025-.959c.644.788 1.406 1.196 2.405 1.196 1.169 0 1.773-.578 1.773-1.459 0-.709-.368-1.116-1.432-1.327l-.814-.144c-1.774-.329-2.681-1.156-2.681-2.615 0-1.629 1.262-2.627 3.206-2.627 1.38 0 2.391.499 3.101 1.405l-1.038.92c-.473-.617-1.13-1.012-2.142-1.012-1.051 0-1.655.434-1.655 1.235 0 .762.473 1.091 1.458 1.288l.815.171c1.826.354 2.654 1.169 2.654 2.627 0 1.708-1.222 2.852-3.324 2.852Zm10.007-.158c-.749 0-1.143-.473-1.235-1.143h-.066c-.263.854-.998 1.301-1.997 1.301-1.406 0-2.207-.802-2.207-2.037 0-1.353 1.011-2.05 2.917-2.05h1.235v-.578c0-.827-.447-1.314-1.406-1.314-.802 0-1.288.395-1.629.933l-.854-.775c.446-.762 1.248-1.327 2.575-1.327 1.76 0 2.746.867 2.746 2.391v3.43h.722v1.169h-.801Zm-2.891-.933c.881 0 1.538-.42 1.538-1.09v-.986h-1.209c-.999 0-1.485.329-1.485.92v.236c0 .605.447.92 1.156.92Zm6.465.933-2.326-6.832h1.419l1.038 3.114.697 2.391h.079l.696-2.391 1.064-3.114h1.367l-2.352 6.832h-1.682Zm7.816.158c-1.944 0-3.14-1.393-3.14-3.574s1.196-3.574 3.14-3.574c2.01 0 3.035 1.511 3.035 3.403v.539h-4.69v.223c0 1.051.643 1.8 1.8 1.8.841 0 1.405-.394 1.8-1.025l.841.828c-.513.828-1.511 1.38-2.786 1.38Zm0-6.031c-.985 0-1.655.736-1.655 1.787v.092h3.179v-.132c0-1.051-.578-1.747-1.524-1.747ZM.5 237.272h307.934v27.919H.5z"/><rect width="110.035" height="4.106" x="99.039" y="254.517" fill="#202630" rx="2.053"/></g><defs><clipPath id="a"><path fill="#fff" d="M.5.666h307.934v263.591H.5z"/></clipPath></defs></svg>