<svg xmlns="http://www.w3.org/2000/svg" width="331" height="270" fill="none" viewBox="0 0 331 270"><path fill="#1B1B1C" stroke="#0500FF" stroke-linecap="round" stroke-linejoin="round" stroke-width=".914" d="m144.387 98.278 69.123-58.793c24.203-20.582 73.793-26.18 101.109 28.03 27.18 53.942-2.653 90.405-38.989 98.076l-95.836 20.217-35.415-87.522.008-.008Z"/><path stroke="#0500FF" stroke-linecap="round" stroke-linejoin="round" stroke-width=".914" d="m312.706 89.302-11.823 64.312-24.331-41.363-15.643 49.843-20.161-27.601"/><path fill="url(#a)" stroke="#0500FF" stroke-linecap="round" stroke-linejoin="round" stroke-width=".914" d="m215.048 162.529 115.091-81.653c-1.77-5.726-4.168-11.681-7.281-17.851-28.944-57.427-81.479-51.503-107.12-29.69L142.51 95.62l37.519 92.715 101.53-21.416c15.881-3.351 30.579-11.895 40.362-24.782l-106.865 20.391h-.008Z"/><path fill="#F4F4F7" d="M222.72 60.205a45219.233 45219.233 0 0 0 67.63-33.899c-15.69-9.092-32.652-10.243-47.556-6.582-39.465 27.578-74.992 67.94-20.082 40.49l.008-.009Z"/><path stroke="#0500FF" stroke-linecap="round" stroke-linejoin="round" stroke-width=".914" d="m215.056 162.53-11.967 8.488-15.325 2.867"/><path stroke="#0500FF" stroke-linecap="round" stroke-linejoin="round" stroke-width=".914" d="m215.048 162.529 115.091-81.653c-1.77-5.726-4.168-11.681-7.281-17.851-28.944-57.427-81.479-51.503-107.12-29.69L142.51 95.62l37.519 92.715 101.53-21.416c15.881-3.351 30.579-11.895 40.362-24.782l-106.865 20.391h-.008Z"/><path fill="url(#b)" stroke="#0500FF" stroke-linecap="round" stroke-linejoin="round" stroke-width=".914" d="m166.081 197.484 5.376-.945c16.723-2.946 31.755-29.372 17.16-66.217-20.67-52.17-66.852-44.975-66.852-44.975l-5.448 40.124 49.772 72.013h-.008Z"/><path fill="#FFAEFE" stroke="#0500FF" stroke-linecap="round" stroke-linejoin="round" stroke-width=".914" d="m112.62 45.51 11.355 1.62 8.711 15.063-10.029 10.426-10.037-27.11Z"/><path fill="#FFAEFE" stroke="#0500FF" stroke-linecap="round" stroke-linejoin="round" stroke-width=".914" d="M77.545 1.053 97.548 4.49l4.637 21.551 20.86 32.215 25.26 40.085-19.701-5.329-10.196-32.207-21.55-33.835L90.6 5.881l-17.382 9.735 4.327-14.563Z"/><path fill="#1B1B1C" stroke="#0500FF" stroke-linecap="round" stroke-linejoin="round" stroke-width=".914" d="m78.767 105.294 3.478-14.254-12.602-44.53c-1.834-6.48-2.62-17.24-1.747-23.917C69.341 11.49 79.561 3.963 90.591 5.877l6.257 21.09 21.551 33.835 7.766 24.545c1.334 4.216 5.915 8.607 10.187 9.767l11.935 3.232s33.367 19.581 33.367 60.253c0 26.189-9.37 36.67-26.069 45.603l-57.18 30.572-34.416-17.811-23.115-77.255 37.893-34.414Z"/><path fill="#0500FF" stroke="#0500FF" stroke-linecap="round" stroke-linejoin="round" stroke-width=".914" d="m119.502 139.862 11.974-.024c4.153-.008 10.688-1.326 14.516-2.93l27.331-11.443c3.994 6.647 6.694 17.891 6.694 17.891l-63.7 27.665 3.185-31.159Z"/><path fill="#0500FF" stroke="#0500FF" stroke-linecap="round" stroke-linejoin="round" stroke-width=".914" d="m65.61 122.907 15.135 8.282c7.1 3.883 13.69 13.627 14.643 21.663l9.354 78.533 25.982-14.024-7.361-64.613c-1.493-13.11-12.126-29.142-23.624-35.621L78.76 105.303l-13.15 17.612v-.008Z"/><path stroke="#2D9FFF" stroke-linecap="round" stroke-linejoin="round" stroke-width=".914" d="m125.037 167.281-1.66-14.54c-.476-4.153-1.858-8.591-3.898-12.927m-2.462 18.558c.853-2.6-.01-5.218-1.926-5.847-1.917-.628-4.163.97-5.015 3.57-.853 2.6.009 5.218 1.926 5.847 1.917.628 4.162-.97 5.015-3.57Z"/><path stroke="#0500FF" stroke-linecap="round" stroke-linejoin="round" stroke-width=".914" d="M243.222 136.25c2.011-.949 2.695-3.725 1.527-6.2-1.168-2.474-3.745-3.712-5.756-2.763-2.01.949-2.694 3.724-1.526 6.199 1.168 2.475 3.744 3.712 5.755 2.764Zm32.48-23.877c2.011-.949 2.694-3.724 1.526-6.199-1.167-2.475-3.744-3.712-5.755-2.763-2.011.949-2.694 3.724-1.527 6.199 1.168 2.475 3.745 3.712 5.756 2.763Zm32.479-23.852c2.011-.949 2.695-3.724 1.527-6.199-1.168-2.475-3.745-3.712-5.756-2.763-2.01.949-2.694 3.724-1.526 6.199 1.168 2.475 3.744 3.712 5.755 2.763Z"/><path fill="#FFAEFE" stroke="#0500FF" stroke-linecap="round" stroke-linejoin="round" stroke-width=".914" d="M114.577 240.867v9.727l-33.152 17.033V247.37l33.152-6.503Z"/><path fill="url(#c)" stroke="#0500FF" stroke-linecap="round" stroke-linejoin="round" stroke-width=".914" d="M64.476 257.782v10.879l11.386.881-.293-10.624-11.093-1.136Z"/><path fill="url(#d)" stroke="#0500FF" stroke-linecap="round" stroke-linejoin="round" stroke-width=".914" d="m75.86 269.542 5.582-1.914v-20.257l-5.877 11.546.294 10.625Z"/><path fill="url(#e)" stroke="#0500FF" stroke-linecap="round" stroke-linejoin="round" stroke-width=".914" d="M64.473 268.664v-10.879l-11.752-9.632v15.77l11.752 4.741Z"/><path fill="#FFAEFE" stroke="#0500FF" stroke-linecap="round" stroke-linejoin="round" stroke-width=".914" d="M52.714 263.922 25.43 236.931v-12.173l27.284 23.393v15.771Z"/><path fill="#1B1B1C" stroke="#1B1B1C" stroke-linecap="round" stroke-linejoin="round" stroke-width=".914" d="m114.566 250.6-33.152 10.672-5.877 3.343-11.093-.953-11.752-7.583-27.284-24.688v-1.969l56.006 21.392 25.735-8.488 7.417.389v7.885Z"/><path fill="#1B1B1C" stroke="#0500FF" stroke-linecap="round" stroke-linejoin="round" stroke-width=".914" d="m120.15 228.203-1.041-4.724s-5.09-7.052-14.944-5.853c-9.854 1.199-34.47 4.479-34.47 4.479l-30.357-19.193-22.187 5.043 19.058 20.248L72.537 242.6l47.621-14.397h-.008Z"/><path fill="url(#f)" stroke="#0500FF" stroke-linecap="round" stroke-linejoin="round" stroke-width=".914" d="M62.057 246.072v12.539l13.118 1.008-.334-12.245-12.784-1.302Z"/><path fill="url(#g)" stroke="#0500FF" stroke-linecap="round" stroke-linejoin="round" stroke-width=".914" d="m51.965 252.842 10.084 5.765v-12.538l-10.084-15.667v22.44Z"/><path fill="url(#h)" stroke="#0500FF" stroke-linecap="round" stroke-linejoin="round" stroke-width=".914" d="M17.123 207.956v14.158l34.852 30.731v-22.441l-34.852-22.448Z"/><path fill="#FFAEFE" stroke="#0500FF" stroke-linecap="round" stroke-linejoin="round" stroke-width=".914" d="m74.834 247.371 6.575-13.023-29.444-3.946 10.084 15.667 12.785 1.302Zm6.585-13.023 25.736-6.146v16.715l-25.736 8.981v-19.55Z"/><path fill="#1B1B1C" stroke="#1B1B1C" stroke-linecap="round" stroke-linejoin="round" stroke-width=".914" d="m81.419 234.35 4.304 18.049-4.304 1.501v-19.55Z"/><path fill="#FFAEFE" stroke="#0500FF" stroke-linecap="round" stroke-linejoin="round" stroke-width=".914" d="m81.427 253.9-6.24 5.717-.334-12.245 6.574-13.022v19.55Z"/><path fill="url(#i)" stroke="#0500FF" stroke-linecap="round" stroke-linejoin="round" stroke-width=".914" d="M107.146 228.202h12.983v12.848l-12.983 3.867v-16.715Z"/><path fill="#1B1B1C" stroke="#0500FF" stroke-linecap="round" stroke-linejoin="round" stroke-width=".914" d="M130.011 198.511c-5.686-9.791-15.167-11.704-23.409-9.791-8.243 1.914-29.198 0-29.198 0l-41.942-31.516-15.993 5.328-9.156 16.977 32.327 34.328 50.518 5.645 36.853-20.971Z"/><path fill="url(#j)" stroke="#0500FF" stroke-linecap="round" stroke-linejoin="round" stroke-width=".914" d="M53.713 219.481v14.865l15.992 2.58v-14.817l-15.992-2.628Z"/><path fill="url(#k)" stroke="#0500FF" stroke-linecap="round" stroke-linejoin="round" stroke-width=".914" d="m10.328 179.512 30.587 20.86-.23 25.95-30.706-20.987.349-25.823Z"/><path fill="#FFAEFE" stroke="#0500FF" stroke-linecap="round" stroke-linejoin="round" stroke-width=".914" d="m53.696 219.485-12.8-19.113 19.35-14.079h13.675l10.608 23.75-14.84 12.07-15.993-2.628Z"/><path fill="#F4F4F7" stroke="#0500FF" stroke-linecap="round" stroke-linejoin="round" stroke-width=".914" d="m40.68 226.32.23-25.95 12.801 19.113v14.865l-13.03-8.028Z"/><path fill="#FFAEFE" stroke="#0500FF" stroke-linecap="round" stroke-linejoin="round" stroke-width=".914" d="M69.7 236.928v-14.817l14.84-12.07v18.161l-14.84 8.726Zm43.867-19.3v-18.16l-29.023 10.569v18.16l29.023-10.569Z"/><path fill="#1B1B1C" stroke="#1B1B1C" stroke-linecap="round" stroke-linejoin="round" stroke-width=".914" d="m84.544 210.041 3.089 17.041-3.09 1.12v-18.161Z"/><path fill="url(#l)" stroke="#0500FF" stroke-linecap="round" stroke-linejoin="round" stroke-width=".914" d="M113.555 217.634v-18.16l16.453-.961v13.705l-16.453 5.416Z"/><path fill="#F4F4F7" stroke="#0500FF" stroke-linecap="round" stroke-linejoin="round" stroke-width=".914" d="m9.966 205.329-8.695-14.182v-13.324l9.045 1.683-.35 25.823Z"/><path fill="#FFAEFE" stroke="#0500FF" stroke-linecap="round" stroke-linejoin="round" stroke-width=".914" d="m6.663 169.953 12.8-7.416-9.147 16.977-9.045-1.683 5.392-7.878Z"/><path fill="#1B1B1C" d="m67.996 197.756 61.992-19.32 2.676-11.514-4.343-2.763c-5.368-3.415-14.857-5.154-21.082-3.867l-23.275 4.812-19.97-14.802-27.809 23.727 31.803 23.727h.008Z"/><path stroke="#0500FF" stroke-miterlimit="10" stroke-width=".914" d="m132.668 166.928-4.344-2.763c-5.368-3.414-14.857-5.153-21.082-3.867l-23.274 4.812-19.97-14.801"/><path fill="#FFAEFE" stroke="#0500FF" stroke-linecap="round" stroke-linejoin="round" stroke-width=".914" d="m118.058 167.171-33.025 3.478-36.845-20.161.699-7.996 40.06-31.644-10.172-5.55-59.086 26.593-2.088 18.597 30.587 20.852 37.543 10.085 32.327-14.254Z"/><path fill="url(#m)" stroke="#0500FF" stroke-linecap="round" stroke-linejoin="round" stroke-width=".914" d="M56.025 190.639v14.857l15.993 2.581v-14.818l-15.993-2.62Z"/><path fill="#FFAEFE" stroke="#0500FF" stroke-linecap="round" stroke-linejoin="round" stroke-width=".914" d="m118.052 167.171 14.619-.374v14.492l-14.619 7.432v-21.55Z"/><path fill="#FFAEFE" stroke="#0500FF" stroke-linecap="round" stroke-linejoin="round" stroke-width=".914" d="M118.063 167.177 85.736 181.43v23.981l32.327-16.684v-21.55Z"/><path fill="#1B1B1C" stroke="#1B1B1C" stroke-linecap="round" stroke-linejoin="round" stroke-width=".914" d="m85.736 181.423 3.764 22.043-3.764 1.937v-23.98Z"/><path fill="url(#n)" stroke="#0500FF" stroke-linecap="round" stroke-linejoin="round" stroke-width=".914" d="m17.607 150.485 30.588 20.852-.23 25.958-30.707-20.987.35-25.823Z"/><path fill="#FFAEFE" stroke="#0500FF" stroke-linecap="round" stroke-linejoin="round" stroke-width=".914" d="m71.996 193.256 13.729-11.832s-3.502-9.156-1.755-16.31l-6.583-4.876s-15.595-2.501-29.205 11.109l7.821 19.296 15.993 2.621v-.008Z"/><path fill="#F4F4F7" stroke="#0500FF" stroke-linecap="round" stroke-linejoin="round" stroke-width=".914" d="m47.968 197.3 8.052 8.195v-14.857l-7.822-19.296-.23 25.958Z"/><path fill="#FFAEFE" stroke="#0500FF" stroke-linecap="round" stroke-linejoin="round" stroke-width=".914" d="m72.012 193.254 13.73-11.831v23.98l-13.73 2.668v-14.817Z"/><path fill="#1B1B1C" d="M48.882 142.489c8.806 0 15.119 7.821 15.119 7.821l-15.12-7.821Z"/><path stroke="#0500FF" stroke-linecap="round" stroke-linejoin="round" stroke-width=".914" d="M48.882 142.489c8.806 0 15.119 7.821 15.119 7.821"/><path fill="#F4F4F7" stroke="#0500FF" stroke-linecap="round" stroke-linejoin="round" stroke-width=".914" d="M17.25 176.308 6.125 161.61v-13.73l11.474 2.605-.35 25.823Z"/><path fill="#FFAEFE" stroke="#0500FF" stroke-linecap="round" stroke-linejoin="round" stroke-width=".914" d="m6.125 147.883 2.78-9.91 10.783-6.083-2.089 18.597-11.474-2.604Zm13.564-15.994c15.992-1.215 29.198 10.6 29.198 10.6l-.699 7.997s-11.99-6.178-30.587 0l2.088-18.597Z"/><path stroke="#0500FF" stroke-linecap="round" stroke-linejoin="round" stroke-width=".914" d="m82.246 91.046 1.358.834m2.953 1.805.54.334c6.098 3.748 16.58 6.376 24.195 6.186m1.714-.089 1.58-.143M71.22 52.097l1.453.635m2.95 1.278 7.13 3.113c4.058 1.77 10.911 2.445 15.23 1.508l.78-.166m1.575-.347 1.548-.34m-23.822 87.425 1.492-.548m.163-.055 1.493-.54m-6.368 2.342-10.847 3.907m38.179-124.268-5.328.93m21.575 33.832 4.637-2.549"/><defs><linearGradient id="a" x1="272.8" x2="207.448" y1="157.741" y2="57.625" gradientUnits="userSpaceOnUse"><stop stop-color="#FFAEFE"/><stop offset="1" stop-color="#FFF465"/></linearGradient><linearGradient id="b" x1="202.863" x2="137.511" y1="203.384" y2="103.276" gradientUnits="userSpaceOnUse"><stop stop-color="#FFAEFE"/><stop offset="1" stop-color="#FFF465"/></linearGradient><linearGradient id="c" x1="105.91" x2="41.487" y1="263.658" y2="263.658" gradientUnits="userSpaceOnUse"><stop stop-color="#FFAEFE"/><stop offset="1" stop-color="#FFF465"/></linearGradient><linearGradient id="d" x1="105.907" x2="41.484" y1="258.457" y2="258.457" gradientUnits="userSpaceOnUse"><stop stop-color="#FFAEFE"/><stop offset="1" stop-color="#FFF465"/></linearGradient><linearGradient id="e" x1="105.907" x2="41.485" y1="258.412" y2="258.412" gradientUnits="userSpaceOnUse"><stop stop-color="#FFAEFE"/><stop offset="1" stop-color="#FFF465"/></linearGradient><linearGradient id="f" x1="105.881" x2="41.459" y1="252.846" y2="252.846" gradientUnits="userSpaceOnUse"><stop stop-color="#FFAEFE"/><stop offset="1" stop-color="#FFF465"/></linearGradient><linearGradient id="g" x1="105.874" x2="41.451" y1="244.504" y2="244.504" gradientUnits="userSpaceOnUse"><stop stop-color="#FFAEFE"/><stop offset="1" stop-color="#FFF465"/></linearGradient><linearGradient id="h" x1="105.884" x2="41.461" y1="230.405" y2="230.405" gradientUnits="userSpaceOnUse"><stop stop-color="#FFAEFE"/><stop offset="1" stop-color="#FFF465"/></linearGradient><linearGradient id="i" x1="105.876" x2="41.453" y1="236.563" y2="236.563" gradientUnits="userSpaceOnUse"><stop stop-color="#FFAEFE"/><stop offset="1" stop-color="#FFF465"/></linearGradient><linearGradient id="j" x1="105.915" x2="41.492" y1="228.2" y2="228.2" gradientUnits="userSpaceOnUse"><stop stop-color="#FFAEFE"/><stop offset="1" stop-color="#FFF465"/></linearGradient><linearGradient id="k" x1="105.917" x2="41.495" y1="202.921" y2="202.921" gradientUnits="userSpaceOnUse"><stop stop-color="#FFAEFE"/><stop offset="1" stop-color="#FFF465"/></linearGradient><linearGradient id="l" x1="105.9" x2="41.477" y1="208.073" y2="208.073" gradientUnits="userSpaceOnUse"><stop stop-color="#FFAEFE"/><stop offset="1" stop-color="#FFF465"/></linearGradient><linearGradient id="m" x1="105.909" x2="41.486" y1="199.358" y2="199.358" gradientUnits="userSpaceOnUse"><stop stop-color="#FFAEFE"/><stop offset="1" stop-color="#FFF465"/></linearGradient><linearGradient id="n" x1="105.899" x2="41.477" y1="173.886" y2="173.886" gradientUnits="userSpaceOnUse"><stop stop-color="#FFAEFE"/><stop offset="1" stop-color="#FFF465"/></linearGradient></defs></svg>