<svg xmlns="http://www.w3.org/2000/svg" width="364" height="267" fill="none" viewBox="0 0 364 267"><g clip-path="url(#a)"><path fill="#48FF8E" stroke="#0500FF" stroke-linecap="round" stroke-linejoin="round" stroke-width=".74" d="m286.593 17.454-.776 2.017c-.775 2.005-2.313 3.727-4.476 4.74-4.646 2.168-10.417.256-12.894-4.273-1.321-2.412-1.44-5.08-.553-7.374l.776-2.018c-.881 2.294-.769 4.963.552 7.375 2.478 4.528 8.248 6.434 12.895 4.271 2.169-1.012 3.707-2.727 4.476-4.738Z"/><path fill="#1B1B1C" stroke="#0500FF" stroke-linecap="round" stroke-linejoin="round" stroke-width=".74" d="M286.595 17.446c1.788-4.64-.775-9.947-5.723-11.854-4.949-1.906-10.41.31-12.197 4.95-1.788 4.64.774 9.948 5.723 11.854 4.948 1.907 10.409-.31 12.197-4.95Z"/><path fill="#48FF8E" stroke="#0500FF" stroke-linecap="round" stroke-linejoin="round" stroke-width=".74" d="m273.25 33.665.776-2.018c-.684 1.768-.598 3.832.414 5.678l-.776 2.018c-1.012-1.853-1.097-3.91-.414-5.678Z"/><path fill="#1B1B1C" stroke="#0500FF" stroke-linecap="round" stroke-linejoin="round" stroke-width=".74" d="M289.954 22.176c3.562-1.663 8.031-.177 9.931 3.293l3.365 6.145-25.435 11.863-3.365-6.145c-1.899-3.47-.539-7.67 3.023-9.333l12.481-5.823Z"/><path fill="#48FF8E" stroke="#0500FF" stroke-linecap="round" stroke-linejoin="round" stroke-width=".74" d="m303.248 31.605-.782 2.025-25.435 11.856.782-2.018 25.435-11.863Zm-25.437 11.863-.782 2.017-3.358-6.145.775-2.017 3.365 6.145Z"/><path fill="#48FF91" d="m355.289 164.732-3.195-.762c1.243-5.199-9.378-16.023-42.897-30.811-30.462-13.44-72.091-26.769-117.203-37.528-45.112-10.759-88.272-17.64-121.528-19.388-36.588-1.926-50.942 2.944-52.184 8.143l-3.194-.762C17.73 72.536 46.76 71.702 70.637 72.957c33.446 1.755 76.817 8.675 122.119 19.474 45.303 10.798 87.129 24.192 117.769 37.718 21.879 9.654 47.412 23.489 44.764 34.583Z"/><path stroke="#0500FF" stroke-miterlimit="10" stroke-width=".592" d="M15.088 83.624C17.73 72.536 46.76 71.702 70.637 72.957c33.446 1.755 76.817 8.675 122.119 19.474 45.303 10.798 87.129 24.192 117.769 37.718 21.879 9.654 47.412 23.489 44.764 34.583"/><path stroke="#0500FF" stroke-miterlimit="10" stroke-width=".592" d="M352.109 163.971c1.242-5.199-9.378-16.023-42.897-30.811-30.463-13.44-72.091-26.769-117.203-37.528-45.112-10.758-88.273-17.64-121.528-19.388-36.588-1.925-50.942 2.945-52.184 8.143"/><path fill="#48FF91" d="M19.65 180.604c-7.276-21.334 3.305-47.249 29.785-72.966 26.17-25.415 64.789-47.662 108.738-62.647 44.133-15.044 88.423-21.005 124.729-16.772 36.469 4.252 60.543 18.29 67.78 39.526l-3.109 1.058c-6.809-19.973-29.911-33.223-65.053-37.324-35.832-4.18-79.609 1.728-123.289 16.62-43.502 14.828-81.68 36.812-107.51 61.892-25.52 24.784-35.805 49.476-28.963 69.548l-3.109 1.058v.007Z"/><path stroke="#0500FF" stroke-miterlimit="10" stroke-width=".592" d="M347.562 68.808c-6.809-19.973-29.911-33.223-65.053-37.324-35.832-4.18-79.61 1.729-123.289 16.621-43.502 14.828-81.68 36.812-107.51 61.892-25.52 24.784-35.805 49.476-28.963 69.547"/><path stroke="#0500FF" stroke-miterlimit="10" stroke-width=".592" d="M19.65 180.604c-7.276-21.334 3.305-47.249 29.785-72.966 26.17-25.415 64.789-47.662 108.738-62.647 44.133-15.044 88.423-21.005 124.729-16.772 36.469 4.252 60.543 18.29 67.78 39.526"/><path fill="#2D9FFF" d="M185.222 266.394c73.419 0 132.937-59.518 132.937-132.938C318.159 60.037 258.641.519 185.222.519c-73.42 0-132.938 59.518-132.938 132.937 0 73.42 59.518 132.938 132.938 132.938Z"/><path fill="url(#b)" d="M185.222 266.394c73.419 0 132.937-59.518 132.937-132.938C318.159 60.037 258.641.519 185.222.519c-73.42 0-132.938 59.518-132.938 132.937 0 73.42 59.518 132.938 132.938 132.938Z"/><path stroke="#0500FF" stroke-linecap="round" stroke-linejoin="round" stroke-width=".74" d="m220.327 5.232-3.371-.88c-1.985-.474-4.647-1.032-6.645-1.46-1.742-.321-4.068-.696-5.81-.985a15.144 15.144 0 0 0-2.116-.171c2.97.434 5.843.986 8.563 1.65 3.661.952 4.266 1.163 7.624 2.346a60.455 60.455 0 0 1 13.907 3.47c-4.416-1.663-5.001-1.84-12.152-3.976v.006Z"/><path stroke="#0500FF" stroke-linecap="round" stroke-linejoin="round" stroke-width=".74" d="M193.743.793c5.152.407 5.251.414 7.886.743l2.866.387a15.156 15.156 0 0 0-2.116-.17c-2.971-.434-6.04-.75-9.162-.947.177-.013.348-.02.519 0m-20.203.22c1.545-.112 3.602-.27 5.153-.355 1.505-.053 3.516-.125 5.028-.151.026 0 .052.006.072.026-3.155.033-6.309.19-9.398.46a7.39 7.39 0 0 0-.855.02Z"/><path stroke="#0500FF" stroke-linecap="round" stroke-linejoin="round" stroke-width=".74" d="M162.447 2.475c3.746-.587 6.562-.984 8.446-1.19l2.635-.256c.283-.026.565-.033.855-.02-3.089.27-6.119.658-9.037 1.17-.98.033-1.946.132-2.892.303"/><path stroke="#0500FF" stroke-linecap="round" stroke-linejoin="round" stroke-width=".74" d="m149.014 5.54 3.76-1.005c4.237-.986 7.453-1.671 9.648-2.057h.013a20.25 20.25 0 0 1 2.892-.302c-2.918.506-5.725 1.13-8.36 1.88a64.006 64.006 0 0 0-3.832 1.209c-1.229.434-2.372.88-3.444 1.347a68.453 68.453 0 0 0-15.898 4.279 78.4 78.4 0 0 1 2.399-.993l4.995-1.873c3.647-1.196 4.725-1.564 7.821-2.484h.006Zm103.017 22.8a140.141 140.141 0 0 0-20.689-9.674c-.224 1.15-.769 2.3-1.637 3.418-.868 1.117-2.051 2.215-3.556 3.26a147.117 147.117 0 0 1 18.363 12.67 155.874 155.874 0 0 1 16.451 15.367c2.78-1.94 4.975-3.957 6.572-6.027 1.597-2.07 2.609-4.187 3.023-6.322a138.283 138.283 0 0 0-18.534-12.685l.007-.007Z"/><path stroke="#0500FF" stroke-linecap="round" stroke-linejoin="round" stroke-width=".74" d="M244.498 38.006a148.53 148.53 0 0 0-18.363-12.672c-1.505 1.046-3.325 2.044-5.468 2.984-1.071.467-2.228.92-3.457 1.354a60.564 60.564 0 0 1-3.818 1.203c4.41 4.594 8.642 9.668 12.651 15.149s7.802 11.37 11.337 17.587c2.432-.69 4.792-1.432 7.059-2.228a92.936 92.936 0 0 0 6.395-2.504c3.956-1.728 7.328-3.581 10.108-5.514A157.153 157.153 0 0 0 244.492 38l.006.007Z"/><path stroke="#0500FF" stroke-linecap="round" stroke-linejoin="round" stroke-width=".74" d="M226.07 46.03c-4.009-5.48-8.242-10.555-12.652-15.149a83.548 83.548 0 0 1-8.36 1.88c-2.918.506-5.948.9-9.037 1.17 1.696 5.067 3.319 10.601 4.857 16.516a372.621 372.621 0 0 1 4.351 18.81c5.718-.5 11.324-1.223 16.72-2.162 5.396-.94 10.581-2.097 15.465-3.477-3.536-6.218-7.328-12.106-11.338-17.588h-.006Z"/><path stroke="#0500FF" stroke-linecap="round" stroke-linejoin="round" stroke-width=".74" d="M200.882 50.448c-1.538-5.915-3.161-11.449-4.857-16.516-3.089.27-6.244.427-9.398.46a128.69 128.69 0 0 1-9.438-.243c-1.249 5.107-2.451 10.667-3.588 16.615a488.662 488.662 0 0 0-3.214 18.902c5.764.368 11.62.519 17.462.453a226.586 226.586 0 0 0 17.384-.854 372.621 372.621 0 0 0-4.351-18.81v-.007Z"/><path stroke="#0500FF" stroke-linecap="round" stroke-linejoin="round" stroke-width=".74" d="M168.02 33.199a92.85 92.85 0 0 1-8.564-1.65c-4.022 4.699-7.874 9.878-11.528 15.451-3.654 5.58-7.111 11.554-10.331 17.857 5.027 1.236 10.344 2.248 15.839 3.05a210.303 210.303 0 0 0 16.943 1.754 490.829 490.829 0 0 1 3.214-18.901c1.137-5.948 2.34-11.515 3.588-16.615a113.062 113.062 0 0 1-9.161-.947Z"/><path stroke="#0500FF" stroke-linecap="round" stroke-linejoin="round" stroke-width=".74" d="M151.819 29.199c-2.36-.9-4.397-1.867-6.106-2.892-6.172 3.878-12.087 8.275-17.693 13.105a159.352 159.352 0 0 0-15.852 15.754c3.161 1.886 6.927 3.68 11.291 5.343 4.364 1.663 9.109 3.109 14.144 4.344 3.22-6.302 6.677-12.276 10.331-17.856 3.654-5.58 7.512-10.753 11.528-15.452-2.721-.664-5.284-1.446-7.643-2.346Z"/><path stroke="#0500FF" stroke-linecap="round" stroke-linejoin="round" stroke-width=".74" d="M141.541 23.113c-1.065-1.104-1.801-2.241-2.221-3.385a143.19 143.19 0 0 0-20.552 10.154 142.057 142.057 0 0 0-18.415 13.112c.775 2.123 2.142 4.226 4.107 6.263 1.965 2.044 4.528 4.023 7.696 5.915a158.71 158.71 0 0 1 15.853-15.753c5.606-4.831 11.521-9.228 17.692-13.106-1.709-1.018-3.095-2.09-4.16-3.194v-.006Z"/><path stroke="#0500FF" stroke-linecap="round" stroke-linejoin="round" stroke-width=".74" d="M139.037 16.267c.223-1.15.769-2.3 1.636-3.417a116.115 116.115 0 0 0-19.947 7.071 111.794 111.794 0 0 0-17.87 10.345c-1.603 2.07-2.616 4.187-3.03 6.323-.414 2.136-.243 4.278.533 6.401a141.174 141.174 0 0 1 18.415-13.112 143.19 143.19 0 0 1 20.552-10.154 6.38 6.38 0 0 1-.289-3.463v.006Z"/><path stroke="#0500FF" stroke-linecap="round" stroke-linejoin="round" stroke-width=".74" d="M133.814 10.885a65.25 65.25 0 0 0-2.602 1.117c-3.746 1.775-8.669 4.292-12.317 6.264-1.472.86-3.168 1.932-4.843 3.003a91.803 91.803 0 0 0-4.042 2.603l-.165.105c-.131.092-.263.178-.394.27-2.787 1.932-4.975 3.956-6.579 6.026a111.298 111.298 0 0 1 17.87-10.344 116.094 116.094 0 0 1 19.947-7.072c.867-1.117 2.05-2.208 3.556-3.26 1.505-1.051 3.325-2.044 5.468-2.984a68.463 68.463 0 0 0-15.899 4.279v-.007Z"/><path stroke="#0500FF" stroke-linecap="round" stroke-linejoin="round" stroke-width=".74" d="m131.201 12.001 5.002-2.103a64.73 64.73 0 0 0-2.399.992 63.88 63.88 0 0 0-2.603 1.118m-22.585 12.823 1.222-.854c-.131.092-.262.177-.394.27-.276.19-.559.387-.835.584"/><path stroke="#0500FF" stroke-linecap="round" stroke-linejoin="round" stroke-width=".74" d="M87.436 43.58a29.623 29.623 0 0 1 2.038-2.34c2.754-2.661 6.414-6.23 9.293-8.754 2.925-2.34 6.822-5.461 9.852-7.656.276-.198.552-.388.835-.585-2.787 1.932-4.976 3.956-6.579 6.026a108.2 108.2 0 0 0-15.432 13.316m199.131 12.764a134.822 134.822 0 0 0-16.01-15.327c-.414 2.13-1.419 4.253-3.023 6.323-1.597 2.07-3.792 4.088-6.572 6.027a162.117 162.117 0 0 1 14.209 17.646 161.73 161.73 0 0 1 11.633 19.507c3.726-2.596 6.671-5.304 8.813-8.084 2.143-2.774 3.497-5.62 4.055-8.478a129.488 129.488 0 0 0-13.105-17.614Z"/><path stroke="#0500FF" stroke-linecap="round" stroke-linejoin="round" stroke-width=".74" d="M275.189 71.017A162.117 162.117 0 0 0 260.98 53.37c-2.78 1.939-6.152 3.786-10.109 5.514a92.904 92.904 0 0 1-6.394 2.504 122.107 122.107 0 0 1-7.059 2.228 211.36 211.36 0 0 1 9.793 19.566 229.103 229.103 0 0 1 8.018 21.084c3.266-.92 6.428-1.919 9.464-2.991a121.554 121.554 0 0 0 8.57-3.358c5.311-2.32 9.826-4.798 13.559-7.394a160.849 160.849 0 0 0-11.633-19.506Z"/><path stroke="#0500FF" stroke-linecap="round" stroke-linejoin="round" stroke-width=".74" d="M247.199 83.188a211.348 211.348 0 0 0-9.793-19.566c-4.877 1.38-10.069 2.537-15.464 3.477a198.289 198.289 0 0 1-16.72 2.162 486.76 486.76 0 0 1 3.759 20.624 564.37 564.37 0 0 1 3.076 21.945c7.663-.677 15.182-1.643 22.418-2.899 7.236-1.262 14.189-2.813 20.735-4.666a228.532 228.532 0 0 0-8.018-21.084l.007.007Z"/><path stroke="#0500FF" stroke-linecap="round" stroke-linejoin="round" stroke-width=".74" d="M209.002 89.886a488.415 488.415 0 0 0-3.759-20.624c-5.718.5-11.548.789-17.384.855a233.64 233.64 0 0 1-17.463-.454 644.217 644.217 0 0 0-2.773 20.696 765.583 765.583 0 0 0-2.268 22.011 311.45 311.45 0 0 0 23.411.604 310.327 310.327 0 0 0 23.312-1.143 561.003 561.003 0 0 0-3.076-21.945Z"/><path stroke="#0500FF" stroke-linecap="round" stroke-linejoin="round" stroke-width=".74" d="M153.443 67.91c-5.494-.802-10.811-1.82-15.839-3.05a226.683 226.683 0 0 0-8.918 19.796 248.71 248.71 0 0 0-7.302 21.274c6.743 1.65 13.867 3.017 21.241 4.088a283.434 283.434 0 0 0 22.721 2.353 768.138 768.138 0 0 1 2.267-22.01 644.12 644.12 0 0 1 2.774-20.696 210.75 210.75 0 0 1-16.944-1.755Z"/><path stroke="#0500FF" stroke-linecap="round" stroke-linejoin="round" stroke-width=".74" d="M123.449 60.52c-4.364-1.663-8.13-3.457-11.292-5.343A167.704 167.704 0 0 0 87.262 92.94c4.239 2.53 9.286 4.936 15.142 7.164 5.856 2.228 12.218 4.173 18.961 5.823a250.923 250.923 0 0 1 7.302-21.275 226.392 226.392 0 0 1 8.919-19.795c-5.028-1.236-9.78-2.682-14.144-4.345l.007.007Z"/><path stroke="#0500FF" stroke-linecap="round" stroke-linejoin="round" stroke-width=".74" d="M104.464 49.26c-1.965-2.043-3.332-4.14-4.107-6.262a139.004 139.004 0 0 0-15.899 15.694 133.388 133.388 0 0 0-13.013 17.916c1.039 2.846 2.872 5.665 5.508 8.4 2.635 2.74 6.073 5.395 10.318 7.926a167.69 167.69 0 0 1 24.896-37.765c-3.161-1.886-5.724-3.87-7.696-5.915l-.007.007Z"/><path stroke="#0500FF" stroke-linecap="round" stroke-linejoin="round" stroke-width=".74" d="M99.83 36.59c.413-2.13 1.425-4.253 3.029-6.323a108.21 108.21 0 0 0-15.432 13.316 28.324 28.324 0 0 1 2.038-2.34c-1.387 1.452-2.99 3.273-4.515 5.021a92.758 92.758 0 0 0-1.828 2.097c-.223.25-.44.5-.65.736l-.605.762c-.677.828-1.347 1.663-1.998 2.51-1.978 2.59-4.403 6.205-6.276 8.873-1.46 2.235-2.406 4.502-2.853 6.783-.558 2.859-.322 5.737.717 8.583A133.553 133.553 0 0 1 84.47 58.692a137.971 137.971 0 0 1 15.898-15.694c-.775-2.123-.946-4.272-.532-6.402l-.007-.006Zm209.674 56.915a123.826 123.826 0 0 0-9.826-19.54c-.559 2.86-1.906 5.705-4.055 8.479-2.143 2.773-5.08 5.487-8.813 8.084a155.623 155.623 0 0 1 8.721 20.958 146.524 146.524 0 0 1 5.481 21.998c4.253-2.958 7.598-6.047 10.043-9.208 2.445-3.161 3.982-6.401 4.62-9.661a118.776 118.776 0 0 0-6.171-21.104v-.006Z"/><path stroke="#0500FF" stroke-linecap="round" stroke-linejoin="round" stroke-width=".74" d="M295.538 111.486a155.222 155.222 0 0 0-8.721-20.96c-3.727 2.597-8.249 5.075-13.559 7.395a127.958 127.958 0 0 1-8.57 3.358 161.5 161.5 0 0 1-9.464 2.99 231.865 231.865 0 0 1 6.013 22.142 224.031 224.031 0 0 1 3.779 22.734 185.075 185.075 0 0 0 10.792-3.404 144.376 144.376 0 0 0 9.773-3.826c6.053-2.642 11.199-5.468 15.451-8.425a146.524 146.524 0 0 0-5.481-21.998l-.013-.006Z"/><path stroke="#0500FF" stroke-linecap="round" stroke-linejoin="round" stroke-width=".74" d="M261.228 126.408a231.71 231.71 0 0 0-6.014-22.142c-6.539 1.846-13.499 3.404-20.735 4.666-7.237 1.262-14.755 2.228-22.418 2.898a608.24 608.24 0 0 1 2.306 22.786 590.692 590.692 0 0 1 1.453 23.141c8.734-.769 17.305-1.873 25.553-3.305 8.248-1.44 16.174-3.208 23.627-5.317a224.031 224.031 0 0 0-3.779-22.734l.007.007Z"/><path stroke="#0500FF" stroke-linecap="round" stroke-linejoin="round" stroke-width=".74" d="M214.354 134.621a606.74 606.74 0 0 0-2.307-22.786 303.57 303.57 0 0 1-23.312 1.144 315.078 315.078 0 0 1-23.41-.605 829.465 829.465 0 0 0-1.703 22.832 799.889 799.889 0 0 0-1.064 23.174c8.813.565 17.758.795 26.683.69a351.075 351.075 0 0 0 26.572-1.308 589.84 589.84 0 0 0-1.453-23.141h-.006Z"/><path stroke="#0500FF" stroke-linecap="round" stroke-linejoin="round" stroke-width=".74" d="M142.617 110.022c-7.374-1.072-14.492-2.439-21.242-4.088a253.451 253.451 0 0 0-5.468 22.28 245.532 245.532 0 0 0-3.43 22.825c7.683 1.886 15.806 3.437 24.205 4.66 8.4 1.222 17.082 2.116 25.895 2.681.243-7.729.598-15.477 1.065-23.174a801.242 801.242 0 0 1 1.702-22.832c-7.729-.492-15.346-1.275-22.72-2.352h-.007Z"/><path stroke="#0500FF" stroke-linecap="round" stroke-linejoin="round" stroke-width=".74" d="M102.421 100.104c-5.856-2.228-10.897-4.634-15.142-7.164a163.08 163.08 0 0 0-8.4 21.169 154.233 154.233 0 0 0-5.27 22.123c4.837 2.885 10.587 5.625 17.258 8.169 6.671 2.543 13.927 4.752 21.61 6.638a247.584 247.584 0 0 1 3.431-22.826 257.245 257.245 0 0 1 5.468-22.28c-6.743-1.649-13.112-3.595-18.961-5.823l.006-.006Z"/><path stroke="#0500FF" stroke-linecap="round" stroke-linejoin="round" stroke-width=".74" d="M76.967 85.003c-2.635-2.74-4.469-5.553-5.507-8.399a126.351 126.351 0 0 0-9.754 19.77 122.073 122.073 0 0 0-6.125 21.241c1.183 3.247 3.273 6.454 6.277 9.576 3.003 3.122 6.92 6.151 11.757 9.037a154.246 154.246 0 0 1 5.271-22.123 162.151 162.151 0 0 1 8.4-21.169c-4.24-2.53-7.683-5.192-10.319-7.926v-.007Zm-4.072-22.625.69-1.137c-.243.374-.473.755-.69 1.137Z"/><path stroke="#0500FF" stroke-linecap="round" stroke-linejoin="round" stroke-width=".74" d="M70.737 68.022c.368-1.893 1.097-3.78 2.162-5.646l-3.306 5.448c-2.47 4.634-5.475 10.97-7.63 15.76l-1.827 4.772a206.01 206.01 0 0 0-1.433 4.686 113.566 113.566 0 0 0-3.943 14.788v.006c-.638 3.26-.368 6.54.815 9.787A121.351 121.351 0 0 1 61.7 96.381a127.81 127.81 0 0 1 9.753-19.77c-1.038-2.845-1.275-5.724-.716-8.583v-.006Z"/><path stroke="#0500FF" stroke-linecap="round" stroke-linejoin="round" stroke-width=".74" d="m54.749 107.887.014-.061v.007c0 .02 0 .034-.007.054m260.924 6.719c-.631 3.26-2.175 6.5-4.62 9.662-2.445 3.161-5.797 6.25-10.042 9.207 1.248 7.46 1.906 15.025 1.906 22.622 0 7.598-.645 14.913-1.893 21.892 4.252-2.957 7.597-6.046 10.042-9.207 2.438-3.155 3.976-6.375 4.614-9.622l.052-.263a115.695 115.695 0 0 0 2.09-21.971c0-7.598-.736-15.057-2.149-22.313v-.007Z"/><path stroke="#0500FF" stroke-linecap="round" stroke-linejoin="round" stroke-width=".74" d="M301.018 133.48c-4.252 2.958-9.405 5.784-15.451 8.426a142.634 142.634 0 0 1-9.773 3.825 182.884 182.884 0 0 1-10.792 3.405c.861 7.63 1.314 15.28 1.314 22.878 0 7.597-.447 14.82-1.301 21.636a184.31 184.31 0 0 0 10.792-3.405 144.065 144.065 0 0 0 9.773-3.825c6.053-2.642 11.199-5.468 15.451-8.426 1.249-6.979 1.893-14.294 1.893-21.885 0-7.598-.657-15.162-1.906-22.622v-.007Z"/><path stroke="#0500FF" stroke-linecap="round" stroke-linejoin="round" stroke-width=".74" d="M265.012 149.135c-7.453 2.109-15.385 3.877-23.627 5.317-8.248 1.439-16.812 2.537-25.553 3.306.329 7.722.506 15.418.506 23.022 0 7.598-.171 14.775-.493 21.492 8.735-.769 17.305-1.873 25.553-3.306 8.248-1.44 16.175-3.208 23.628-5.317.854-6.809 1.301-14.032 1.301-21.63 0-7.597-.454-15.254-1.315-22.878v-.006Z"/><path stroke="#0500FF" stroke-linecap="round" stroke-linejoin="round" stroke-width=".74" d="M215.832 157.758a350.87 350.87 0 0 1-26.572 1.308c-8.925.105-17.87-.131-26.683-.69a734.165 734.165 0 0 0-.368 23.029c0 7.598.131 14.775.375 21.485 8.813.565 17.758.795 26.683.69a351.075 351.075 0 0 0 26.572-1.308c.328-6.717.499-13.893.493-21.491 0-7.598-.178-15.3-.506-23.023h.006Z"/><path stroke="#0500FF" stroke-linecap="round" stroke-linejoin="round" stroke-width=".74" d="M162.202 181.409c0-7.597.125-15.307.368-23.029-8.813-.559-17.495-1.453-25.894-2.682-8.4-1.222-16.517-2.78-24.206-4.659a225.577 225.577 0 0 0-1.19 22.911c0 7.597.414 14.813 1.196 21.603 7.69 1.886 15.807 3.437 24.206 4.659 8.399 1.223 17.081 2.117 25.895 2.682a594.634 594.634 0 0 1-.375-21.478v-.007Z"/><path stroke="#0500FF" stroke-linecap="round" stroke-linejoin="round" stroke-width=".74" d="M111.292 173.944c0-7.597.408-15.26 1.19-22.911-7.69-1.886-14.94-4.094-21.61-6.638-6.67-2.543-12.422-5.284-17.259-8.169a143.015 143.015 0 0 0-1.827 22.668c0 7.597.631 14.899 1.834 21.846 4.837 2.885 10.588 5.626 17.259 8.169 6.67 2.544 13.926 4.752 21.609 6.638-.788-6.789-1.196-14.005-1.196-21.603Z"/><path stroke="#0500FF" stroke-linecap="round" stroke-linejoin="round" stroke-width=".74" d="M71.787 158.901c0-7.598.624-15.182 1.827-22.668-4.837-2.885-8.754-5.915-11.758-9.037-3.003-3.122-5.093-6.329-6.276-9.576a118.985 118.985 0 0 0-2.123 22.359c0 7.598.736 14.998 2.13 22.149 1.182 3.246 3.272 6.454 6.276 9.575 3.004 3.122 6.92 6.152 11.758 9.037-1.203-6.947-1.834-14.248-1.834-21.846v.007Z"/><path stroke="#0500FF" stroke-linecap="round" stroke-linejoin="round" stroke-width=".74" d="M53.454 139.985a118.5 118.5 0 0 1 2.123-22.365c-1.183-3.247-1.453-6.527-.815-9.787 0 .02-.007.033-.013.053l-.46 2.484c-1.42 8.426-1.44 8.978-2.005 23.168.138 5.277.67 12.303 1.157 17.561l1.334 8.149c.19.967.46 1.926.809 2.886a115.165 115.165 0 0 1-2.13-22.149Zm255.041 43.426c-1.788 3.957-4.062 9.3-6.165 13.105-1.63 2.774-3.72 6.527-5.462 9.228a24.218 24.218 0 0 1-1.189 1.669c-2.143 2.78-5.087 5.488-8.814 8.084a100.512 100.512 0 0 0 8.715-17.614c2.379-6.269 4.219-12.914 5.468-19.894 4.246-2.957 7.598-6.046 10.043-9.208 2.103-2.72 3.536-5.507 4.298-8.307-1.144 4.831-2.563 10.831-4.075 15.3l-2.819 7.637Zm0 0c-.198.48-.414.96-.651 1.44m7.533-24.378c.118-.44.223-.874.309-1.314-.099.427-.204.867-.309 1.314Z"/><path stroke="#0500FF" stroke-linecap="round" stroke-linejoin="round" stroke-width=".74" d="M285.578 186.424a143.151 143.151 0 0 1-9.773 3.825 181.91 181.91 0 0 1-10.792 3.404c-.854 6.809-2.122 13.21-3.765 19.152-1.644 5.941-3.655 11.436-6.001 16.43 3.266-.92 6.428-1.919 9.464-2.99a121.7 121.7 0 0 0 8.57-3.358c5.311-2.32 9.826-4.798 13.559-7.394 3.411-5.455 6.329-11.344 8.715-17.614a110.682 110.682 0 0 0 5.468-19.894c-4.252 2.957-9.405 5.783-15.451 8.426l.006.013Z"/><path stroke="#0500FF" stroke-linecap="round" stroke-linejoin="round" stroke-width=".74" d="M241.384 198.968c-8.248 1.439-16.811 2.537-25.553 3.306-.328 6.717-.815 12.98-1.439 18.744-.631 5.764-1.4 11.041-2.3 15.78 7.663-.677 15.182-1.643 22.418-2.899 7.236-1.255 14.189-2.812 20.735-4.666 2.347-4.995 4.364-10.489 6.001-16.431 1.643-5.941 2.911-12.342 3.766-19.151-7.46 2.11-15.386 3.878-23.628 5.317Z"/><path stroke="#0500FF" stroke-linecap="round" stroke-linejoin="round" stroke-width=".74" d="M189.265 203.576c-8.925.105-17.87-.132-26.683-.69.243 6.71.611 12.96 1.078 18.717.467 5.758 1.038 11.009 1.709 15.734 7.735.493 15.583.697 23.41.605a310.145 310.145 0 0 0 23.312-1.143c.9-4.746 1.669-10.017 2.3-15.78.631-5.764 1.111-12.028 1.44-18.745a350.92 350.92 0 0 1-26.572 1.308l.006-.006Z"/><path stroke="#0500FF" stroke-linecap="round" stroke-linejoin="round" stroke-width=".74" d="M163.67 221.602c-.466-5.757-.828-12.008-1.077-18.718-8.814-.558-17.496-1.452-25.895-2.681-8.399-1.223-16.516-2.78-24.206-4.66.789 6.789 1.946 13.158 3.444 19.066 1.499 5.909 3.339 11.35 5.481 16.286 6.743 1.65 13.868 3.017 21.242 4.088a283.869 283.869 0 0 0 22.72 2.353c-.67-4.725-1.242-9.983-1.709-15.734Z"/><path stroke="#0500FF" stroke-linecap="round" stroke-linejoin="round" stroke-width=".74" d="M115.936 214.61c-1.498-5.909-2.661-12.271-3.444-19.066-7.689-1.887-14.938-4.095-21.61-6.638-6.67-2.544-12.42-5.284-17.258-8.17 1.203 6.954 2.984 13.552 5.284 19.763 2.3 6.211 5.12 12.027 8.406 17.404 4.24 2.53 9.287 4.935 15.143 7.163 5.855 2.228 12.217 4.174 18.961 5.823-2.143-4.942-3.983-10.384-5.482-16.286v.007ZM60.2 178.839v-.008.008Z"/><path stroke="#0500FF" stroke-linecap="round" stroke-linejoin="round" stroke-width=".74" d="M78.891 200.509c-2.3-6.211-4.08-12.816-5.284-19.763-4.837-2.885-8.754-5.915-11.757-9.037-3.004-3.122-5.094-6.329-6.277-9.576a19.697 19.697 0 0 1-.808-2.885c.913 4.292 2.458 9.944 3.601 14.183.02.066 1.571 4.739 3.615 10.062 1.367 3.313 3.464 7.604 4.982 10.851 1.86 3.51 4.614 8.051 6.65 11.462.921 1.407 2.045 2.806 3.366 4.18 2.635 2.741 6.073 5.396 10.318 7.926-3.286-5.376-6.105-11.192-8.406-17.403Z"/><path stroke="#0500FF" stroke-linecap="round" stroke-linejoin="round" stroke-width=".74" d="M89.056 225.311c-3.083-3.47-7.144-8.143-10.023-11.79l-5.409-7.716c.92 1.406 2.044 2.806 3.365 4.18a103.12 103.12 0 0 0 12.06 15.326m197.804-9.81a94.863 94.863 0 0 1-11.626 15.044c-4.43 4.621-4.765 4.884-13.434 11.646 3.779-2.806 8.669-6.749 12.277-9.779 2.182-1.893 4.85-4.68 6.921-6.684 2.78-2.971 6.276-7.118 8.898-10.227l.645-.828a108.08 108.08 0 0 0 5.132-7.256c-2.142 2.774-5.08 5.488-8.813 8.084Zm-16.83-180.878c-.775-2.123-2.149-4.226-4.114-6.264a105.584 105.584 0 0 0-17.522-9.93 109.337 109.337 0 0 0-19.559-6.606c1.065 1.104 1.808 2.241 2.228 3.385.421 1.15.519 2.307.289 3.464a140.428 140.428 0 0 1 20.69 9.674 137.742 137.742 0 0 1 18.534 12.684c.414-2.129.236-4.278-.539-6.401l-.007-.006Z"/><path stroke="#0500FF" stroke-linecap="round" stroke-linejoin="round" stroke-width=".74" d="M285.939 48.75c.92 2.523 1.137 5.066.644 7.603a134.373 134.373 0 0 0-16.01-15.326c.414-2.13.237-4.279-.539-6.401a118.977 118.977 0 0 1 15.905 14.13"/><path stroke="#0500FF" stroke-linecap="round" stroke-linejoin="round" stroke-width=".74" d="M281.051 41.311c2.34 2.425 3.963 4.916 4.89 7.44a120.257 120.257 0 0 0-15.905-14.13c-.775-2.123-2.149-4.226-4.114-6.264a103.66 103.66 0 0 1 15.136 12.954"/><path stroke="#0500FF" stroke-linecap="round" stroke-linejoin="round" stroke-width=".74" d="M281.396 41.681c1.965 2.208 4.653 5.087 6.533 7.36 2.734 3.59 6.355 8.4 8.885 12.133a20.911 20.911 0 0 1 2.136 4.2 116.4 116.4 0 0 0-13.019-16.634c-.92-2.524-2.55-5.015-4.89-7.44l.355.374"/><path stroke="#0500FF" stroke-linecap="round" stroke-linejoin="round" stroke-width=".74" d="M298.965 65.381c1.038 2.846 1.281 5.725.723 8.583a129.578 129.578 0 0 0-13.105-17.613c.492-2.53.276-5.08-.645-7.604a115.546 115.546 0 0 1 13.02 16.634m-1.439-3.031c-.223-.395-.46-.782-.709-1.17l.709 1.17Z"/><path stroke="#0500FF" stroke-linecap="round" stroke-linejoin="round" stroke-width=".74" d="M315.662 107.745c-1.387-5.902-3.556-13.696-5.389-19.473l-.158-.428c-.447-1.229-.92-2.451-1.407-3.66-.085-.23-.17-.454-.262-.684a41.9 41.9 0 0 0-.414-.933 110.397 110.397 0 0 0-4.042-8.537 345.149 345.149 0 0 0-3.181-6.277l-3.287-5.402a19.93 19.93 0 0 1 1.42 3.03c1.038 2.845 1.282 5.724.723 8.583a123.227 123.227 0 0 1 9.826 19.54 118.863 118.863 0 0 1 6.171 21.103c.447-2.287.44-4.581-.007-6.868l.007.006Z"/><path stroke="#0500FF" stroke-linecap="round" stroke-linejoin="round" stroke-width=".74" d="M316.143 110.286c1.847 13.683 1.959 14.505 2.018 23.16 0 1.157-.112 2.32-.335 3.477 0-7.597-.736-15.057-2.149-22.313.446-2.287.44-4.581-.007-6.868l.473 2.544Z"/><path stroke="#0500FF" stroke-linecap="round" stroke-linejoin="round" stroke-width=".74" d="M318.159 133.449c-.244 6.053-.815 14.117-1.512 20.131l-.914 5.31a115.695 115.695 0 0 0 2.09-21.971 18.23 18.23 0 0 0 .336-3.477M193.232.794c.178-.013.349-.02.52 0h-.02c-2.517-.164-2.609-.164-7.538-.27h-2.478s.052.014.072.027a128.69 128.69 0 0 1 9.438.243h.006Z"/><path stroke="#0500FF" stroke-linecap="round" stroke-linejoin="round" stroke-width=".74" d="M231.059 15.2c-.421-1.15-1.163-2.28-2.228-3.384-1.065-1.105-2.452-2.176-4.167-3.194-1.709-1.02-3.74-1.985-6.092-2.886-3.254-1.176-4.009-1.373-7.624-2.346a92.455 92.455 0 0 0-8.564-1.65c-2.971-.433-6.04-.749-9.162-.946-3.621-.23-9.437-.243-9.437-.243-3.155.033-6.31.19-9.399.46-3.089.27-6.119.664-9.037 1.17-2.918.506-5.724 1.13-8.36 1.88a63.965 63.965 0 0 0-3.831 1.209c-1.229.433-2.373.88-3.444 1.347-2.143.933-3.963 1.932-5.468 2.984-1.505 1.051-2.688 2.136-3.556 3.26-.867 1.117-1.413 2.267-1.636 3.417a6.384 6.384 0 0 0 .289 3.464c.42 1.15 1.157 2.28 2.221 3.384 1.065 1.105 2.452 2.176 4.161 3.195 1.708 1.018 3.746 1.991 6.105 2.891 2.36.9 4.929 1.683 7.644 2.347a92.443 92.443 0 0 0 8.563 1.65c2.971.433 6.04.749 9.162.946 3.115.197 6.283.282 9.438.243a123.24 123.24 0 0 0 9.398-.46c3.089-.27 6.119-.664 9.037-1.17a83.576 83.576 0 0 0 8.36-1.88 70.312 70.312 0 0 0 3.819-1.202 52.312 52.312 0 0 0 3.457-1.354c2.142-.934 3.963-1.933 5.468-2.984 1.505-1.045 2.688-2.136 3.555-3.26.868-1.117 1.407-2.267 1.637-3.418.23-1.15.125-2.313-.289-3.463l-.02-.007Z"/><path stroke="#0500FF" stroke-linecap="round" stroke-linejoin="round" stroke-width=".74" d="m260.572 23.941-7.012-4.508-2.038-1.197c-5.363-3.062-7.965-4.304-13.341-6.65.164.078.335.164.506.243-.75-.349-1.657-.75-2.951-1.308l2.445 1.058c-.967-.46-1.959-.887-3.622-1.571l-2.07-.808a60.468 60.468 0 0 0-13.907-3.47c2.353.893 4.384 1.866 6.093 2.885 1.708 1.018 3.102 2.09 4.166 3.194a109.862 109.862 0 0 1 19.559 6.605 105.55 105.55 0 0 1 17.522 9.93c-1.452-1.51-3.233-2.983-5.343-4.416l-.007.013Z"/><path stroke="#0500FF" stroke-linecap="round" stroke-linejoin="round" stroke-width=".74" d="M271.647 32.447c2.819 2.59 6.598 6.026 9.293 8.747l.111.112a103.64 103.64 0 0 0-15.135-12.954c-1.453-1.512-3.234-2.984-5.344-4.416 3.372 2.484 7.913 5.757 11.075 8.504"/><path stroke="#0500FF" stroke-linecap="round" stroke-linejoin="round" stroke-width=".74" d="m281.396 41.685-.355-.375c-.032-.039-.072-.072-.111-.111l.466.486Zm-8.105 181.208a127.69 127.69 0 0 1-8.57 3.359 162.019 162.019 0 0 1-9.464 2.99c-2.346 4.995-5.028 9.497-8.005 13.467-2.977 3.969-6.25 7.406-9.786 10.265 2.432-.69 4.791-1.432 7.058-2.228a92.276 92.276 0 0 0 6.395-2.504c4.811-2.201 5.567-2.668 9.773-5.277l1.104-.769c4.969-3.516 5.613-4.128 13.434-11.646a94.578 94.578 0 0 0 11.626-15.044c-3.726 2.596-8.248 5.074-13.558 7.394l-.007-.007Z"/><path stroke="#0500FF" stroke-linecap="round" stroke-linejoin="round" stroke-width=".74" d="M212.087 236.803c-.9 4.745-1.926 8.958-3.069 12.605a203.859 203.859 0 0 1-2.695 9.077c12.225-.94 26.243-4.128 31.12-5.508 3.529-2.859 6.809-6.296 9.786-10.266 2.977-3.969 5.659-8.471 8.005-13.466-14.774 4.173-30.081 6.414-43.153 7.564l.006-.006Z"/><path stroke="#0500FF" stroke-linecap="round" stroke-linejoin="round" stroke-width=".74" d="M188.782 237.95v.046-.046Zm0 0a311.258 311.258 0 0 1-23.411-.604c.67 4.725 1.433 8.918 2.281 12.54.847 3.621 1.781 6.677 2.78 9.129 5.764.368 11.62.519 17.462.453 5.843.066 12.678-.618 18.442-.986 1.354-3.923 2.695-9.076 2.695-9.076 1.143-3.648 2.169-7.861 3.069-12.606a303.421 303.421 0 0 1-23.312 1.144l-.006.006Z"/><path stroke="#0500FF" stroke-linecap="round" stroke-linejoin="round" stroke-width=".74" d="M167.65 249.886c-.848-3.622-1.61-7.815-2.281-12.54-7.729-.493-15.346-1.275-22.72-2.353-7.374-1.072-14.492-2.439-21.242-4.088 2.143 4.942 4.594 9.378 7.309 13.276 2.721 3.897 5.704 7.256 8.925 10.029 5.028 1.236 10.344 2.248 15.839 3.05a210.716 210.716 0 0 0 16.943 1.754c-1.005-2.451-1.932-5.507-2.78-9.128h.007Z"/><path stroke="#0500FF" stroke-linecap="round" stroke-linejoin="round" stroke-width=".74" d="M128.729 244.18c-2.721-3.898-5.166-8.34-7.308-13.276-6.743-1.65-13.112-3.595-18.961-5.823-5.856-2.228-10.897-4.634-15.143-7.164a91.347 91.347 0 0 0 11.213 14.768 85.877 85.877 0 0 0 13.696 11.85c3.162 1.886 6.927 3.68 11.291 5.343 4.364 1.663 9.11 3.109 14.144 4.344-3.22-2.773-6.211-6.132-8.925-10.029l-.007-.013Z"/><path stroke="#0500FF" stroke-linecap="round" stroke-linejoin="round" stroke-width=".74" d="M98.507 232.679a90.787 90.787 0 0 1-11.212-14.768c-4.24-2.53-7.683-5.192-10.318-7.926a103.113 103.113 0 0 0 12.06 15.326l.427.447c.309.316.63.638.966.953l4.022 3.957c5.403 4.982 5.961 5.389 15.254 12.27a44.231 44.231 0 0 0 2.491 1.591 85.871 85.871 0 0 1-13.696-11.85h.006Z"/><path stroke="#0500FF" stroke-linecap="round" stroke-linejoin="round" stroke-width=".74" d="m116.56 247.345-3.003-1.867-3.838-2.556a43.87 43.87 0 0 0 2.491 1.59l4.35 2.826m58.946 18.716c-2.142-1.57-4.074-4.58-5.08-7.032a210.54 210.54 0 0 1-16.943-1.755c-5.495-.802-10.812-1.82-15.839-3.049 3.22 2.773 8.116 5.737 11.77 7.308m88.051-8.552c-6.218 4.396-16.339 8.524-16.339 8.524m-14.798-3.019c-1.597 4.338-3.674 6.421-3.674 6.421"/><path stroke="#48FF91" stroke-linecap="round" stroke-linejoin="round" stroke-width=".74" d="M181.783 249.207c-.703-.986-2.228-2.057-3.391-2.386l-18.751-5.238-.638-2.707c-.276-1.177-1.327-2.688-2.333-3.359l-20.827-13.894-7.177-2.517c-1.144-.401-2.747-1.452-3.569-2.34l-1.249-1.353c-.821-.888-2.471-1.479-3.667-1.308l-.9.125c-1.197.17-2.846 1.031-3.668 1.919-.815.887-2.32 1.084-3.338.44l-7.223-4.568c-1.019-.644-2.136-2.116-2.485-3.266l-2.307-7.617-5.948-8.183 3.254-8.833c.315-.854-.066-1.932-.848-2.405l-2.15-1.295a2.677 2.677 0 0 0-2.181-.263l-5.889 2.977c.552 1.203-2.248-4.66-2.248-4.66l-.361-9.773-.099-2.747c-.04-.979.414-2.425.993-3.207l1.354-1.821c.585-.788 1.846-1.275 2.806-1.091l4.706.921c.96.19 2.123 1.051 2.576 1.919l4.942 9.437a1.642 1.642 0 0 0 2.34.645l.237-.145c.834-.513 1.518-1.735 1.511-2.714v-4.949c0-.98.697-2.163 1.558-2.636l7.137-3.891 5.199-10.252 4.108-1.052c.946-.243 2.267-1.032 2.924-1.761l1.874-2.064c.657-.723 1.938-1.012 2.845-.644l2.564 1.045 7.952-2.129c.946-.257 1.301-1.144.795-1.985l-4.134-6.77c-.512-.834-1.728-1.597-2.701-1.689l-3.654-.355.723-.926c.605-.769 1.893-1.282 2.859-1.137l9.595 1.439c.966.144 2.248-.375 2.833-1.157l3.273-4.331c.591-.782.631-2.09.085-2.905l-4.567-6.875c-.539-.814-1.065-2.28-1.164-3.253l-.558-5.534c-.099-.972-.802-2.274-1.571-2.885l-8.301-6.658c-.762-.61-1.695-.374-2.077.533l-6.329 15.123c-.296.703-1.025 1.656-1.63 2.122l-4.436 3.425c-.605.466-1.091.223-1.084-.539l.059-7.21c0-.763-.375-1.88-.841-2.478l-7.23-9.267c-.467-.598-.447-1.57.046-2.149l3.404-4.009c.493-.578 1.499-1.21 2.242-1.4l12.691-3.22c2.103-.533 4.62-2.564 5.593-4.509l1.8-3.615c.211-.42 0-.749-.466-.736l-4.463.112a.753.753 0 0 1-.782-.822l.592-7.36c.065-.809-.526-1.308-1.308-1.105-.454.119-1.006.546-1.229.953l-2.616 4.805a.707.707 0 0 1-1.078.23l-8.748-6.638a.966.966 0 0 1-.236-1.242l1.288-2.143-1.939-8.15c-.105-.453-.558-.94-1.005-1.078l-3.306-1.044a1.496 1.496 0 0 1-.986-1.762l3.365-13.63c.184-.743-.164-1.723-.769-2.183l-1.439-1.097c-.605-.46-1.584-.44-2.169.046l-6.908 5.744c-.585.486-1.643 1.117-2.353 1.4L95.41 45.71l-9.55 8.61c-.565.512-1.163 1.538-1.327 2.28l-.27 1.236c-.164.742.25 1.058.92.696l7.217-3.91c.67-.362 1.084-.053.927.697l-2.748 12.809L80.406 86.68l-1.749 12.626-11.705 21.097 1.117 33.821c.033.979.44 2.484.907 3.345l1.808 3.345-.013-6.933c0-1.67 1.005-2.11 2.234-.993l1.039 10.345 1.229 12.231 7.091 11.777c.684 1.131 2.274 2.347 3.55 2.708 1.623.454 3.575 2.051 4.343 3.549l6.849 13.355c.604 1.176 1.906 2.846 2.898 3.72l11.837 10.384c.992.868 1.623 2.649 1.4 3.95l-1.177 6.967c-.223 1.301.381 3.108 1.341 4.015l10.877 10.325 18.442 11.259 9.517 3.214 2.267 2.057c3.523.834 7.091 1.524 10.719 2.077l1.597-3.458 8.926-1.399 6.756-6.04c.9-.809 1.065-2.274.361-3.26l-1.097-1.545.013-.013Zm118.391-63.031-8.918-19.789-.362-.809c-.828-1.84-3.109-2.957-5.074-2.484l-8.182 1.972c-1.071.256-1.88-.427-1.808-1.525l.579-8.281-4.213-9.135c-.434-.947-1.623-1.906-2.642-2.13-.907-.204-1.945.329-2.307 1.183l-5.994 13.999c-1.255 2.931-4.699 6.309-7.65 7.512l-18.376 7.479c-1.117.454-2.557 1.67-3.188 2.702l-5.1 8.307-6.723 10.963c-1.545 2.523-3.043 6.992-3.326 9.943l-1.38 14.486c-.098 1.071.533 2.458 1.407 3.082l9.306 6.638c.874.624 2.412.828 3.424.447l16.759-6.309c1.131-.428 3.03-.598 4.22-.382l4.778.875c1.189.216 1.801 1.314 1.354 2.438l-1.374 3.49c-.447 1.124-.756 3.036-.69 4.239l.118 2.3c.066 1.209-.558 2.918-1.386 3.805l-7.25 7.769-3.154 4.239c30.252-14.63 54.109-40.387 66.274-71.953l-6.138 5.547c-1.058.959-2.405.677-2.99-.625l.006.007Z"/><path stroke="#48FF91" stroke-linecap="round" stroke-linejoin="round" stroke-width=".74" d="M143.637 97.944c1.255 1.775 3.154 1.676 4.226-.217l5.764-10.207c.381-.67.44-1.807.138-2.517l-1.762-4.134c-.322-.749-.151-1.88.368-2.51l.329-.394c.526-.625.782-1.788.578-2.577l-2.563-9.825c-.204-.79-.946-1.782-1.65-2.202l-1.248-.75c-.704-.42-1.841-.407-2.531.027l-6.033 3.818c-1.347.855-1.4 2.327-.118 3.273l3.937 2.912c.801.591 1.465 1.893 1.478 2.885l.059 5.16c.014.992-.755 2.056-1.708 2.359l-1.361.427c-.946.302-2.123 1.255-2.616 2.123l-.9 1.597c-.486.868-.421 2.241.158 3.056l5.448 7.703.007-.007Zm-20.587-34.49 3.036 2.057c.881.598 2.13.395 2.78-.44l6.5-8.373a1.633 1.633 0 0 0-.374-2.373l-3.063-2.09 1.275-3.483-.598-1.393a1.297 1.297 0 0 0-1.801-.65l-5.027 2.582c-.947.486-1.63 1.748-1.525 2.806l.44 4.483-2.3 4.107c-.519.927-.224 2.17.657 2.767Zm20.605-8.78 4.608 3.464c.65.486 1.781.61 2.523.276l.835-.382c.736-.335 1.794-1.097 2.34-1.695l1.446-1.57c.552-.599 1.577-1.414 2.28-1.815l13.138-7.413c.704-.401.881-1.25.381-1.893l-.703-.907c-.499-.644-1.564-1.216-2.372-1.282l-6.803-.539c-.808-.065-1.827.447-2.261 1.13l-3.726 5.903c-.434.683-1.387 1.557-2.169 1.768l-9.661 2.661c-.782.217-1.308 1.19.144 2.28v.014Zm18.241-.024c-.657.479-1.183 1.53-1.176 2.345l.026 1.966c.013.808.638 1.708 1.4 1.99l2.07.776c1.104.415 1.985 1.71 1.959 2.886l-.289 15.063c-.014.73-.414 1.788-.894 2.34l-2.688 3.122c-.48.552-.835 1.603-.796 2.34l.953 17.042c.04.729.546 1.702 1.118 2.155l5.159 4.075c.572.454 1.249.263 1.498-.427l5.409-14.965c.25-.69.921-1.624 1.499-2.077l14.183-11.232c.92-.73 1.255-2.189.743-3.247l-2.242-4.614c-.322-.657-.164-1.63.342-2.155l1.374-1.426c.506-.526.953-1.558.992-2.288l.874-16.936c.04-.809-.506-1.795-1.216-2.182l-5.777-3.155c-.709-.388-1.952-.611-2.753-.486l-10.24 1.544c-.802.118-1.998.611-2.649 1.091l-8.879 6.46v-.006Zm36.309 38.48-4.391 1.86-1.215-.427a1.468 1.468 0 0 0-1.795.775l-.519 1.17 2.839 4.266c.408.611 1.335 1.071 2.064 1.032l4.64-.277c.73-.046 1.426-.67 1.551-1.393l.756-4.528-1.807-2.005c-.493-.545-1.446-.755-2.117-.466l-.006-.007Zm20.137 9.913 3.871 3.22c.565.467.716 1.367.335 1.991l-.749 1.243.979 5.323c.217 1.19 1.282 1.716 2.36 1.17l3.752-1.899c1.078-.546 1.775-1.959 1.538-3.148l-.23-1.17c-.23-1.183-1.117-2.859-1.965-3.72l-5.389-5.455c-.513-.519-1.091-1.525-1.288-2.228l-.362-1.315c-.19-.703-.92-1.459-1.623-1.682l-1.499-.467c-.696-.217-1.229.204-1.183.933l.329 5.015c.046.73.546 1.709 1.111 2.182l.013.007Zm.027 10.324c.618-.394 1.071-1.308 1.005-2.037l-.355-3.996c-.065-.73-.663-1.571-1.327-1.873l-.204-.092c-.664-.303-1.538-.046-1.932.565l-1.847 2.866.585 5.75c.072.73.644 1.006 1.255.611l2.82-1.794Z"/><path stroke="#48FF91" stroke-linecap="round" stroke-linejoin="round" stroke-width=".74" d="m252.373 18.72-15.748-4.864-7.899-.428c-1.302-.072-1.722.723-.94 1.762l5.304 7.025c.506.67.926 1.913.939 2.754l.02 2.537c0 .717.388 1.755.848 2.3l3.97 4.732.782 1.769 4.811 3.765c1.597 1.256 1.327 1.768-.612 1.157l-3.029-.966c-.684-.217-1.229.19-1.216.907l.046 2.188 6.027 5.055c.374.315.486.92.243 1.347l-.618 1.098c-.256.453-.362 1.235-.23 1.741l.769 3.004a.927.927 0 0 1-.684 1.137l-.46.111c-.861.204-1.038.874-.394 1.486l.913.86c.645.612 1.302 1.821 1.466 2.695l.552 3.043a2.075 2.075 0 0 1-1.788 2.445l-1.524.197-3.451-2.076c-.88-.533-.782-1.138.23-1.354l2.57-.54.335-.617a1.75 1.75 0 0 0-.591-2.28l-3.47-2.202-11.016.27c-.512.012-1.038.426-1.169.92l-2.031 7.538c-.23.854.118 2.044.775 2.642.296.263.598.802.684 1.183l1.084 5.04-2.734 7.657c-.296.835-.164 2.136.302 2.892l3.55 5.757c.466.756 1.524 1.118 2.352.796l1.413-.54c.829-.315 2.018-.058 2.642.573l4.397 4.436 1.841-1.505-.211-6.954c-.026-.887-.526-2.162-1.104-2.832l-3.825-4.41-.769-9.556c-.072-.868.539-1.322 1.347-1.02l.717.27 3.575 9.234c.322.829 1.301 1.617 2.176 1.755l.808.125c.874.138 1.623.98 1.663 1.867l.026.565 2.024 2.53c.552.697.395 1.65-.355 2.123-.591.375-.959 1.242-.801 1.926l1.156 5.238c.151.683-.263 1.452-.913 1.709l-6.007 2.333c-.809.315-1.887 0-2.393-.71l-.887-1.23c-.506-.702-.953-.57-.986.297l-.289 6.907-2.852 7.69c-.421 1.13-1.479 2.747-2.347 3.582l-4.521 4.344c-.874.834-.75 2.05.276 2.694l.979.618c1.025.644 2.162 2.11 2.537 3.26l1.058 3.26c.375 1.15-.256 2.412-1.4 2.813l-5.724 1.985c-1.144.394-1.985 1.708-1.88 2.911l.953 10.739c.105 1.203 1.104 2.577 2.215 3.05l4.272 1.814c1.111.473 2.714.151 3.555-.717l4.68-4.797-.513-6.5c-.052-.697.211-1.755.585-2.347l7.125-11.166h2.057c.723.007 1.807.348 2.405.756l8.426 5.751 1.998 3.049c.394.605.795.513.894-.204l.598-4.561c.092-.716-.362-1.571-1.006-1.893l-9.464-4.725c-.624-.316-1.084-1.137-1.019-1.84l.132-1.387c.098-1.052.913-1.446 1.807-.887l7.138 4.489c.611.387 1.478 1.169 1.925 1.741l6.941 8.912 1.557-.388a1.173 1.173 0 0 0 .835-1.557l-1.853-5.225c-.244-.684-.04-1.676.453-2.208l1.288-1.387 2.038 4.068c.322.651 1.117 1.453 1.754 1.788l3.517 1.847c.644.335 1.597.203 2.122-.29l3.319-3.121c.526-.493 1.157-.342 1.394.341l2.313 6.625c.237.684.237 1.801 0 2.484l-1.564 4.47c-.342.979-.178 2.51.375 3.391l1.643 2.629a.976.976 0 0 0 1.242.348l.782-.388a.936.936 0 0 1 1.222.382l5.929 10.574 4.594 8.189.17 4.713a1.39 1.39 0 0 0 1.367 1.321c1.039 0 2.15-.809 2.465-1.801l7.913-24.804.013-2.399.033-5.369c0-.94-.453-2.32-1.019-3.076l-2.458-3.26c-.565-.749-1.275-.637-1.57.256l-1.335 4.016c-.295.894-.985.992-1.524.23l-4.009-5.665c-.546-.769-.224-1.466.716-1.558l7.427-.71c.933-.092 2.057-.847 2.49-1.682l1.216-2.346c.434-.835 1.078-.809 1.433.065l3.332 8.163.073.184.019-.697c.033-1.163.053-2.326.053-3.496 0-48.918-26.427-91.657-65.782-114.739l-.026.033ZM101.614 185.521a2.114 2.114 0 0 1 2.602-.283l6.579 4.121 6.901 6.342c.493.454.348.842-.322.848l-2.833.046c-.341 0-.821-.184-1.064-.421l-8.183-7.84-3.707-1.026a.84.84 0 0 1-.361-1.413c.131-.124.263-.256.394-.381l-.006.007Zm20.629 13.508c-.611-.276-1.538-.152-2.05.289l-.611.519c-.513.434-.46 1.078.111 1.433l3.457 2.103c.579.348 1.591.572 2.261.486l4.66-.572c.67-.078.716-.374.099-.657l-7.933-3.601h.006Z"/><path stroke="#0500FF" stroke-linecap="round" stroke-linejoin="round" stroke-width=".74" d="M185.222 266.394c73.419 0 132.937-59.518 132.937-132.938C318.159 60.037 258.641.519 185.222.519c-73.42 0-132.938 59.518-132.938 132.937 0 73.42 59.518 132.938 132.938 132.938Z"/><path fill="#48FF91" d="m355.286 164.823-3.194-.762c-1.242 5.199-15.602 10.062-52.184 8.13-33.249-1.755-76.409-8.656-121.521-19.428-45.112-10.765-86.734-24.107-117.197-37.56-33.518-14.801-44.126-25.626-42.884-30.824l-3.194-.763c-2.649 11.088 22.878 24.935 44.757 34.59 30.64 13.532 72.46 26.94 117.762 37.751 45.303 10.812 88.667 17.745 122.113 19.507 23.884 1.262 52.907.44 55.555-10.647l-.013.006Z"/><path stroke="#0500FF" stroke-miterlimit="10" stroke-width=".74" d="M15.089 83.624c-2.649 11.088 22.878 24.936 44.757 34.59 30.64 13.533 72.459 26.94 117.762 37.752 45.302 10.811 88.666 17.745 122.113 19.506 23.883 1.262 52.906.44 55.555-10.647"/><path stroke="#0500FF" stroke-miterlimit="10" stroke-width=".74" d="M352.093 164.064c-1.242 5.198-15.603 10.062-52.184 8.13-33.249-1.755-76.409-8.656-121.521-19.428C133.276 142 91.654 128.659 61.191 115.205c-33.519-14.8-44.126-25.625-42.884-30.824"/><path fill="#48FF91" d="M19.652 180.607c7.276 21.334 31.475 35.392 68.148 39.579 36.246 4.134 80.412-1.834 124.361-16.819 44.133-15.044 82.843-37.383 109.001-62.903 26.276-25.638 36.765-51.46 29.523-72.696l-3.109 1.058c6.809 19.973-3.385 44.58-28.708 69.285-25.816 25.192-64.086 47.261-107.765 62.148-43.502 14.827-87.155 20.748-122.928 16.66-35.34-4.035-58.572-17.305-65.414-37.376l-3.109 1.058v.006Z"/><path stroke="#0500FF" stroke-miterlimit="10" stroke-width=".74" d="M347.574 68.824c6.809 19.973-3.385 44.58-28.708 69.285-25.816 25.192-64.086 47.261-107.766 62.148-43.501 14.827-87.154 20.748-122.927 16.66-35.34-4.035-58.573-17.305-65.414-37.376"/><path stroke="#0500FF" stroke-miterlimit="10" stroke-width=".74" d="M19.652 180.608C26.928 201.942 51.127 216 87.8 220.186c36.246 4.134 80.412-1.833 124.361-16.818 44.133-15.044 82.843-37.383 109.001-62.904 26.276-25.638 36.765-51.46 29.523-72.695"/><path fill="#48FF8E" stroke="#0500FF" stroke-linecap="round" stroke-linejoin="round" stroke-width=".74" d="m160.584 220.767 5.83-5.468 3.976 10.417-5.83 5.468-3.976-10.417Z"/><path fill="#1B1B1C" stroke="#0500FF" stroke-linecap="round" stroke-linejoin="round" stroke-width=".74" d="M146.91 209.901c5.277.092 11.429 4.982 13.677 10.864l3.976 10.418-37.686-.658-3.976-10.417c-2.248-5.882.237-10.621 5.514-10.529l18.495.322Z"/><path fill="#48FF8E" stroke="#0500FF" stroke-linecap="round" stroke-linejoin="round" stroke-width=".74" d="m152.728 204.428-18.495-.322c-1.866-.033-3.391.539-4.469 1.557l-5.829 5.475c1.084-1.019 2.602-1.59 4.469-1.557l18.494.322c5.278.092 11.429 4.981 13.677 10.864l5.83-5.475c-2.248-5.882-8.4-10.772-13.677-10.864Z"/><path fill="#0500FF" stroke="#0500FF" stroke-linecap="round" stroke-linejoin="round" stroke-width=".74" d="m152.728 204.428-18.495-.322c-1.866-.033-3.391.539-4.469 1.557l-5.829 5.475c1.084-1.019 2.602-1.59 4.469-1.557l18.494.322 5.83-5.475Z"/><path fill="#48FF8E" stroke="#0500FF" stroke-linecap="round" stroke-linejoin="round" stroke-width=".74" d="M148.772 185.692c-2.925-7.67-10.877-13.986-17.758-14.105-2.445-.039-4.423.704-5.83 2.025l-5.83 5.474c1.407-1.321 3.385-2.063 5.83-2.024 6.881.118 14.834 6.434 17.758 14.104 1.887 4.949 1.223 9.254-1.334 11.659l5.83-5.474c2.556-2.399 3.22-6.704 1.334-11.659Z"/><path fill="#0500FF" stroke="#0500FF" stroke-linecap="round" stroke-linejoin="round" stroke-width=".74" d="m143.965 197.785 5.829-5.474c.171-1.538.007-3.267-.512-5.101l-5.83 5.475c.519 1.84.684 3.562.513 5.1Z"/><path fill="#1B1B1C" stroke="#0500FF" stroke-linecap="round" stroke-linejoin="round" stroke-width=".74" d="M125.186 177.059c6.881.119 14.833 6.435 17.758 14.105 2.925 7.669-.276 13.795-7.157 13.676-6.881-.118-14.834-6.44-17.758-14.11-2.925-7.67.276-13.795 7.157-13.671Z"/><path fill="#2D9FFF" d="M21.136 98.496a4.502 4.502 0 1 0 0-9.004 4.502 4.502 0 0 0 0 9.004Z"/><path fill="#48FF91" d="M21.143 89.492a4.486 4.486 0 0 0-3.18 1.32c-.79.79 0 2.847 1.76 4.608 1.762 1.761 3.82 2.543 4.608 1.761a4.486 4.486 0 0 0 1.32-3.18 4.505 4.505 0 0 0-4.501-4.503l-.007-.006Z"/><path stroke="#0500FF" stroke-miterlimit="10" stroke-width=".592" d="M21.136 98.496a4.502 4.502 0 1 0 0-9.004 4.502 4.502 0 0 0 0 9.004Z"/><path fill="#2D9FFF" d="M276.938 176.47a4.502 4.502 0 1 0 0-9.004 4.502 4.502 0 0 0 0 9.004Z"/><path fill="#48FF91" d="M276.945 167.466a4.486 4.486 0 0 0-3.181 1.321c-.789.789 0 2.846 1.761 4.608 1.762 1.761 3.819 2.543 4.607 1.761a4.487 4.487 0 0 0 1.322-3.181 4.505 4.505 0 0 0-4.502-4.502l-.007-.007Z"/><path stroke="#0500FF" stroke-miterlimit="10" stroke-width=".592" d="M276.938 176.47a4.502 4.502 0 1 0 0-9.004 4.502 4.502 0 0 0 0 9.004Z"/><path fill="#2D9FFF" d="M131.067 146.243a4.502 4.502 0 1 0 0-9.004 4.502 4.502 0 0 0 0 9.004Z"/><path fill="#48FF91" d="M131.075 137.239a4.486 4.486 0 0 0-3.181 1.321c-.789.788 0 2.846 1.761 4.607 1.762 1.761 3.819 2.543 4.607 1.761a4.484 4.484 0 0 0 1.321-3.181 4.504 4.504 0 0 0-4.502-4.502l-.006-.006Z"/><path stroke="#0500FF" stroke-miterlimit="10" stroke-width=".592" d="M131.067 146.243a4.502 4.502 0 1 0 0-9.004 4.502 4.502 0 0 0 0 9.004Z"/><path fill="#2D9FFF" d="M301.898 37.129a4.502 4.502 0 1 0 0-9.004 4.502 4.502 0 0 0 0 9.004Z"/><path fill="#48FF91" d="M301.906 28.125a4.486 4.486 0 0 0-3.181 1.32c-.789.79 0 2.846 1.761 4.608 1.762 1.761 3.819 2.543 4.607 1.761a4.485 4.485 0 0 0 1.321-3.18 4.504 4.504 0 0 0-4.502-4.503l-.006-.006Z"/><path stroke="#0500FF" stroke-miterlimit="10" stroke-width=".592" d="M301.898 37.129a4.502 4.502 0 1 0 0-9.004 4.502 4.502 0 0 0 0 9.004Z"/><path fill="#2D9FFF" d="M112.786 223.99a4.502 4.502 0 1 0 0-9.004 4.502 4.502 0 0 0 0 9.004Z"/><path fill="#48FF91" d="M112.794 214.986a4.484 4.484 0 0 0-3.181 1.321c-.789.789 0 2.846 1.761 4.607 1.761 1.761 3.818 2.544 4.607 1.761a4.484 4.484 0 0 0 1.321-3.181 4.505 4.505 0 0 0-4.502-4.502l-.006-.006Z"/><path stroke="#0500FF" stroke-miterlimit="10" stroke-width=".592" d="M112.786 223.99a4.502 4.502 0 1 0 0-9.004 4.502 4.502 0 0 0 0 9.004Z"/><path fill="#48FF8E" d="M355.367 105.664c6.875 2.635 8.012 9.306 2.55 14.893-5.462 5.586-15.471 7.978-22.339 5.336-6.868-2.635-8.012-9.306-2.544-14.893 5.469-5.586 15.465-7.978 22.34-5.343l-.007.007Z"/><path fill="#48FF8E" stroke="#0500FF" stroke-linecap="round" stroke-linejoin="round" stroke-width=".74" d="m361.094 111.222 2.228 7.637c.841 2.872-.171 6.27-3.175 9.339-5.468 5.587-15.471 7.979-22.339 5.337-3.095-1.19-5.028-3.194-5.718-5.554l-2.228-7.637c.69 2.36 2.623 4.364 5.718 5.554 6.875 2.636 16.878.25 22.339-5.337 3.004-3.069 4.009-6.46 3.175-9.339Zm-15.399 26.073 2.228 7.637c.65 2.215-.125 4.837-2.425 7.19l-2.228-7.637c2.306-2.353 3.075-4.975 2.425-7.19Z"/><path fill="#48FF8E" d="M341.299 133.019c5.271 2.025 6.159 7.184 1.966 11.469l-7.427 7.591-37.633-14.446 7.427-7.591c4.193-4.285 11.935-6.138 17.206-4.114l18.468 7.085-.007.006Z"/><path fill="#48FF8E" stroke="#0500FF" stroke-linecap="round" stroke-linejoin="round" stroke-width=".74" d="m343.264 144.486 2.228 7.637-7.427 7.591-2.228-7.637 7.427-7.591Z"/><path fill="#1B1B1C" stroke="#0500FF" stroke-linecap="round" stroke-linejoin="round" stroke-width=".74" d="m335.838 152.075 2.228 7.637-37.633-14.446-2.228-7.637 37.633 14.446Z"/><path fill="#2D9FFF" d="M322.838 125.936c-5.271-2.025-13.013-.171-17.206 4.114l-7.427 7.591 1.255.48 25.304-11.443-1.926-.742Zm32.536-20.272c-6.868-2.635-16.871-.25-22.34 5.343-4.212 4.305-4.502 9.254-1.268 12.501l29.017-13.118c-.868-1.992-2.689-3.674-5.416-4.719l.007-.007Z"/><path stroke="#0500FF" stroke-linecap="round" stroke-linejoin="round" stroke-width=".74" d="M355.367 105.664c6.875 2.635 8.012 9.306 2.55 14.893-5.462 5.586-15.471 7.978-22.339 5.336-6.868-2.635-8.012-9.306-2.544-14.893 5.469-5.586 15.465-7.978 22.34-5.343l-.007.007Zm-14.068 27.355c5.271 2.025 6.159 7.184 1.966 11.469l-7.427 7.591-37.633-14.446 7.427-7.591c4.193-4.285 11.935-6.138 17.206-4.114l18.468 7.085-.007.006Z"/><path fill="#48FF8E" stroke="#0500FF" stroke-linecap="round" stroke-linejoin="round" stroke-width=".74" d="M29.613 130.728c4.344-2.024 5.954-.118 3.601 4.259-2.353 4.377-7.775 9.569-12.119 11.594-4.344 2.024-5.954.118-3.602-4.266 2.353-4.377 7.775-9.562 12.113-11.587h.007Z"/><path fill="#48FF8E" d="m33.871 130.393 5.041 5.185c.723.743.565 2.346-.644 4.594-2.353 4.377-7.775 9.569-12.12 11.594-2.102.979-3.568 1.038-4.252.335l-5.04-5.186c.683.704 2.142.644 4.252-.335 4.344-2.024 9.766-7.216 12.119-11.593 1.21-2.255 1.367-3.852.644-4.594Z"/><path fill="#1B1B1C" d="M27.521 142.018c-2.097 1.945-4.377 3.608-6.428 4.561-.46.21-.88.374-1.275.499l5.041 5.186a11.13 11.13 0 0 0 1.275-.5c2.05-.953 4.331-2.616 6.428-4.561l-5.04-5.185Z"/><path stroke="#0500FF" stroke-linecap="round" stroke-linejoin="round" stroke-width=".74" d="m33.871 130.393 5.041 5.185c.723.743.565 2.346-.644 4.594-2.353 4.377-7.775 9.569-12.12 11.594-2.102.979-3.568 1.038-4.252.335l-5.04-5.186c.683.704 2.142.644 4.252-.335 4.344-2.024 9.766-7.216 12.119-11.593 1.21-2.255 1.367-3.852.644-4.594Z"/><path fill="#48FF8E" d="M25.429 146.659c3.332-1.551 4.58-.079 2.773 3.279l-3.194 5.948-23.772 11.087 3.194-5.947c1.801-3.359 6-7.375 9.333-8.926l11.666-5.441Z"/><path fill="#48FF8E" stroke="#0500FF" stroke-linecap="round" stroke-linejoin="round" stroke-width=".74" d="m33.745 151.595-5.041-5.185c.558.571.44 1.807-.493 3.536l-3.194 5.947 5.04 5.186 3.195-5.948c.926-1.728 1.045-2.957.493-3.536Z"/><path fill="#1B1B1C" stroke="#0500FF" stroke-linecap="round" stroke-linejoin="round" stroke-width=".74" d="m25.008 155.891 5.041 5.186-23.772 11.087-5.04-5.185 23.771-11.088Z"/><path fill="#2D9FFF" d="M8.019 156.386c-1.479 1.492-2.774 3.129-3.589 4.64l-3.194 5.948 14.249-6.644-7.473-3.937.007-.007Z"/><path stroke="#0500FF" stroke-linecap="round" stroke-linejoin="round" stroke-width=".74" d="M25.429 146.659c3.332-1.551 4.58-.079 2.773 3.279l-3.194 5.948-23.772 11.087 3.194-5.947c1.801-3.359 6-7.375 9.333-8.926l11.666-5.441Z"/></g><defs><radialGradient id="b" cx="0" cy="0" r="1" gradientTransform="translate(135.568 97.73) scale(193.475)" gradientUnits="userSpaceOnUse"><stop offset=".6" stop-color="#0500FF" stop-opacity="0"/><stop offset=".61" stop-color="#0500FF" stop-opacity=".05"/><stop offset=".64" stop-color="#0500FF" stop-opacity=".17"/><stop offset=".68" stop-color="#0500FF" stop-opacity=".37"/><stop offset=".73" stop-color="#0500FF" stop-opacity=".64"/><stop offset=".78" stop-color="#0500FF"/><stop offset=".8" stop-color="#0500FF" stop-opacity=".96"/><stop offset=".83" stop-color="#0500FF" stop-opacity=".84"/><stop offset=".88" stop-color="#0500FF" stop-opacity=".65"/><stop offset=".93" stop-color="#0500FF" stop-opacity=".38"/><stop offset=".99" stop-color="#0500FF" stop-opacity=".05"/><stop offset="1" stop-color="#0500FF" stop-opacity="0"/></radialGradient><clipPath id="a"><path fill="#fff" d="M.919.196h362.993v266.539H.919z"/></clipPath></defs></svg>