<svg width="339" height="337" viewBox="0 0 339 337" fill="none" xmlns="http://www.w3.org/2000/svg">
<path d="M116.896 124.749L158.448 161.524L188.051 107.937L146.498 71.1621L116.896 124.749Z" fill="#2D9FFF" stroke="#0500FF" stroke-width="1.16815"/>
<path d="M67.9379 162.741L109.452 199.478L158.453 161.527L116.901 124.752L67.9379 162.741Z" fill="#2D9FFF" stroke="#0500FF" stroke-width="1.16815"/>
<path d="M207.557 35.8686L249.109 72.6434L225.482 37.7662L183.929 1.02929L207.557 35.8686Z" fill="#1B1B1C" stroke="#0500FF" stroke-width="1.16815"/>
<path d="M3.49237 211.244L45.006 247.981L84.8125 264.034L43.2601 227.298L3.49237 211.244Z" fill="#2D9FFF" stroke="#0500FF" stroke-width="1.16815"/>
<path d="M253.99 73.172L295.504 109.909L294.301 65.6197L252.788 28.8828L253.99 73.172Z" fill="#1B1B1C" stroke="#0500FF" stroke-width="1.16815"/>
<path d="M44.4472 271.583L85.9608 308.32L131.16 301.337L89.6466 264.562L44.4472 271.583Z" fill="#2D9FFF" stroke="#0500FF" stroke-width="1.16815"/>
<path d="M174.215 112.455L215.728 149.192L266.359 171.773L232.632 136.902L174.215 112.455Z" fill="#2D9FFF" stroke="#0500FF" stroke-width="1.16815"/>
<path d="M150.756 229.269L192.27 266.006L160.067 222.02L118.515 185.283L150.756 229.269Z" fill="#1B1B1C" stroke="#0500FF" stroke-width="1.16815"/>
<path d="M272.2 131.088L313.714 167.863L335.285 126.002L293.772 89.2656L272.2 131.088Z" fill="#1B1B1C" stroke="#0500FF" stroke-width="1.16815"/>
<path d="M113.324 299.444L154.837 336.181L193.402 307.983L151.889 271.246L113.324 299.444Z" fill="#2D9FFF" stroke="#0500FF" stroke-width="1.16815"/>
<path d="M257.261 194.127L298.775 230.901L337.34 202.704L295.826 165.967L257.261 194.127Z" fill="#2D9FFF" stroke="#0500FF" stroke-width="1.16815"/>
<path d="M295.826 165.963L337.34 202.7L313.712 167.861L272.198 131.086L295.826 165.963Z" fill="#1B1B1C" stroke="#0500FF" stroke-width="1.16815"/>
<path d="M191.649 287.294L233.163 324.031L254.734 282.17L213.221 245.434L191.649 287.294Z" fill="#1B1B1C" stroke="#0500FF" stroke-width="1.16815"/>
<path d="M151.875 271.244L193.389 307.981L233.156 324.034L191.643 287.298L151.875 271.244Z" fill="#2D9FFF" stroke="#0500FF" stroke-width="1.16815"/>
<path d="M258.424 238.414L299.977 275.189L298.774 230.9L257.26 194.125L258.424 238.414Z" fill="#1B1B1C" stroke="#0500FF" stroke-width="1.16815"/>
<path d="M213.225 245.435L254.738 282.172L299.977 275.189L258.424 238.414L213.225 245.435Z" fill="#2D9FFF" stroke="#0500FF" stroke-width="1.16815"/>
<path d="M156.327 80.2441L126.724 133.831L77.7227 171.783L118.744 185.338L161.832 236.088L190.159 184.762L239.16 146.811L192.962 128.047L178.86 115.209L156.327 80.2441Z" fill="#1B1B1C" stroke="#0500FF" stroke-width="1.16815"/>
<path d="M168.926 89.5098L138.231 144.032L90.3215 181.048" stroke="#0500FF" stroke-width="1.16815"/>
<path d="M180.645 107.145L152.91 158.004L105.902 193.292" stroke="#0500FF" stroke-width="1.16815"/>
<path d="M190.899 126.056L166.633 170.707L121.073 202.702" stroke="#0500FF" stroke-width="1.16815"/>
<path d="M211.918 135.389L188.334 178.895L140.438 215.013" stroke="#0500FF" stroke-width="1.16815"/>
<path d="M40.0387 106.306L1.43492 134.542L25.1015 169.381L3.49119 211.242L43.2977 227.295L44.5004 271.584L89.6998 264.563L113.366 299.402L151.931 271.205L191.699 287.258L213.271 245.398L258.509 238.377L257.306 194.088L295.871 165.89L272.243 131.05L293.815 89.1902L254.047 73.0988L252.844 28.8096L207.606 35.8306L183.94 1.02929L145.375 29.2651L105.607 13.1737L83.9965 55.034L38.7972 62.055L39.9999 106.344L40.0387 106.306ZM118.565 185.283L67.9731 162.778L116.936 124.788L146.539 71.2012L178.779 115.187L229.372 137.73L180.409 175.681L150.806 229.268L118.565 185.283Z" fill="url(#paint0_linear_993_23861)" stroke="#0500FF" stroke-width="1.16815"/>
<mask id="mask0_993_23861" style="mask-type:alpha" maskUnits="userSpaceOnUse" x="0" y="0" width="297" height="301">
<path d="M40.0426 106.308L1.43883 134.544L25.1055 169.383L3.4951 211.244L43.3016 227.297L44.5043 271.586L89.7037 264.565L113.37 299.404L151.935 271.207L191.703 287.26L213.275 245.4L258.513 238.379L257.31 194.09L295.875 165.892L272.247 131.052L293.819 89.1921L254.051 73.1008L252.848 28.8116L207.61 35.8326L183.943 1.03124L145.379 29.267L105.611 13.1757L84.0004 55.0359L38.8011 62.0569L40.0038 106.346L40.0426 106.308ZM118.569 185.285L67.977 162.78L116.94 124.79L146.542 71.2032L178.783 115.189L229.376 137.732L180.413 175.683L150.81 229.27L118.569 185.285Z" fill="url(#paint1_linear_993_23861)" stroke="#0500FF" stroke-width="1.16815"/>
</mask>
<g mask="url(#mask0_993_23861)">
<path d="M131.97 433.332L237.293 18.8711L221.689 18.8711L63.7065 418.704L131.97 433.332Z" fill="url(#paint2_linear_993_23861)"/>
<path d="M3.24396 369.944L207.061 18.8711L201.586 18.8711L-23.5928 353.94L3.24396 369.944Z" fill="url(#paint3_linear_993_23861)"/>
</g>
<path d="M40.0387 106.306L1.43493 134.542L25.1016 169.381L3.49119 211.242L43.2977 227.295L44.5004 271.584L89.6998 264.563L113.366 299.402L151.931 271.205L191.699 287.258L213.271 245.398L258.509 238.377L257.306 194.088L295.871 165.89L272.243 131.05L293.815 89.1902L254.047 73.0988L252.844 28.8096L207.606 35.8306L183.94 1.02929L145.375 29.2651L105.607 13.1737L83.9965 55.034L38.7972 62.055L39.9999 106.344L40.0387 106.306ZM118.565 185.283L67.9731 162.778L116.936 124.788L146.539 71.2012L178.779 115.187L229.372 137.73L180.409 175.681L150.806 229.268L118.565 185.283Z" stroke="#0500FF" stroke-width="1.16815"/>
<path d="M124.228 135.76L175.98 184.5" stroke="#0500FF" stroke-width="1.16815"/>
<path d="M98.3452 155.652L164.906 203.849" stroke="#0500FF" stroke-width="1.16815"/>
<path d="M141.379 107.418L195.945 164.118" stroke="#0500FF" stroke-width="1.16815"/>
<defs>
<linearGradient id="paint0_linear_993_23861" x1="82.9056" y1="212.054" x2="308.615" y2="33.0704" gradientUnits="userSpaceOnUse">
<stop offset="0.0457846" stop-color="#2ECCFF"/>
<stop offset="1" stop-color="#0500FF"/>
</linearGradient>
<linearGradient id="paint1_linear_993_23861" x1="148.657" y1="1.03124" x2="148.657" y2="299.404" gradientUnits="userSpaceOnUse">
<stop offset="0.0457846" stop-color="#2ECCFF"/>
<stop offset="1" stop-color="#0500FF"/>
</linearGradient>
<linearGradient id="paint2_linear_993_23861" x1="179.879" y1="22.5886" x2="106.85" y2="433.332" gradientUnits="userSpaceOnUse">
<stop offset="0.0457846" stop-color="#2ECCFF"/>
<stop offset="0.642177" stop-color="#F4F4F7"/>
</linearGradient>
<linearGradient id="paint3_linear_993_23861" x1="179.879" y1="22.5886" x2="106.85" y2="433.332" gradientUnits="userSpaceOnUse">
<stop offset="0.0457846" stop-color="#2ECCFF"/>
<stop offset="0.642177" stop-color="#F4F4F7"/>
</linearGradient>
</defs>
</svg>
