<svg xmlns="http://www.w3.org/2000/svg" width="226" height="217" fill="none" viewBox="0 0 226 217"><path fill="#2D9FFF" fill-rule="evenodd" d="m147.033 15.213-.038-10.025 37.478 20.39V35.58l.028.016c0 .5-.023 1.001-.067 1.495a8.264 8.264 0 0 1-.027.231 15.03 15.03 0 0 0-.026.232c-.037.344-.082.68-.142 1.024-.013.073-.028.148-.043.223l-.054.285c-.061.303-.133.6-.207.903l-.025.099-.035.15c-.024.1-.047.199-.077.298a17.24 17.24 0 0 1-.441 1.383v.015c-.172.464-.366.912-.568 1.353-.067.142-.134.277-.202.411a19.686 19.686 0 0 1-.822 1.514c-.032.056-.063.112-.097.168-.052.082-.107.16-.161.24a7.207 7.207 0 0 0-.16.238c-.053.075-.103.152-.154.228-.05.077-.101.154-.153.228-.202.284-.411.56-.628.837a11.14 11.14 0 0 1-.261.344 17.28 17.28 0 0 1-.972 1.1l-.092.087a3.022 3.022 0 0 0-.08.077c-.254.254-.508.5-.77.74a3.9 3.9 0 0 1-.07.06l-.079.067c-.06.052-.113.097-.172.15-.352.306-.71.597-1.084.866l-.045.03a16.485 16.485 0 0 1-1.181.785l-.06.037-.06.038c-.388.231-.792.44-1.196.642a2.716 2.716 0 0 1-.209.105 14.22 14.22 0 0 1-1.33.549 2.85 2.85 0 0 0-.113.042c-.068.02-.135.045-.201.069-.055.02-.11.04-.165.058a9.95 9.95 0 0 1-.444.126l-.199.053c-.074.019-.147.04-.22.06-.073.02-.146.041-.221.06a17.5 17.5 0 0 1-1.39.269l-37.486-20.391c.471-.06.942-.157 1.398-.27.071-.018.144-.038.217-.06l.217-.059c.336-.09.673-.187 1.009-.306.037-.015.075-.028.112-.041.037-.014.075-.027.112-.042.419-.157.822-.328 1.226-.515a1.77 1.77 0 0 1 .105-.053c.035-.017.071-.033.104-.052.404-.202.808-.411 1.196-.643l.06-.037.06-.037c.388-.24.77-.486 1.143-.756l.045-.03a.615.615 0 0 0 .045-.03 20.116 20.116 0 0 0 1.17-.941l.086-.075c.314-.276.613-.568.912-.867.024-.024.049-.046.073-.068.034-.03.068-.061.099-.096.336-.352.657-.718.971-1.1.045-.055.088-.113.131-.171a5.56 5.56 0 0 1 .131-.172c.217-.276.426-.553.628-.837.052-.075.103-.151.153-.228.051-.077.101-.153.153-.228a17.741 17.741 0 0 0 .77-1.256c.165-.291.322-.598.471-.904.029-.061.059-.121.089-.18a17.984 17.984 0 0 0 .681-1.584c.008-.008.008-.015.008-.023.164-.448.306-.912.441-1.375l.112-.448c.089-.337.164-.673.231-1.01l.09-.508c.06-.344.105-.688.142-1.031l.026-.232a5.67 5.67 0 0 0 .026-.232c.044-.484.067-.976.068-1.468l.01.005Zm-.01-.005v-.027l-.008.023.008.004Z" clip-rule="evenodd"/><path fill="#0500FF" d="m146.995 5.188.156-.288a.327.327 0 0 0-.484.289l.328-.002Zm.038 10.025-.157.288a.328.328 0 0 0 .485-.289l-.328.001Zm37.44 10.365h.327c0-.12-.065-.23-.171-.287l-.156.287Zm0 10.001h-.328c0 .12.066.23.171.288l.157-.288Zm.028.016h.328c0-.12-.066-.23-.172-.288l-.156.288Zm-.067 1.495.326.03-.326-.03Zm-.027.231.326.04-.326-.04Zm-.026.232.326.035.001-.004-.327-.031Zm-.142 1.024.323.059v-.003l-.323-.056Zm-.043.223.322.064-.322-.064Zm-.054.285.322.065.001-.008-.323-.057Zm-.207.903-.319-.078.319.078Zm-.025.099.318.08.001-.002-.319-.078Zm-.035.15.319.074-.319-.075Zm-.077.298-.314-.094-.002.009.316.085Zm-.441 1.383-.308-.111a.325.325 0 0 0-.02.111h.328Zm0 .015.307.114a.317.317 0 0 0 .021-.114h-.328Zm-.568 1.353.296.14.002-.004-.298-.136Zm-.202.411-.293-.146-.001.002.294.144Zm-.471.905-.287-.158.287.158Zm-.254.44.281.17-.281-.17Zm-.097.169.285.161-.285-.161Zm-.097.168.277.176.004-.007-.281-.169Zm-.161.24-.269-.187.269.186Zm-.16.238.268.188.008-.012-.276-.176Zm-.154.228-.273-.18.273.18Zm-.153.228.267.19.002-.002-.269-.188Zm-.628.837-.258-.202-.006.009.264.194Zm-.261.344.255.206-.255-.206Zm-.972 1.1.232.23.005-.004-.237-.227Zm-.092.087-.224-.24.224.24Zm-.85.817.213.248.008-.007-.221-.241Zm-.07.06-.212-.251.212.25Zm-.079.067-.214-.25-.002.003.216.247Zm-.172.15.215.246-.215-.247Zm-1.084.866-.192-.266-.005.004.197.262Zm-.09.06.194.264.003-.002-.197-.262Zm-1.136.755.169.281.003-.002-.172-.28Zm-.12.075.168.281h.001l-.169-.281Zm-1.196.642-.146-.293-.013.007.159.286Zm-.209.105-.133-.3-.007.004.14.296Zm-1.218.508-.112-.308-.01.004.122.304Zm-.112.041-.109-.309.109.31Zm-.113.042.093.314a.267.267 0 0 0 .029-.01l-.122-.304Zm-.201.069.114.307-.114-.307Zm-.165.058-.098-.313h-.002l.1.313Zm-.444.126-.084-.317.084.317Zm-.199.053.08.318.008-.002-.088-.316Zm-.22.06.089.315-.089-.315Zm-.221.06.074.32.006-.002-.08-.318Zm-1.39.269-.157.288a.329.329 0 0 0 .203.036l-.046-.324Zm-37.486-20.391-.041-.325a.328.328 0 0 0-.115.613l.156-.288Zm1.398-.27.079.319.005-.001-.084-.317Zm.217-.06-.089-.315.089.316Zm.217-.059.083.317h.001l-.084-.317Zm1.009-.306.11.309.012-.005-.122-.304Zm.112-.041.108.309-.108-.31Zm.112-.042-.115-.306-.007.002.122.304Zm1.226-.515.138.297a.42.42 0 0 0 .021-.01l-.159-.287Zm.105-.053.14.297-.14-.297Zm.104-.052-.146-.293a.112.112 0 0 0-.013.006l.159.287Zm1.196-.643.168.282h.001l-.169-.282Zm.06-.037.176.276-.176-.276Zm.06-.037.168.28.004-.001-.172-.28Zm1.143-.756.192.267.005-.004-.197-.263Zm.045-.03-.173-.277.173.278Zm.045-.03-.195-.263-.001.002.196.262Zm1.084-.866.212.25.004-.004-.216-.246Zm.172-.15.216.247h.001l-.217-.247Zm.912-.867-.232-.232.232.232Zm.073-.068.219.244-.219-.244Zm.099-.096-.237-.227-.01.01.247.217Zm.971-1.1.253.21.003-.004-.256-.205Zm.131-.171.263.195-.263-.195Zm.131-.172.256.205.002-.003-.258-.202Zm.628-.837.267.19.001-.002-.268-.188Zm.153-.228-.274-.18.274.18Zm.153-.228.269.188.004-.006-.273-.182Zm.516-.815-.277-.175-.005.008.282.167Zm.254-.44-.286-.16-.001.001.287.158Zm0 0-.285-.162-.001.002.286.16Zm.471-.905.295.143.001-.003-.296-.14Zm.089-.18-.292-.148.292.148Zm.113-.231-.296-.14-.004.006.3.134Zm.568-1.353-.232-.232a.336.336 0 0 0-.075.116l.307.116Zm.008-.023-.308-.113a.333.333 0 0 0-.02.113h.328Zm.441-1.375.315.091.003-.012-.318-.08Zm.112-.448-.317-.085-.001.005.318.08Zm.231-1.01.322.065.001-.006-.323-.059Zm.09-.508.323.056-.323-.056Zm.142-1.031.326.035v-.004l-.326-.031Zm.026-.232.326.04-.326-.04Zm.026-.232.327.031v-.001l-.327-.03Zm.068-1.495h.327a.327.327 0 0 0-.638-.103l.311.103Zm-.008.023-.311-.104c-.05.15.015.316.155.392l.156-.288Zm-.348-10.015.038 10.025.656-.002-.039-10.026-.655.003Zm37.962 20.102L147.151 4.9l-.313.575 37.478 20.391.313-.575Zm.171 10.288v-10h-.655v10h.655Zm-.143-.272-.028-.016-.313.576.028.016.313-.576Zm.103 1.812c.046-.503.069-1.014.069-1.524h-.656c0 .49-.022.982-.066 1.465l.653.06Zm-.027.242c.009-.076.019-.157.027-.24l-.653-.063c-.007.074-.016.146-.025.224l.651.079Zm-.025.223c.006-.073.015-.146.025-.223l-.651-.08c-.009.077-.019.157-.027.24l.653.063Zm-.146 1.05c.061-.353.107-.697.145-1.046l-.652-.07c-.036.338-.08.667-.139 1.003l.646.112Zm-.044.23.044-.228-.645-.118-.042.219.643.127Zm-.053.278c.016-.092.034-.183.053-.278l-.643-.127a13.63 13.63 0 0 0-.056.292l.646.112Zm-.212.924c.074-.301.148-.605.21-.916l-.642-.129c-.059.295-.13.585-.205.889l.637.156Zm-.024.099.024-.1-.637-.155-.024.1.637.155Zm-.035.146.034-.145-.636-.159-.037.155.639.149Zm-.082.319c.033-.111.059-.221.082-.32l-.639-.148a3.922 3.922 0 0 1-.071.28l.628.188Zm-.446 1.4c.166-.462.319-.927.449-1.41l-.633-.17c-.124.46-.271.907-.433 1.357l.617.222Zm.019-.097v-.015h-.656v.015h.656Zm-.598 1.49a19.5 19.5 0 0 0 .577-1.376l-.614-.228a19.56 19.56 0 0 1-.559 1.33l.596.273Zm-.207.42c.068-.133.136-.271.205-.417l-.592-.28c-.066.138-.131.27-.199.405l.586.293Zm-.476.917c.166-.303.326-.607.478-.92l-.589-.287c-.147.301-.301.595-.464.89l.575.317Zm-.261.451c.092-.152.176-.298.261-.451l-.575-.316c-.08.145-.16.283-.248.43l.562.337Zm-.093.161c.032-.056.062-.109.093-.16l-.562-.338c-.036.06-.07.12-.101.175l.57.323Zm-.101.176c.036-.06.07-.12.101-.176l-.57-.323c-.032.057-.062.11-.093.161l.562.338Zm-.172.256a7.18 7.18 0 0 0 .167-.249l-.553-.352c-.048.076-.099.15-.153.229l.539.372Zm-.154.23c.048-.077.099-.15.154-.23l-.539-.372c-.054.078-.112.161-.168.25l.553.351Zm-.156.232c.051-.078.099-.15.148-.22l-.537-.377c-.055.08-.108.16-.158.236l.547.36Zm-.158.235c.055-.079.108-.16.158-.235l-.547-.36c-.051.076-.099.15-.148.22l.537.375Zm-.639.852c.219-.28.432-.56.637-.85l-.534-.38a21.36 21.36 0 0 1-.619.825l.516.405Zm-.264.346c.094-.117.187-.24.27-.355l-.528-.387c-.081.11-.168.226-.253.333l.511.41Zm-.99 1.12c.341-.355.676-.729.99-1.12l-.511-.41c-.299.372-.621.731-.953 1.077l.474.454Zm-.105.101.1-.095-.464-.464a2.324 2.324 0 0 1-.084.08l.448.48Zm-.072.07c.02-.021.043-.043.072-.07l-.448-.479-.088.085.464.463Zm-.781.75c.267-.244.524-.494.781-.75l-.464-.464a23.52 23.52 0 0 1-.759.73l.442.483Zm-.079.067.071-.06-.426-.498-.069.058.424.5Zm-.078.066.078-.066-.424-.5-.081.069.427.498Zm-.17.148.085-.074.087-.076-.431-.493-.085.074-.087.076.431.493Zm-1.108.886c.384-.276.751-.575 1.108-.886l-.431-.494c-.346.302-.696.587-1.06.848l.383.532Zm-.062.042a.765.765 0 0 0 .067-.046l-.393-.524-.005.004-.017.01.348.556Zm-.022.014.005-.004.017-.01-.348-.556c-.013.009-.04.025-.068.046l.394.524Zm-1.161.772c.392-.242.782-.493 1.158-.77l-.388-.528a16.25 16.25 0 0 1-1.114.74l.344.558Zm-.056.035c.022-.014.038-.025.053-.033l-.338-.562-.067.042.352.553Zm-.067.042.067-.042-.352-.553a2.586 2.586 0 0 1-.052.033l.337.562Zm-1.218.655c.406-.203.818-.417 1.217-.655l-.335-.563c-.379.226-.774.43-1.175.631l.293.587Zm-.223.11a2.72 2.72 0 0 0 .236-.117l-.319-.573a2.33 2.33 0 0 1-.183.092l.266.599Zm-1.239.517c.421-.153.841-.328 1.246-.52l-.28-.592c-.387.182-.789.35-1.19.496l.224.616Zm-.116.043c.036-.013.08-.028.125-.046l-.243-.609a2.48 2.48 0 0 1-.099.036l.217.619Zm-.099.036c.03-.012.06-.023.099-.036l-.217-.619c-.036.013-.08.028-.125.046l.243.609Zm-.209.072a2.8 2.8 0 0 1 .18-.062l-.185-.629c-.081.024-.158.053-.223.076l.228.615Zm-.181.064c.064-.02.127-.044.181-.064l-.228-.614a2.677 2.677 0 0 1-.149.052l.196.626Zm-.458.13c.149-.04.306-.082.461-.131l-.201-.624a8.535 8.535 0 0 1-.428.12l.168.634Zm-.195.052.195-.053-.168-.633-.202.054.175.632Zm-.219.06.211-.058-.159-.636c-.08.02-.158.042-.23.063l.178.63Zm-.23.062c.08-.02.158-.042.23-.063l-.178-.63c-.074.02-.142.04-.211.057l.159.636Zm-1.424.275c.485-.069.958-.168 1.418-.274l-.147-.639c-.452.104-.906.199-1.363.264l.092.65Zm-37.688-20.427 37.485 20.39.314-.575-37.486-20.391-.313.576Zm1.476-.875c-.448.11-.906.204-1.361.262l.083.65a12.81 12.81 0 0 0 1.435-.276l-.157-.636Zm.206-.057-.211.058.167.634.222-.062-.178-.63Zm.222-.062-.222.062.178.63.211-.058-.167-.634Zm.983-.298c-.324.115-.651.21-.984.298l.169.634c.341-.091.686-.19 1.035-.315l-.22-.617Zm.114-.042a2.686 2.686 0 0 0-.126.046l.244.609c.029-.012.06-.023.098-.036l-.216-.619Zm.098-.036c-.029.012-.06.023-.098.036l.216.619c.037-.013.081-.028.126-.046l-.244-.609Zm1.21-.509a17.23 17.23 0 0 1-1.203.507l.23.613c.428-.16.839-.335 1.249-.525l-.276-.595Zm.102-.05a1.968 1.968 0 0 0-.123.061l.318.573.086-.042-.281-.593Zm.086-.044a1.381 1.381 0 0 1-.086.043l.281.593c.034-.016.079-.038.123-.063l-.318-.573Zm1.187-.637c-.378.225-.773.43-1.174.63l.293.587a18.64 18.64 0 0 0 1.217-.654l-.336-.563Zm.052-.033a2.2 2.2 0 0 1-.052.033l.337.562.067-.042-.352-.553Zm.067-.042-.067.042.352.553a2.52 2.52 0 0 1 .052-.032l-.337-.563Zm1.121-.74c-.365.263-.739.506-1.124.742l.344.559c.392-.242.781-.493 1.163-.768l-.383-.532Zm.063-.041a.868.868 0 0 0-.068.045l.393.525.006-.004.016-.01-.347-.556Zm.022-.015a.027.027 0 0 0-.006.004l-.016.01.347.556c.013-.008.04-.024.068-.045l-.393-.524Zm1.068-.854c-.348.296-.701.582-1.067.853l.39.527c.382-.282.746-.579 1.101-.88l-.424-.5Zm.083-.073-.087.076.432.493c.029-.025.056-.05.085-.073l-.43-.496Zm.085-.073-.085.073.43.496.087-.076-.432-.493Zm.896-.853a18.77 18.77 0 0 1-.897.853l.434.492c.321-.283.626-.58.927-.881l-.464-.464Zm.086-.08-.086.08.464.464.06-.056-.438-.488Zm.071-.068c-.016.018-.035.035-.071.068l.438.488c.032-.029.08-.072.126-.125l-.493-.431Zm.965-1.091c-.309.375-.625.735-.955 1.08l.473.453c.343-.358.67-.73.988-1.117l-.506-.416Zm.121-.16a6.23 6.23 0 0 1-.123.163l.511.41c.05-.062.096-.125.138-.182l-.526-.39Zm.138-.18a5.953 5.953 0 0 0-.138.18l.526.391c.044-.058.083-.112.124-.162l-.512-.41Zm.617-.823c-.198.279-.404.551-.619.825l.516.404c.219-.28.432-.56.637-.85l-.534-.379Zm.146-.218c-.05.077-.098.15-.148.22l.537.376c.056-.08.109-.16.159-.236l-.548-.36Zm.159-.236c-.056.08-.109.16-.159.236l.548.36c.051-.077.099-.15.148-.22l-.537-.376Zm.502-.794c-.16.27-.329.535-.506.8l.545.364c.182-.273.357-.547.525-.83l-.564-.334Zm.249-.432a8.494 8.494 0 0 1-.244.424l.554.35a8.43 8.43 0 0 0 .264-.458l-.574-.316Zm.001-.002.572.32h.001l-.573-.32Zm.463-.888a17.17 17.17 0 0 1-.462.887l.571.322c.168-.299.329-.611.48-.922l-.589-.287Zm.091-.184a6.54 6.54 0 0 0-.093.187l.592.281.086-.172-.585-.296Zm.105-.216c-.03.067-.065.136-.105.216l.585.296c.038-.076.081-.16.119-.246l-.599-.267Zm.561-1.336c-.169.45-.353.898-.557 1.328l.592.281c.214-.451.405-.916.579-1.378l-.614-.23Zm-.013.093c0 .01-.002-.026.009-.068a.303.303 0 0 1 .079-.141l.464.463c.109-.109.103-.241.103-.254h-.655Zm.454-1.466c-.134.46-.274.916-.434 1.354l.615.225c.169-.459.313-.93.448-1.397l-.629-.182Zm.109-.437-.112.448.636.16.112-.45-.636-.158Zm.228-.994c-.066.332-.14.661-.227.989l.633.169c.092-.345.169-.689.237-1.03l-.643-.128Zm.088-.5c-.03.172-.059.343-.089.506l.645.117.09-.51-.646-.113Zm.139-1.01c-.037.338-.081.675-.139 1.01l.646.112c.061-.352.107-.704.145-1.052l-.652-.07Zm.027-.237c-.009.076-.019.157-.027.24l.652.063c.007-.074.016-.146.026-.223l-.651-.08Zm.025-.223c-.007.074-.016.146-.025.223l.651.08c.009-.076.019-.157.027-.24l-.653-.063Zm.066-1.438c-.001.483-.023.965-.066 1.44l.653.059c.045-.495.068-.996.068-1.498h-.655Zm.494-.282-.01-.005-.313.576.01.005.313-.576Zm-.494.256v.026l.655.001v-.027h-.655Zm.631.126.008-.022-.622-.207-.008.022.622.207Zm-.147-.387-.007-.004-.313.575.007.005.313-.576Z"/><path fill="#48FF91" stroke="#0500FF" stroke-linejoin="round" stroke-width=".655" d="M218.335 20.891c.269 0 .53 0 .792.03.052 0 .105.015.157.022.157.023.314.045.471.075l.217.045c.134.03.269.067.403.105.075.022.142.044.217.067.135.045.269.097.396.15.06.022.12.044.18.074.186.082.373.165.553.27l-37.486-20.4a5.269 5.269 0 0 0-.553-.26c-.06-.023-.12-.046-.179-.076-.135-.052-.262-.104-.404-.149-.075-.022-.142-.045-.217-.067a7.756 7.756 0 0 0-.404-.105l-.216-.045c-.157-.03-.314-.052-.471-.075-.045 0-.082-.014-.127-.022h-.023a6.934 6.934 0 0 0-.792-.037h-.187c-.276.007-.553.03-.83.067l-32.836 4.612 37.486 20.39 32.836-4.611c.284-.037.561-.06.83-.067h.187v.007Z"/><path fill="url(#a)" stroke="#0500FF" stroke-linejoin="round" stroke-width=".655" d="M113.759 61.426 76.281 41.035l56.031-7.87 37.485 20.39-56.038 7.87Z"/><path fill="#48FF91" stroke="#0500FF" stroke-linejoin="round" stroke-width=".655" d="m85.904 95.346-37.486-20.39 27.866-33.92 37.478 20.39-27.858 33.92Z"/><path fill="url(#b)" stroke="#0500FF" stroke-linejoin="round" stroke-width=".655" d="m85.697 208.155.209-112.8L48.42 74.962l-.21 112.801c0 3.162 1.518 5.726 3.82 6.981l37.486 20.391c-2.302-1.255-3.827-3.812-3.82-6.981Z"/><path fill="url(#c)" stroke="#0500FF" stroke-linejoin="round" stroke-width=".655" d="M217.31 20.959c4.552-.643 8.229 2.826 8.222 7.729l-.299 159.854c-.007 4.911-3.707 9.41-8.252 10.053L93.91 215.892c-4.552.643-8.222-2.826-8.215-7.737l.21-112.8 27.858-33.92 56.038-7.879c8.132-1.143 14.725-9.209 14.702-17.976l-.03-9.994 32.837-4.612v-.015Z"/><path fill="url(#d)" d="m85.432 125.521-36.74-19.975v-10.08l36.74 19.975v10.08Z"/><path fill="url(#e)" d="m85.432 178.617-36.74-19.975v-44.883l36.74 19.976v44.882Z"/><path fill="#1B1B1C" d="m154.183 44.525-45.088 6.352-7.97-3.384c9.773-1.566 34.044-4.584 45.682-6.464 12.253-1.98 15.13-12.31 14.436-18.016l6.826 2.573c-.537 12.981-9.588 17.692-13.886 18.94Z"/><path fill="#48FF91" stroke="#0500FF" stroke-linejoin="round" stroke-width=".655" d="m123.997 23.012-6.864-3.76 44.055-6.223 6.872 3.76-44.063 6.223Z"/><path fill="#48FF91" stroke="#0500FF" stroke-linejoin="round" stroke-width=".655" d="M111.157 32.085c.091-.152.189-.303.287-.455.12-.19.241-.372.361-.553l.317-.455c.113-.16.226-.311.339-.463.113-.151.233-.295.346-.447.121-.152.241-.296.362-.44.121-.144.241-.28.369-.417.128-.144.264-.288.392-.424.128-.137.256-.265.384-.394a9.91 9.91 0 0 1 .415-.395c.128-.12.256-.235.391-.356.166-.151.339-.296.513-.44.128-.106.256-.212.384-.31l.543-.41a19.925 19.925 0 0 1 1.491-.978c.053-.03.106-.053.159-.083.331-.19.67-.371 1.017-.538.128-.06.264-.129.399-.19.211-.098.43-.19.641-.28.143-.06.286-.114.437-.174.226-.084.444-.16.67-.235l.422-.137c.249-.076.497-.136.746-.197l.369-.091c.377-.083.754-.152 1.131-.205l-6.872-3.76a14.81 14.81 0 0 0-1.13.205c-.121.03-.241.06-.37.09-.248.062-.504.122-.745.198a23.67 23.67 0 0 0-.422.136 18.89 18.89 0 0 0-.671.235c-.143.054-.286.114-.437.175-.219.09-.429.182-.64.28-.076.038-.159.069-.242.106-.052.023-.105.061-.158.084a16.59 16.59 0 0 0-1.017.538c-.053.03-.105.053-.158.084a15.4 15.4 0 0 0-1.115.712c-.038.023-.068.046-.106.068-.09.06-.181.137-.264.197-.18.137-.369.266-.55.41-.128.098-.256.204-.384.31-.173.145-.346.289-.512.44-.06.053-.128.106-.189.16-.067.06-.135.128-.203.197-.143.128-.279.265-.414.394a14.44 14.44 0 0 0-.385.394c-.135.136-.263.28-.391.424a2.523 2.523 0 0 0-.196.213c-.061.068-.113.136-.174.204l-.369.44c-.12.144-.233.296-.346.447l-.347.463c-.06.083-.121.159-.181.242-.045.069-.09.144-.136.213-.12.181-.241.363-.361.553a24.3 24.3 0 0 0-.611 1.03c-.06.107-.12.206-.173.304l-.181.341c-.241.47-.482.933-.731 1.395-.067.121-.135.25-.203.371-.181.334-.362.66-.55.986-.09.152-.173.303-.264.455-.188.318-.376.629-.565.94l-.248.41c-.279.439-.566.87-.867 1.303l6.872 3.76s.007-.015.015-.023c.294-.417.572-.849.851-1.28l.249-.41c.196-.311.384-.622.565-.94.09-.152.173-.303.264-.455.188-.326.369-.66.55-.986.067-.12.135-.242.203-.371.023-.046.045-.083.068-.129.226-.417.444-.841.663-1.266.113-.22.234-.432.354-.644.106-.197.219-.387.332-.576h.007Z"/><path fill="#2D9FFF" stroke="#0500FF" stroke-linejoin="round" stroke-width=".655" d="m168.061 16.788-.015 8.74-44.063 6.232c-2.577.364-4.928 2.054-6.36 4.473-1.069 1.811-2.124 3.63-3.33 5.344l-5.151 9.058-11.478 1.835 9.313-13.326c1.296-1.858 2.396-3.829 3.436-5.853 2.833-5.541 7.941-9.475 13.592-10.279l44.063-6.231-.007.007Z"/><path fill="#48FF91" stroke="#0500FF" stroke-linejoin="round" stroke-width=".655" d="m97.672 52.47-6.871-3.76 9.313-13.326 6.864 3.76-9.306 13.327Z"/><path fill="url(#f)" stroke="#0500FF" stroke-linejoin="round" stroke-width=".655" d="M84.332 69.634C88.81 62.912 87.9 54.437 82.3 50.706c-5.6-3.73-13.771-1.305-18.25 5.418-4.478 6.722-3.568 15.197 2.032 18.928 5.6 3.73 13.771 1.305 18.25-5.418Z"/><path fill="#2D9FFF" stroke="#0500FF" stroke-linejoin="round" stroke-width=".655" d="M93 67.809v-.03c.06-.311.105-.622.15-.933.024-.16.061-.318.077-.478.053-.477.083-.955.098-1.433 0-.31 0-.621-.015-.925 0-.098-.015-.19-.023-.288-.015-.205-.03-.41-.053-.614-.015-.106-.022-.212-.038-.319a7.05 7.05 0 0 0-.09-.576c-.016-.098-.038-.205-.054-.303-.045-.212-.09-.425-.144-.63-.015-.053-.023-.113-.038-.166 0-.008 0-.015-.007-.03a11.36 11.36 0 0 0-.47-1.38c0-.016 0-.023-.016-.038 0 0 0-.008-.007-.016a10.29 10.29 0 0 0-.44-.925.687.687 0 0 0-.053-.106c-.015-.038-.038-.068-.06-.098a11.086 11.086 0 0 0-.425-.713c-.008-.015-.023-.03-.03-.053l-.008-.008c-.152-.235-.319-.455-.485-.675-.016-.022-.03-.045-.046-.06-.038-.046-.076-.084-.114-.13-.113-.143-.235-.28-.356-.416a1.09 1.09 0 0 0-.091-.106c-.03-.03-.068-.061-.099-.099a5.627 5.627 0 0 0-.371-.364c-.046-.038-.084-.083-.129-.129a12.207 12.207 0 0 0-.538-.455c-.03-.022-.061-.053-.091-.076l-.016-.015c-.189-.144-.379-.28-.576-.41l-6.285-4.185c.197.13.386.266.576.41.038.03.068.06.106.09.167.13.326.266.478.403.06.06.12.114.19.174.128.121.25.243.37.372.061.068.13.136.19.204.122.137.243.273.364.417.053.061.106.13.16.19.166.22.333.44.485.675l.038.06c.151.228.288.47.424.713l.114.205c.16.296.303.607.44.925 0 .015.015.038.023.053.181.44.34.902.47 1.38l.045.197c.053.205.106.417.144.63.023.098.038.197.053.303.03.19.069.379.091.576a15.79 15.79 0 0 1 .091.94c0 .099.015.19.023.288.015.304.023.614.015.925-.007.478-.038.956-.099 1.434-.015.159-.052.31-.075.47-.046.318-.091.629-.152.94-.083.41-.19.811-.303 1.205l-.069.235c-.083.273-.181.546-.28.82a14.104 14.104 0 0 1-.713 1.698c-.007.023-.022.038-.03.06a18.026 18.026 0 0 1-.758 1.373c-.175.28-.35.553-.539.819-.06.083-.113.174-.174.257-.243.334-.493.66-.758.979l-.16.182c-.22.257-.447.508-.682.758-.083.09-.174.174-.258.265-.235.235-.485.463-.735.69-.068.06-.13.122-.197.182-.326.28-.66.538-1.001.789l-.364.25a15.437 15.437 0 0 1-2.032 1.198 14.64 14.64 0 0 1-2.32.872c-.114.03-.228.068-.35.099-.394.098-.795.189-1.197.25-2.972.47-5.695-.152-7.848-1.593l6.278 4.186c2.154 1.433 4.876 2.062 7.848 1.592.402-.06.804-.151 1.198-.25.114-.03.235-.06.349-.099.288-.083.576-.174.864-.273a14.51 14.51 0 0 0 1.448-.599c.448-.212.88-.455 1.305-.72.03-.015.053-.03.083-.045.22-.137.432-.289.644-.433.122-.083.25-.159.364-.25.016-.007.03-.023.046-.03.303-.228.607-.463.895-.705.022-.016.037-.038.06-.053.069-.061.13-.122.197-.182.182-.16.357-.311.531-.478.068-.068.137-.137.205-.212.09-.084.174-.175.258-.266.083-.083.166-.167.25-.257.151-.16.288-.334.432-.501l.16-.182c.022-.023.037-.045.06-.068.212-.25.41-.516.607-.781l.09-.137c.061-.083.114-.166.175-.25.099-.144.205-.288.303-.432.084-.129.16-.258.235-.387.06-.098.13-.205.182-.303l.114-.182c.167-.288.318-.584.47-.887.008-.023.023-.038.03-.06v-.008c.167-.35.326-.698.478-1.062.015-.038.023-.076.038-.114.068-.167.121-.34.19-.515.075-.197.151-.402.22-.6.022-.067.037-.143.06-.22.023-.075.046-.158.068-.234.114-.387.22-.781.296-1.183H93Z"/><path fill="url(#g)" d="m182.504 100.866 27.463-33.658 7.228-5.782 2.684 133.187-37.375-33.245v-60.502Z"/><path fill="url(#h)" d="M128.593 108.019 96.996 82.267l-12.17-3.289 133.75-19.628-36.027 41.08-53.956 7.589Z"/><path fill="url(#i)" d="m128.546 169.724-29.08 33.456-10.793 6.512 128.982-17.952-35.149-29.575-53.96 7.559Z"/><path fill="url(#j)" d="m128.719 108.764-27.464-22.075-7.227-5.782-2.684 133.187 37.375-44.828v-60.502Z"/><path stroke="#0500FF" stroke-linejoin="round" stroke-width=".655" d="M0 0h54.349v61.208H0z" transform="matrix(.98965 -.1435 0 1 128.715 108.352)"/><path stroke="#0500FF" stroke-linejoin="round" stroke-width=".655" d="m182.504 100.818 18.407-21.27m-18.407 82.214 18.407 15.931m-72.196-69.077-18.407-15.93m18.407 76.874-18.407 21.269"/><path fill="url(#k)" stroke="#0500FF" stroke-linejoin="round" stroke-width=".655" d="M58.105 58.54 70.97 72.428l.715-.11a13.07 13.07 0 0 0 11.079-13.336 6.906 6.906 0 0 0-.73-2.877l-.24-.478L58.55 42.995A13.5 13.5 0 0 0 50 41.521L4.27 48.734l2.36 12.48 49.301-3.533a2.7 2.7 0 0 1 2.174.858Z"/><path fill="#1B1B1C" d="M54.47 51.637C51.411 55.616 22.77 59 7.704 59.749l-.744 1.334 49.897-3.4 14.257 15.002 3.088-1-4.207-3.56c-.548-.557.13-1.444.812-1.061l5.898 2.778c1.456-.582 2.983-1.707 3.63-2.778C70.048 65.656 58.25 55.499 54.47 51.637Z"/><path stroke="#0500FF" stroke-linejoin="round" stroke-width=".655" d="M58.105 58.54 70.97 72.428l.715-.11a13.07 13.07 0 0 0 11.079-13.336 6.906 6.906 0 0 0-.73-2.877l-.24-.478L58.55 42.995A13.5 13.5 0 0 0 50 41.521L4.27 48.734l2.36 12.48 49.301-3.533a2.7 2.7 0 0 1 2.174.858Z"/><ellipse cx="4.822" cy="55.117" fill="#1B1B1C" stroke="#0500FF" stroke-linejoin="round" stroke-width=".655" rx="3.473" ry="6.739" transform="rotate(-7.852 4.822 55.117)"/><defs><linearGradient id="a" x1="117.705" x2="147.168" y1="65.155" y2="29.742" gradientUnits="userSpaceOnUse"><stop stop-color="#48FF91"/><stop offset="1" stop-color="#2D9FFF"/></linearGradient><linearGradient id="b" x1="60.539" x2="68.864" y1="89.718" y2="215.136" gradientUnits="userSpaceOnUse"><stop offset=".046" stop-color="#48FF91"/><stop offset="1" stop-color="#2D9FFF"/></linearGradient><linearGradient id="c" x1="85.695" x2="255.64" y1="72.377" y2="254.375" gradientUnits="userSpaceOnUse"><stop offset=".06" stop-color="#48FF91"/><stop offset=".777" stop-color="#2D9FFF"/></linearGradient><linearGradient id="d" x1="67.061" x2="67.061" y1="91.122" y2="157.576" gradientUnits="userSpaceOnUse"><stop stop-color="#2D9FFF"/><stop offset="1" stop-color="#D9D9D9" stop-opacity="0"/></linearGradient><linearGradient id="e" x1="67.061" x2="67.061" y1="91.122" y2="157.576" gradientUnits="userSpaceOnUse"><stop stop-color="#2D9FFF"/><stop offset="1" stop-color="#D9D9D9" stop-opacity="0"/></linearGradient><linearGradient id="f" x1="74.191" x2="84.764" y1="49.631" y2="75.658" gradientUnits="userSpaceOnUse"><stop offset=".06" stop-color="#48FF91"/><stop offset=".777" stop-color="#2D9FFF"/></linearGradient><linearGradient id="g" x1="182.504" x2="203.481" y1="125.232" y2="124.985" gradientUnits="userSpaceOnUse"><stop offset=".06" stop-color="#2D9FFF" stop-opacity=".35"/><stop offset="1" stop-color="#2D9FFF" stop-opacity="0"/></linearGradient><linearGradient id="h" x1="152.736" x2="149.656" y1="104.725" y2="83.975" gradientUnits="userSpaceOnUse"><stop offset=".06" stop-color="#2D9FFF" stop-opacity=".35"/><stop offset="1" stop-color="#2D9FFF" stop-opacity="0"/></linearGradient><linearGradient id="i" x1="152.663" x2="155.415" y1="166.244" y2="187.041" gradientUnits="userSpaceOnUse"><stop offset=".06" stop-color="#2D9FFF" stop-opacity=".35"/><stop offset="1" stop-color="#2D9FFF" stop-opacity="0"/></linearGradient><linearGradient id="j" x1="128.719" x2="107.742" y1="133.13" y2="132.883" gradientUnits="userSpaceOnUse"><stop offset=".06" stop-color="#2D9FFF" stop-opacity=".35"/><stop offset="1" stop-color="#2D9FFF" stop-opacity="0"/></linearGradient><linearGradient id="k" x1="43.701" x2="48.017" y1="41.999" y2="67.418" gradientUnits="userSpaceOnUse"><stop offset=".06" stop-color="#48FF91"/><stop offset=".777" stop-color="#2D9FFF"/></linearGradient></defs></svg>