<svg width="195" height="196" viewBox="0 0 195 196" fill="none" xmlns="http://www.w3.org/2000/svg">
<path d="M102.312 157.447L83.1172 178.335C134.96 197.089 165.002 187.032 173.208 163.736C149.173 176.469 115.93 164.849 102.312 157.447Z" fill="#1B1B1C" stroke="#0500FF" stroke-width="0.629015" stroke-linejoin="round"/>
<path d="M18.2624 134.861L28.1812 121.542C11.2585 98.5126 -6.09099 59.4518 20.4637 42.1641C14.2897 61.2516 31.8213 89.8108 41.3589 101.704L47.4518 93.4861L80.892 147.897L18.2624 134.861Z" fill="#1B1B1C" stroke="#0500FF" stroke-width="0.629015" stroke-linejoin="round"/>
<mask id="mask0_993_22971" style="mask-type:alpha" maskUnits="userSpaceOnUse" x="28" y="24" width="87" height="94">
<path fill-rule="evenodd" clip-rule="evenodd" d="M58.935 24.6793C79.7964 27.6132 103.24 49.7085 111.302 74.0333C119.363 98.3517 108.976 115.684 88.1146 112.75C67.2469 109.816 43.8029 87.7209 35.748 63.4025C35.2966 62.0406 34.9031 60.7006 34.566 59.3849C34.9034 60.7031 35.2974 62.0456 35.7494 63.4102C43.8044 87.7286 67.2483 109.824 88.116 112.758C96.0781 113.875 102.513 112.049 106.975 108.003L102.333 112.215C97.8635 116.26 91.4258 118.096 83.4649 116.978C62.5972 114.044 39.1531 91.9486 31.0982 67.6302C26.1147 52.592 28.1833 40.2228 35.4171 33.6634L39.7489 29.7332C44.2259 25.4814 50.7796 23.5326 58.935 24.6793Z" fill="#0500FF"/>
</mask>
<g mask="url(#mask0_993_22971)">
<circle cx="81.2762" cy="58.7879" r="57.2019" fill="#E84142"/>
</g>
<path fill-rule="evenodd" clip-rule="evenodd" d="M68.1494 53.2082C65.0021 50.0738 62.3283 50.5374 59.9226 52.2077L55.8171 47.6161L54.1724 49.1558L58.1698 53.6264C57.7378 54.0304 57.3088 54.4584 56.883 54.8841L52.8595 50.3837L51.2156 51.9216L55.3193 56.5125C54.9742 56.858 54.6346 57.1965 54.294 57.5159L54.281 57.5018L52.0114 59.6229L54.6808 62.6076C54.6808 62.6076 55.8602 61.4319 55.874 61.4887C56.5405 60.8658 57.3452 61.3195 57.9151 61.8283L62.5922 67.059C62.6386 67.0164 62.7015 66.9635 62.7835 66.9158L62.6104 67.0781L69.1617 74.407C69.451 74.7906 69.8357 75.474 69.3715 75.9108C69.4209 75.9228 68.1754 77.0289 68.1754 77.0289L70.8338 80.6731L72.9743 78.6698C73.2165 78.4442 73.4598 78.2246 73.7004 78.0075L73.7006 78.0074L73.7008 78.0072C73.8566 77.8666 74.0112 77.7271 74.1637 77.5875L78.3174 82.2314L79.9608 80.6947L75.8526 76.0993C76.3176 75.6937 76.7596 75.2914 77.1852 74.8919L81.2739 79.4662L82.9184 77.9271L78.774 73.291C81.2981 70.4343 82.1752 67.4392 78.4705 62.8037C75.4877 59.0692 73.0869 58.4035 70.9438 59.2309C71.1581 57.5123 70.4543 55.5006 68.1491 53.2088L68.1494 53.2082ZM74.7262 65.2902C77.5747 68.4752 74.5668 71.1605 73.1917 72.3881L73.1916 72.3882C73.0685 72.4981 72.9585 72.5963 72.867 72.6821L67.366 66.5288C67.4781 66.424 67.6093 66.2912 67.7579 66.1408C69.0883 64.7944 71.8146 62.0352 74.7265 65.2896L74.7262 65.2902ZM65.1232 63.4662C66.2752 62.4458 68.7862 60.2215 66.1991 57.3271C63.5522 54.3663 61.2902 56.6782 60.1855 57.8072C60.0613 57.9342 59.9517 58.0461 59.8578 58.134L64.8473 63.7145C64.9248 63.642 65.0183 63.5591 65.1232 63.4662Z" fill="white"/>
<ellipse cx="71.4352" cy="64.9495" rx="26.6302" ry="44.36" transform="rotate(-41.0703 71.4352 64.9495)" fill="#E84142"/>
<mask id="mask1_993_22971" style="mask-type:alpha" maskUnits="userSpaceOnUse" x="36" y="27" width="71" height="76">
<ellipse cx="71.4352" cy="64.9495" rx="26.6302" ry="44.36" transform="rotate(-41.0703 71.4352 64.9495)" fill="white"/>
</mask>
<g mask="url(#mask1_993_22971)">
<path d="M81.1904 57.7201C78.9004 56.3845 77.8765 57.2767 78.8865 59.7278L85.2048 75.1366C86.1877 77.5565 88.0704 78.6464 89.332 77.5469L97.3407 70.5678C98.6206 69.4525 97.7984 67.4384 95.5357 66.1338L81.1904 57.7201Z" fill="white"/>
<path d="M64.0746 48.0274L56.3894 43.6325L53.1011 41.7441C50.7833 40.4307 49.7163 41.3606 50.7003 43.8363L68.899 89.3399C69.8829 91.8154 71.7616 92.8556 73.0953 91.6933L76.4869 88.7377L78.8115 86.712L79.2116 86.3633C80.3167 85.4003 80.579 82.9315 79.7513 80.8661L69.0273 53.7108C68.2347 51.7241 65.9884 49.1465 64.0746 48.0274Z" fill="white"/>
</g>
<path fill-rule="evenodd" clip-rule="evenodd" d="M107.72 72.4149C100.656 51.1016 80.1014 31.7271 61.8226 29.1615L61.825 29.1639C71.3717 30.5054 85.4278 38.2586 94.8275 50.2104L54.7748 86.019C64.0671 96.8415 76.1624 104.768 87.3979 106.349C105.677 108.922 114.785 93.7218 107.72 72.4149ZM49.9493 79.767C50.9746 81.1961 51.9927 82.5596 52.9411 83.7997C51.9002 82.4901 50.9009 81.144 49.9493 79.767ZM39.1133 49.2957C39.1345 48.2602 39.1955 47.2131 39.2995 46.1525C39.3107 46.0385 39.3221 45.9256 39.3336 45.8138C39.1954 46.9318 39.1213 48.0936 39.1133 49.2957ZM58.2355 28.8849C57.0494 28.8888 55.6136 28.9581 54.0771 29.196C55.3893 28.9723 56.7769 28.8661 58.2355 28.8849Z" fill="url(#paint0_linear_993_22971)"/>
<path d="M60.2098 98.8379L55.5586 103.058C64.3094 110.516 74.1509 115.66 83.4783 116.972C91.4456 118.09 97.8832 116.261 102.346 112.209L106.998 107.989C102.528 112.034 96.0904 113.87 88.1295 112.752C78.802 111.44 68.9606 106.289 60.2098 98.8379Z" fill="#1B1B1C"/>
<path d="M50.173 88.6859C48.399 86.5663 46.7316 84.3561 45.1708 82.0684L40.5195 86.2884C42.0804 88.5761 43.754 90.7863 45.5217 92.906L50.173 88.6859Z" fill="#1B1B1C"/>
<path fill-rule="evenodd" clip-rule="evenodd" d="M93.1334 113.069C110.608 112.745 118.713 96.3236 111.324 74.0268C103.269 49.7085 79.8253 27.6132 58.9576 24.6793C38.0962 21.7453 27.7094 39.0777 35.7706 63.396C43.6598 87.2017 66.2822 108.872 86.7982 112.536C84.2908 112.085 81.7496 111.359 79.2129 110.405L79.8384 104.395C63.7699 98.4558 47.6086 81.501 41.513 63.1002C34.4485 41.7869 43.5503 26.5871 61.8354 29.1656L61.8291 29.1592C80.108 31.7248 100.662 51.0993 107.727 72.4126C111.557 83.9638 110.633 93.7201 106.072 99.8228L109.132 105.688C105.536 110.263 100.076 112.938 93.1334 113.069Z" fill="url(#paint1_linear_993_22971)"/>
<path d="M74.8201 102.185C72.764 101.138 70.7268 99.9294 68.7272 98.5723L66.6523 103.775C68.909 105.313 71.2158 106.689 73.5351 107.885L74.8201 102.185Z" fill="white"/>
<path d="M107 107.995L102.349 112.215C97.8792 116.26 91.4415 118.096 83.4805 116.978C62.6128 114.044 39.1688 91.9486 31.1138 67.6302C26.1304 52.592 28.199 40.2228 35.4328 33.6634L40.084 29.4434C32.8502 36.0028 30.7816 48.3655 35.765 63.4102C43.82 87.7286 67.264 109.824 88.1317 112.758C96.0989 113.876 102.537 112.047 107 107.995Z" stroke="#0500FF" stroke-width="0.62176" stroke-linecap="round" stroke-linejoin="round"/>
<path d="M111.317 74.0333C103.256 49.7085 79.812 27.6132 58.9506 24.6793C38.0829 21.7453 27.7023 39.0777 35.7636 63.4025C43.8185 87.7209 67.2625 109.816 88.1302 112.75C108.992 115.684 119.378 98.3517 111.317 74.0333Z" stroke="#0500FF" stroke-width="0.62176" stroke-linecap="round" stroke-linejoin="round"/>
<mask id="mask2_993_22971" style="mask-type:alpha" maskUnits="userSpaceOnUse" x="75" y="83" width="94" height="83">
<path fill-rule="evenodd" clip-rule="evenodd" d="M158.507 102.041C142.531 83.6835 113.584 77.9159 93.847 89.1488C85.1646 94.0888 79.7093 101.495 77.6807 109.803L76.816 112.69C73.5341 123.632 76.348 136.365 85.737 147.153C101.707 165.505 130.654 171.273 150.397 160.04C158.538 155.41 163.842 148.611 166.142 140.929L167.257 137.206C168.175 134.336 168.671 131.338 168.734 128.28C168.961 119.499 165.623 110.212 158.513 102.041H158.507ZM129.782 161.508C114.145 161.796 97.6869 155.15 87.0194 142.891C79.9051 134.716 76.565 125.425 76.7921 116.642C76.7976 116.375 76.8064 116.108 76.8185 115.842C76.3605 124.859 79.6829 134.468 87.0139 142.891C97.6826 155.151 114.143 161.797 129.782 161.508Z" fill="#44E841"/>
</mask>
<g mask="url(#mask2_993_22971)">
<ellipse cx="119.407" cy="118.351" rx="59.512" ry="59.2217" fill="#2D374B"/>
</g>
<path fill-rule="evenodd" clip-rule="evenodd" d="M132.035 115.535C131.871 112.308 128.489 110.964 124.146 110.314L124.453 105.881L121.072 105.614L120.773 109.931C119.885 109.861 118.976 109.803 118.073 109.746L118.374 105.401L114.995 105.134L114.687 109.566C113.955 109.52 113.235 109.474 112.534 109.419L112.535 109.406L107.873 109.036L107.674 111.919C107.674 111.919 110.173 112.078 110.129 112.111C111.498 112.22 111.901 112.889 111.991 113.447L111.642 118.498C111.737 118.506 111.86 118.519 111.998 118.545L111.642 118.517L111.15 125.592C111.066 125.932 110.775 126.46 109.818 126.386C109.86 126.42 107.361 126.191 107.361 126.191L106.467 129.362L110.867 129.709C111.363 129.749 111.855 129.792 112.342 129.835L112.342 129.835C112.657 129.862 112.969 129.89 113.279 129.916L112.971 134.401L116.347 134.668L116.655 130.231C117.58 130.32 118.477 130.396 119.353 130.465L119.046 134.881L122.427 135.147L122.737 130.672C128.439 130.86 132.496 130.031 133.283 125.81C133.92 122.411 132.005 120.721 128.822 119.847C130.836 119.203 132.159 117.896 132.034 115.535L132.035 115.535ZM126.643 124.749C126.43 127.824 120.382 127.279 117.617 127.029L117.617 127.029C117.369 127.007 117.148 126.987 116.96 126.972L117.372 121.031C117.602 121.049 117.882 121.066 118.199 121.085L118.2 121.085C121.039 121.256 126.859 121.605 126.643 124.748L126.643 124.749ZM118.116 118.362C120.424 118.575 125.455 119.038 125.649 116.244C125.848 113.386 120.996 113.106 118.626 112.969C118.36 112.954 118.125 112.94 117.932 112.925L117.559 118.313C117.718 118.326 117.906 118.343 118.116 118.362Z" fill="white"/>
<ellipse cx="120.119" cy="119.556" rx="40.1108" ry="31.9976" transform="rotate(5.48466 120.119 119.556)" fill="#2D374B"/>
<path d="M126.286 118.341L130.6 113.54L139.662 127.313L139.431 129.767L141.019 112.88C141.034 112.465 140.795 112.061 140.378 111.796L122.669 101.517C122.252 101.305 121.702 101.254 121.253 101.386C121.193 101.404 121.135 101.424 121.08 101.447L121.012 101.473L102.232 108.059L102.16 108.078C102.067 108.102 101.973 108.135 101.883 108.175C101.523 108.338 101.269 108.604 101.165 108.921C101.149 108.969 101.136 109.018 101.127 109.068L99.8345 122.829L110.557 111.899C111.914 110.443 114.592 110.19 117.03 110.452L119.889 110.787L100.938 130.759L102.84 131.864L122.079 111.019L129.63 111.722L110.381 133.138L117.167 137.077L117.978 137.548C118.326 137.699 118.748 137.745 119.12 137.676L138.74 130.795L134.989 132.11L126.286 118.341ZM126.135 135.215L119.827 125.549L124.773 120.044L133.053 132.789L126.135 135.215Z" fill="#2D374B"/>
<path d="M119.826 125.548L126.134 135.214L133.052 132.788L124.772 120.043L119.826 125.548Z" fill="#28A0F0"/>
<path d="M139.43 129.767L139.661 127.313L130.599 113.54L126.285 118.341L134.988 132.111L138.739 130.795C139.113 130.601 139.358 130.287 139.416 129.927L139.43 129.767Z" fill="#28A0F0"/>
<path d="M96.0901 127.94L100.938 130.758L119.889 110.786L117.031 110.451C114.593 110.189 111.915 110.443 110.557 111.898L99.8349 122.829L96.231 126.471L96.09 127.94L96.0901 127.94Z" fill="white"/>
<path d="M129.629 111.722L122.078 111.019L102.839 131.864L108.546 135.179L110.38 133.138L129.629 111.722Z" fill="white"/>
<path d="M144.241 113.094C144.299 111.828 143.555 110.593 142.28 109.793L124.339 99.381C123.065 98.7217 121.41 98.5621 120.033 98.9671C119.87 99.0151 100.971 105.649 100.971 105.649C100.711 105.721 100.459 105.812 100.22 105.92C98.9587 106.489 98.128 107.48 97.9411 108.64L96.229 126.471L99.8329 122.829L101.126 109.068C101.134 109.018 101.147 108.969 101.163 108.921C101.267 108.604 101.521 108.337 101.881 108.175C101.971 108.135 121.191 101.404 121.252 101.386C121.701 101.254 122.251 101.305 122.668 101.516L140.377 111.796C140.794 112.061 141.032 112.465 141.017 112.88L139.381 129.923C139.323 130.282 139.112 130.6 138.738 130.795L134.987 132.11L133.052 132.789L126.134 135.215L119.118 137.675C118.746 137.745 118.324 137.699 117.976 137.548L110.379 133.138L108.544 135.179L115.372 139.145C115.598 139.274 115.799 139.39 115.964 139.484C116.22 139.629 116.395 139.726 116.457 139.758C116.945 140.003 117.665 140.188 118.323 140.251C118.926 140.309 119.523 140.277 120.097 140.156L140.473 133.016C141.659 132.431 142.419 131.451 142.586 130.326L144.241 113.094Z" fill="#96BEDC"/>
<path fill-rule="evenodd" clip-rule="evenodd" d="M158.69 101.882C142.677 83.3906 113.662 77.5812 93.879 88.8955C74.0899 100.21 71.0263 124.367 87.0394 142.858C94.5851 151.572 105.021 157.47 116.019 160.085L117.172 154.611C118.629 154.957 120.098 155.235 121.57 155.447C110.349 153.824 99.3701 148.302 91.7576 139.511C77.7251 123.313 80.4123 102.135 97.7516 92.2176C115.085 82.3004 140.527 87.3993 154.553 103.598C168.506 119.705 165.921 140.751 148.826 150.728L152.067 155.713C171.656 144.347 174.645 120.299 158.696 101.882H158.69ZM132.981 161.462L132.076 155.807C129.95 155.975 127.797 155.993 125.639 155.863L125.65 161.52C128.108 161.669 130.56 161.651 132.981 161.462ZM147.262 151.588C147.698 151.363 148.13 151.128 148.556 150.884C148.569 150.876 148.582 150.869 148.595 150.861C148.581 150.869 148.567 150.877 148.553 150.885C148.128 151.128 147.697 151.363 147.262 151.588Z" fill="url(#paint2_linear_993_22971)"/>
<path d="M151.988 156.259C158.098 152.768 162.631 148.053 165.512 142.657C162.99 149.626 157.919 155.764 150.421 160.049L150.42 160.049C130.764 171.288 101.898 165.523 85.972 147.131L85.7531 147.321L85.972 147.131C77.1186 136.908 74.149 124.964 76.6168 114.462C75.7499 123.998 79.0697 134.275 86.8141 143.217C102.902 161.796 132.066 167.655 151.988 156.259Z" fill="#1B1B1C" stroke="#0500FF" stroke-width="0.579136"/>
<path fill-rule="evenodd" clip-rule="evenodd" d="M89.0445 99.4883C80.0093 110.503 80.5638 126.593 91.7576 139.515C105.778 155.707 131.22 160.806 148.553 150.889C164.679 141.671 168.132 122.704 157.254 107.069L89.0445 99.4883Z" fill="url(#paint3_linear_993_22971)"/>
<path d="M167.929 136.267C161.911 156.4 136.863 166.794 111.889 159.33C86.9148 151.865 71.6787 129.431 77.6965 109.297C83.7142 89.1636 108.762 78.7693 133.737 86.2338C158.711 93.6983 173.947 116.133 167.929 136.267Z" stroke="#0500FF" stroke-width="0.579136"/>
<path d="M80.8908 147.897L18.2612 134.861L16.5195 140.191L77.8527 151.541L80.8908 147.897Z" fill="url(#paint4_linear_993_22971)" stroke="#0500FF" stroke-width="0.629015" stroke-linejoin="round"/>
<path d="M20.4614 42.1617C-6.09326 59.4494 11.2562 98.5102 28.1789 121.54L24.7201 126.184C-33.4711 41.5115 27.9027 25.8566 65.8635 28.6133L70.5964 33.8534C46.2898 32.3136 30.3385 35.7315 20.4614 42.1617Z" fill="url(#paint5_linear_993_22971)"/>
<path d="M85.1583 0.613281L65.867 28.6138C44.8082 27.0846 16.544 31.2214 5.48438 49.6642C21.9486 12.3187 65.4604 1.40296 85.1583 0.613281Z" fill="url(#paint6_linear_993_22971)"/>
<path d="M85.1546 0.613281L65.8633 28.6138L70.5962 33.8539L89.988 6.07038L85.1546 0.613281Z" fill="url(#paint7_linear_993_22971)"/>
<path d="M165.151 31.1428L89.7344 23.6445L133.105 87.3858L141.481 71.8742C158.203 85.7313 192.18 125.057 178.399 167.736C213.89 111.15 179.574 61.2103 157.979 43.3139L165.151 31.1428Z" fill="url(#paint8_linear_993_22971)" stroke="#0500FF" stroke-width="0.629015" stroke-linejoin="round"/>
<path d="M141.483 71.875L139.002 76.4707C202.108 143.091 183.395 214.611 83.1172 178.335L84.3204 184.663C160.743 215.27 178.401 167.737 178.401 167.737C192.182 125.058 158.205 85.7321 141.483 71.875Z" fill="url(#paint9_linear_993_22971)" stroke="#0500FF" stroke-width="0.415477" stroke-linejoin="round"/>
<path d="M133.106 87.3858L89.7354 23.6445L86.7344 28.4513L125.11 87.3858H133.106Z" fill="url(#paint10_linear_993_22971)" stroke="#0500FF" stroke-width="0.415477" stroke-linejoin="round"/>
<path d="M20.4614 42.1617C-6.09326 59.4494 11.2562 98.5102 28.1789 121.54L24.7201 126.184C-33.4711 41.5115 27.9027 25.8566 65.8635 28.6133L70.5964 33.8534C46.2898 32.3136 30.3385 35.7315 20.4614 42.1617Z" fill="url(#paint11_linear_993_22971)" stroke="#0500FF" stroke-width="0.415477" stroke-linejoin="round"/>
<path d="M85.1583 0.613281L65.867 28.6138C44.8082 27.0846 16.544 31.2214 5.48438 49.6642C21.9486 12.3187 65.4604 1.40296 85.1583 0.613281Z" fill="url(#paint12_linear_993_22971)" stroke="#0500FF" stroke-width="0.629015" stroke-linejoin="round"/>
<path d="M85.1546 0.613281L65.8633 28.6138L70.5962 33.8539L89.988 6.07038L85.1546 0.613281Z" fill="url(#paint13_linear_993_22971)" stroke="#0500FF" stroke-width="0.415477" stroke-linejoin="round"/>
<defs>
<linearGradient id="paint0_linear_993_22971" x1="39.1064" y1="67.7555" x2="110.108" y2="67.7555" gradientUnits="userSpaceOnUse">
<stop stop-color="white"/>
<stop offset="1" stop-color="white" stop-opacity="0"/>
</linearGradient>
<linearGradient id="paint1_linear_993_22971" x1="114.057" y1="68.7093" x2="33.0391" y2="68.7093" gradientUnits="userSpaceOnUse">
<stop stop-color="white"/>
<stop offset="1" stop-color="white" stop-opacity="0"/>
</linearGradient>
<linearGradient id="paint2_linear_993_22971" x1="76.7684" y1="122.366" x2="168.945" y2="122.366" gradientUnits="userSpaceOnUse">
<stop stop-color="white"/>
<stop offset="1" stop-color="white" stop-opacity="0"/>
</linearGradient>
<linearGradient id="paint3_linear_993_22971" x1="163.54" y1="127.719" x2="82.7656" y2="127.719" gradientUnits="userSpaceOnUse">
<stop stop-color="white"/>
<stop offset="1" stop-color="white" stop-opacity="0"/>
</linearGradient>
<linearGradient id="paint4_linear_993_22971" x1="48.7051" y1="134.861" x2="48.7051" y2="151.541" gradientUnits="userSpaceOnUse">
<stop offset="0.0598417" stop-color="#FFF9A8"/>
<stop offset="0.75" stop-color="#FFAEFE"/>
</linearGradient>
<linearGradient id="paint5_linear_993_22971" x1="45.2723" y1="30.9659" x2="3.08175" y2="148.706" gradientUnits="userSpaceOnUse">
<stop stop-color="#E7AA10"/>
<stop offset="1" stop-color="#B18002"/>
</linearGradient>
<linearGradient id="paint6_linear_993_22971" x1="-7.64525" y1="39.0391" x2="84.688" y2="75.6241" gradientUnits="userSpaceOnUse">
<stop stop-color="#F0B90B"/>
<stop offset="0.429205" stop-color="#FBDA3C"/>
<stop offset="1" stop-color="#FCEA9C"/>
</linearGradient>
<linearGradient id="paint7_linear_993_22971" x1="79.9548" y1="-2.22134" x2="51.9419" y2="80.9286" gradientUnits="userSpaceOnUse">
<stop stop-color="#E7AA10"/>
<stop offset="1" stop-color="#B18002"/>
</linearGradient>
<linearGradient id="paint8_linear_993_22971" x1="141.737" y1="23.6445" x2="141.737" y2="167.736" gradientUnits="userSpaceOnUse">
<stop offset="0.0457846" stop-color="#2ECCFF"/>
<stop offset="1" stop-color="#0500FF"/>
</linearGradient>
<linearGradient id="paint9_linear_993_22971" x1="132.366" y1="71.875" x2="132.366" y2="194.937" gradientUnits="userSpaceOnUse">
<stop offset="0.0598417" stop-color="#FFF9A8"/>
<stop offset="0.75" stop-color="#FFAEFE"/>
</linearGradient>
<linearGradient id="paint10_linear_993_22971" x1="109.92" y1="23.6445" x2="109.92" y2="87.3858" gradientUnits="userSpaceOnUse">
<stop offset="0.0598417" stop-color="#FFF9A8"/>
<stop offset="0.75" stop-color="#FFAEFE"/>
</linearGradient>
<linearGradient id="paint11_linear_993_22971" x1="35.681" y1="28.3223" x2="35.681" y2="126.184" gradientUnits="userSpaceOnUse">
<stop offset="0.0598417" stop-color="#FFF9A8"/>
<stop offset="0.75" stop-color="#FFAEFE"/>
</linearGradient>
<linearGradient id="paint12_linear_993_22971" x1="45.3214" y1="0.613281" x2="45.3214" y2="49.6642" gradientUnits="userSpaceOnUse">
<stop offset="0.0457846" stop-color="#2ECCFF"/>
<stop offset="1" stop-color="#0500FF"/>
</linearGradient>
<linearGradient id="paint13_linear_993_22971" x1="77.9257" y1="0.613281" x2="77.9257" y2="33.8539" gradientUnits="userSpaceOnUse">
<stop offset="0.0598417" stop-color="#FFF9A8"/>
<stop offset="0.75" stop-color="#FFAEFE"/>
</linearGradient>
</defs>
</svg>
