<svg xmlns="http://www.w3.org/2000/svg" width="416" height="522" fill="none" viewBox="0 0 416 522"><path fill="#1B1B1C" stroke="#1B1B1C" stroke-linecap="round" stroke-linejoin="round" stroke-width=".912" d="m78.23 380.343-.646 2.449c-.955 3.624.937 8.09 4.199 9.935l28.367 15.983-2.337-19.151-29.583-9.21v-.006ZM348.214 520.57l-22.217-20.657c-4.335-4.027-12.715-7.253-18.634-7.17l-19.192.279c-7.04.1-18.22-1.768-24.844-4.164l-66.265-23.931-8.534-33.752-40.876-6.873-32.613-13.309 2.052-16.12 13.991-2.082 120.045-18.658 7.491-1.162 7.152-1.11-27.056-6.429c-7.396-1.755-12.538-9.287-12.579-16.89l-.018-3.073a4.909 4.909 0 0 1 1.678-3.718 4.902 4.902 0 0 1 3.915-1.157l14.815 2.112c7.247 1.032 15.123-3.63 24.654-1.815l45.454 8.641c4.074.777 9.857 3.659 12.822 6.554l39.896 39c2.764 2.705 6.121 7.882 7.455 11.512l3.707 10.082c1.946 5.297 7.414 12.141 12.152 15.207l22.235 14.4c-14.578 1.572-45.566 25.912-57.63 40.976-13.913 17.377-9.056 33.307-9.056 33.307Z"/><path fill="url(#a)" stroke="#1B1B1C" stroke-linecap="round" stroke-linejoin="round" stroke-width=".912" d="m56.067 355.925 59.699-21.73c6.228-2.266 16.417-2.266 22.644 0l166.033 60.429h24.695v10.598c0 1.495-1.553 2.989-4.673 4.122l-79.722 29.019c-6.227 2.266-16.416 2.266-22.644 0L36.045 370.645c-3.114-1.132-4.674-2.627-4.674-4.121v-10.599h24.696Z"/><path stroke="#1B1B1C" stroke-linecap="round" stroke-linejoin="round" stroke-width=".912" d="M75.77 382.376c2.29.831 2.805.475 2.805-1.963 0-.806-.617-1.69-1.376-1.963l-11.624-4.234c-2.29-.831-2.806-.475-2.806 1.963 0 .806.617 1.69 1.377 1.963l11.624 4.234Zm17.539 6.382c2.29.831 2.805.475 2.805-1.963 0-.806-.617-1.69-1.376-1.963l-11.624-4.235c-2.29-.83-2.805-.474-2.805 1.964 0 .806.616 1.69 1.376 1.963l11.624 4.234Z"/><path fill="url(#b)" d="M327.023 394.63v13.492c-.688.439-1.524.854-2.55 1.228l-79.722 29.019c-2.111.765-4.673 1.269-7.384 1.518v-57.76h32.714l34.375 12.508h22.573l-.006-.005Z"/><path stroke="url(#c)" stroke-miterlimit="10" stroke-width=".912" d="M234.129 440.059v-10.592"/><path fill="#1B1B1C" stroke="#1B1B1C" stroke-linecap="round" stroke-linejoin="round" stroke-width=".912" d="M324.462 398.752c6.227-2.266 6.227-5.979 0-8.244L138.407 322.79c-6.227-2.266-16.416-2.266-22.644 0l-79.721 29.019c-6.228 2.266-6.228 5.979 0 8.244l186.054 67.718c6.228 2.266 16.417 2.266 22.644 0l79.722-29.019Z"/><path fill="url(#d)" stroke="#1B1B1C" stroke-miterlimit="10" stroke-width=".912" d="M187.073 353.891c16.085 0 31.7 1.245 46.628 3.576l90.765 33.034c.617.226 1.151.463 1.643.712.664.439 1.311.878 1.963 1.323 2.177 2.081.985 4.537-3.606 6.203l-79.722 29.02c-6.227 2.265-16.416 2.265-22.643 0L77.828 375.247c31.012-13.468 68.655-21.362 109.245-21.362v.006Z"/><path fill="url(#e)" stroke="#1B1B1C" stroke-linecap="round" stroke-linejoin="round" stroke-width=".912" d="M250.709 392.897c-6.418-.771-3.316 6.892 6.939 17.123 3.291 3.285 6.915 6.429 10.539 9.216l14.002-5.094c-.421-.433-.848-.872-1.293-1.317-10.248-10.231-23.764-19.145-30.187-19.922v-.006Z"/><path fill="url(#f)" d="m247.796 393.591-4.756 5.724c-1.75 2.111 1.897 8.498 9.845 16.428 2.247 2.248 4.661 4.418 7.117 6.464l8.178-2.977a110.207 110.207 0 0 1-10.539-9.216c-7.947-7.93-11.6-14.323-9.845-16.429v.006Z"/><path fill="#1B1B1C" d="M251.292 402.855c-3.387-4.471-4.674-7.84-3.488-9.263l-4.75 5.723c-1.139 1.37.018 4.561 3.143 8.795l5.101-5.26-.006.005Z"/><path fill="url(#g)" d="m247.456 409.759 4.756-5.724c-1.933-2.396-3.315-4.525-4.092-6.257l-4.757 5.724c.777 1.737 2.159 3.86 4.093 6.257Z"/><path stroke="#1B1B1C" stroke-linecap="round" stroke-linejoin="round" stroke-width=".912" d="m247.796 393.591-4.756 5.724c-1.75 2.111 1.897 8.498 9.845 16.428 2.247 2.248 4.661 4.418 7.117 6.464l8.178-2.977a110.207 110.207 0 0 1-10.539-9.216c-7.947-7.93-11.6-14.323-9.845-16.429v.006Z"/><path fill="#1B1B1C" stroke="#1B1B1C" stroke-linecap="round" stroke-linejoin="round" stroke-width=".912" d="M104.102 391.059c-5.278 1.382-6.678 5.889-3.113 10.017l26.777 30.994c3.422 3.956 10.492 7.034 15.723 6.839l48.822-1.845-41.984-23.919-10.249-2.313-14.109-13.919c-5.1-5.036-14.945-7.669-21.873-5.854h.006Z"/><path stroke="url(#h)" stroke-linecap="round" stroke-linejoin="round" stroke-width=".912" d="M100.301 398.722s2.046 1.815 6.968 1.388l6.987 9.418s-.54 1.862-2.841 2.668"/><path fill="#fff" d="m110.272 330.591 1.189-.522-.523-1.189-1.189.522.523 1.189Zm-42.647 28.163 1.531-.673-.673-1.532-1.53.674.672 1.531Zm39.62-12.948.724.418.418-.724-.724-.418-.418.724Zm6.028-.641.524.302.302-.524-.524-.302-.302.524Zm-.449 13.112.524.302.302-.524-.524-.302-.302.524Zm28.359-20.415.524.302.303-.524-.524-.302-.303.524Zm23.617 3.847.524.302.303-.524-.524-.302-.303.524Zm-93.355 19.808 1.051.315.315-1.051-1.05-.315-.316 1.051Zm75.926-15.491 1.051.315.315-1.051-1.051-.315-.315 1.051Zm-37.168-2.019 1.051.316.315-1.051-1.051-.316-.315 1.051Zm-1.988 18.98 1.051.316.315-1.051-1.051-.315-.315 1.05Zm-5.289-23.467 1.051.315.315-1.051-1.051-.315-.315 1.051Zm-19.844 5.167 1.05.315.316-1.05-1.05-.316-.316 1.051Z"/><path stroke="#fff" stroke-miterlimit="10" stroke-width=".912" d="M177.466 385.805c17.072 0 30.911-5.037 30.911-11.251 0-6.213-13.839-11.251-30.911-11.251-17.072 0-30.911 5.038-30.911 11.251 0 6.214 13.839 11.251 30.911 11.251Zm-30.908-11.252-17.964-53.483"/><path stroke="#1B1B1C" stroke-miterlimit="10" stroke-width=".912" d="m128.59 321.07-18-53.596"/><path stroke="#fff" stroke-miterlimit="10" stroke-width=".912" d="m208.375 374.554 7.995-23.794"/><path stroke="#1B1B1C" stroke-miterlimit="10" stroke-width=".912" d="m257.422 228.514.949-2.829m-42.004 125.074L255.76 233.46"/><path fill="url(#i)" d="m318.114 109.192-2.586-4.489c-2.241-3.897 1.987-10.937 10.433-16.743 9.477-6.518 20.674-9.015 25.01-5.575.468.374.842.8 1.115 1.281l2.586 4.49a4.546 4.546 0 0 0-1.115-1.281c-4.33-3.434-15.527-.943-25.01 5.575-8.446 5.806-12.675 12.846-10.433 16.742Z"/><path fill="#1B1B1C" stroke="#1B1B1C" stroke-linecap="round" stroke-linejoin="round" stroke-width=".912" d="M344.235 104.898c-9.478 6.512-20.675 9.009-25.004 5.575-4.33-3.433-.161-11.505 9.317-18.017 9.477-6.518 20.675-9.015 25.01-5.575 4.33 3.434.16 11.505-9.317 18.023l-.006-.006Z"/><path stroke="#1B1B1C" stroke-linecap="round" stroke-linejoin="round" stroke-width=".912" d="M344.235 104.898c-9.478 6.512-20.675 9.009-25.004 5.575-4.33-3.433-.161-11.505 9.317-18.017 9.477-6.518 20.675-9.015 25.01-5.575 4.33 3.434.16 11.505-9.317 18.023l-.006-.006Z"/><path fill="#1B1B1C" d="M344.776 85.594c3.748-.575 6.903-.201 8.777 1.281a4.46 4.46 0 0 1 1.115 1.281l-2.586-4.49a4.514 4.514 0 0 0-1.115-1.28c-1.797-1.424-4.774-1.827-8.326-1.347l2.135 4.555Z"/><path stroke="#1B1B1C" stroke-linecap="round" stroke-linejoin="round" stroke-width=".912" d="M344.235 104.898c-9.478 6.512-20.675 9.009-25.004 5.575-4.33-3.433-.161-11.505 9.317-18.017 9.477-6.518 20.675-9.015 25.01-5.575 4.33 3.434.16 11.505-9.317 18.023l-.006-.006Z"/><path fill="url(#j)" stroke="#1B1B1C" stroke-miterlimit="10" stroke-width=".912" d="M76.82 264.164c-13.285-25.093 25.74-83.766 25.74-83.766l-45.2-51.414s-39.024 58.673-25.739 83.766l45.199 51.414Z"/><path fill="#1B1B1C" d="M87.11 162.831a27.45 27.45 0 0 0-4.614.735c-18.463 4.644-28.622 27.513-22.698 51.076 2.717 10.788 8.333 19.839 15.403 26.054 5.302-27.127 27.358-60.298 27.358-60.298l-15.45-17.573v.006Z"/><path fill="#1B1B1C" d="M60.814 132.91s-12.354 18.581-20.8 39.303a4.304 4.304 0 0 0 .748 4.448l40.015 45.519c8.428-21.695 21.784-41.776 21.784-41.776l-41.753-47.488.006-.006Z"/><path fill="url(#k)" d="M94.73 218.04c17.774-45.88 78.63-103.99 78.63-103.99l-45.198-51.414s-60.856 58.11-78.63 103.99L94.73 218.04Z"/><path fill="#1B1B1C" d="M94.728 218.041c6.014-15.515 16.95-32.43 28.794-48.022-7.58-10.705-18.765-16.748-29.963-14.785-13.794 2.419-23.426 16.256-24.73 33.343l25.899 29.464Z"/><path fill="#1B1B1C" d="m173.361 114.05-45.199-51.414s-37.583 35.893-62.303 73.53l57.339 34.28c23.255-30.704 50.157-56.402 50.157-56.402l.006.006Z"/><path fill="#1B1B1C" stroke="url(#l)" stroke-linecap="round" stroke-linejoin="round" stroke-width=".912" d="M249.509 67.042s-66.377 41.978-110.455 96.352L93.856 111.98C137.933 57.606 204.31 15.628 204.31 15.628l45.198 51.414Z"/><path fill="#1B1B1C" stroke="url(#m)" stroke-linecap="round" stroke-linejoin="round" stroke-width=".912" d="M152.73 63.466C211.303 15.166 265.416.57 265.416.57l45.198 51.414S256.502 66.58 197.929 114.88L152.73 63.466Z"/><path fill="#1B1B1C" stroke="url(#n)" stroke-linecap="round" stroke-linejoin="round" stroke-width=".912" d="M295.092 21.476S267.74 4.781 210.371 34.067l45.199 51.414c57.368-29.286 84.721-12.59 84.721-12.59l-45.199-51.415Z"/><path fill="url(#o)" stroke="#1B1B1C" stroke-miterlimit="10" stroke-width=".912" d="M63.65 280.409c-10.67-12.135-7.575-32.086-7.575-32.086l-45.198-51.414s-3.09 19.951 7.574 32.086l45.198 51.414Z"/><path fill="#1B1B1C" stroke="#1B1B1C" stroke-linecap="round" stroke-linejoin="round" stroke-width=".912" d="M90.123 289.418c-13.172.783-21.387-3.226-26.475-9.015l-45.199-51.414c5.089 5.788 13.303 9.792 26.475 9.015l45.199 51.414Z"/><path fill="#1B1B1C" stroke="#1B1B1C" stroke-linecap="round" stroke-linejoin="round" stroke-width=".912" d="M46.367 299.614s27.346 16.701 84.715-12.58L85.883 235.62C28.515 264.901 1.168 248.2 1.168 248.2l45.199 51.414Z"/><path fill="#1B1B1C" d="m20.923 261.271 2.953.356c.7.083.896-.279.427-.813l-1.85-2.105c-.469-.534-1.424-1.038-2.13-1.121l-1.672-.202c-.7-.083-.895.279-.427.813l2.705 3.072h-.006Zm-1.53 2.562c.468.534 1.423 1.038 2.13 1.121l1.672.202c.7.083.895-.279.427-.813l-2.705-3.072-2.953-.356c-.7-.083-.896.279-.427.813l1.85 2.105h.006Zm33.288 33.568c.469.534 1.423 1.038 2.13 1.121l1.672.202c.7.083.895-.279.427-.813l-1.85-2.105c-.47-.534-1.424-1.038-2.13-1.121l-2.953-.356 2.704 3.072Zm-7.782-4.554c.468.534 1.423 1.038 2.129 1.121l2.953.356-2.704-3.073c-.468-.533-1.423-1.037-2.13-1.121l-1.672-.201c-.7-.083-.895.279-.427.812l1.85 2.106Z"/><path fill="url(#p)" d="M64.215 299.413c5.954-2.077 7.2-14.024 2.783-26.686s-12.823-21.242-18.777-19.166c-5.953 2.077-7.2 14.025-2.782 26.686 4.416 12.662 12.823 21.243 18.776 19.166Z"/><path fill="#1B1B1C" stroke="#1B1B1C" stroke-linecap="round" stroke-linejoin="round" stroke-width=".912" d="M76.038 320.531s54.107-14.59 112.68-62.885l-45.199-51.414c-58.573 48.301-112.68 62.885-112.68 62.885l45.2 51.414Z"/><path stroke="url(#q)" stroke-linecap="round" stroke-linejoin="round" stroke-width=".912" d="M91.56 242.149c-35.081 20.058-60.72 26.974-60.72 26.974l30.526 34.724"/><path fill="url(#r)" d="M111.453 298.462c10.213 0 18.492-13.202 18.492-29.488 0-16.285-8.279-29.487-18.492-29.487-10.213 0-18.492 13.202-18.492 29.487 0 16.286 8.279 29.488 18.492 29.488Z"/><path fill="#1B1B1C" d="M47.748 278.731c.468.533 1.394.777 2.064.545l3.31-1.144-3.553-4.039-3.31 1.144c-.67.232-.836.854-.368 1.388l1.85 2.106h.007Zm1.822-4.638 3.31-1.144c.67-.232.836-.854.367-1.388l-1.85-2.106c-.468-.533-1.394-.777-2.064-.545l-2.093.723c-.67.232-.837.854-.368 1.388l2.704 3.072h-.006Zm23.682 33.651c.468.534 1.393.777 2.064.546l3.309-1.145-2.704-3.072c-.469-.534-1.394-.777-2.064-.546l-2.094.724c-.67.231-.836.854-.368 1.388l1.85 2.105h.007Zm8.075 2.473c.469.534 1.394.777 2.064.546l2.094-.724c.67-.231.836-.854.368-1.388l-1.85-2.105c-.47-.534-1.394-.777-2.065-.546l-3.31 1.145 2.705 3.072h-.006Z"/><path fill="url(#s)" stroke="#1B1B1C" stroke-miterlimit="10" stroke-width=".912" d="M137.128 305.473s66.378-41.973 110.461-96.346l-45.198-51.414C158.307 212.086 91.93 254.059 91.93 254.059l45.198 51.414Z"/><path fill="url(#t)" d="M171.838 269.585c10.053 0 18.202-14.766 18.202-32.981 0-18.215-8.149-32.981-18.202-32.981-10.052 0-18.201 14.766-18.201 32.981 0 18.215 8.149 32.981 18.201 32.981Z"/><path fill="#1B1B1C" d="M193.369 263.423c18.095-15.325 37.72-33.942 54.225-54.296l-41.047-46.688c-14.744 18.19-33.9 36.813-51.236 51.747a3.89 3.89 0 0 0-.386 5.509l38.444 43.728Zm-82.503-6.999 3.654-2.39c.593-.385.694-1.138.225-1.672l-1.85-2.106c-.469-.533-1.335-.646-1.928-.261l-2.58 1.685c-.593.385-.694 1.139-.225 1.672l2.704 3.072Zm-2.029 6.168c.468.534 1.334.647 1.927.261l2.58-1.684c.593-.386.694-1.139.225-1.673l-2.704-3.072-3.653 2.39c-.594.386-.694 1.139-.226 1.673l1.851 2.105Zm25.513 29.014c.469.534 1.335.646 1.928.261l3.653-2.39-2.704-3.072c-.469-.534-1.335-.647-1.928-.261l-2.58 1.684c-.593.386-.694 1.139-.225 1.673l1.85 2.105h.006Zm8.282.943c.469.534 1.335.646 1.928.261l2.58-1.685c.593-.385.693-1.138.225-1.672l-1.851-2.105c-.468-.534-1.334-.647-1.927-.261l-3.653 2.39 2.704 3.072h-.006Z"/><path fill="url(#u)" stroke="#1B1B1C" stroke-miterlimit="10" stroke-width=".912" d="M291.923 154.487c-17.787 45.88-78.642 103.99-78.642 103.99l-45.199-51.414s60.856-58.11 78.642-103.99l45.199 51.414Z"/><path fill="url(#v)" d="M239.816 215.708c9.155-1.011 14.947-16.597 12.936-34.812-2.011-18.216-11.063-32.163-20.218-31.153-9.155 1.011-14.947 16.597-12.936 34.813 2.011 18.216 11.063 32.163 20.218 31.152Z"/><path fill="#1B1B1C" d="m185.016 207.318 3.102-3.001c.51-.492.546-1.328.077-1.862l-1.85-2.106a1.215 1.215 0 0 0-1.773-.071l-2.177 2.106a1.365 1.365 0 0 0-.077 1.862l2.704 3.072h-.006Zm-1.326 6.969a1.215 1.215 0 0 0 1.773.071l2.177-2.105c.51-.492.545-1.329.077-1.862l-2.705-3.073-3.101 3.001a1.366 1.366 0 0 0-.077 1.863l1.85 2.105h.006Zm25.508 29.014a1.215 1.215 0 0 0 1.773.071l3.102-3.001-2.705-3.072a1.214 1.214 0 0 0-1.773-.071l-2.177 2.105a1.366 1.366 0 0 0-.077 1.862l1.851 2.106h.006Zm7.579.148a1.215 1.215 0 0 0 1.773.071l2.177-2.105c.51-.493.545-1.329.077-1.863l-1.851-2.105a1.214 1.214 0 0 0-1.773-.071l-3.102 3.001 2.705 3.072h-.006Zm50.996-47.203c10.006-13.79 18.931-28.302 24.151-41.759l-41.445-47.138c-4.869 12.567-12.976 26.054-22.175 39.007a4.282 4.282 0 0 0 .273 5.308l39.196 44.587v-.005Z"/><path fill="url(#w)" stroke="#1B1B1C" stroke-miterlimit="10" stroke-width=".912" d="M309.843 108.357c13.279 25.099-25.758 83.772-25.758 83.772l-45.198-51.414s39.036-58.673 25.757-83.772l45.199 51.414Z"/><path fill="url(#x)" d="M299.304 148.236c4.723-2.331 2.325-16.835-5.356-32.397-7.681-15.561-17.736-26.286-22.459-23.955-4.723 2.331-2.325 16.836 5.356 32.397 7.68 15.562 17.736 26.287 22.459 23.955Z"/><path fill="#1B1B1C" d="M311.702 130.491c1.488-8.439 1.263-16.221-1.863-22.14L270.477 63.58c2.425 6.91 1.755 13.392 1.547 17.686-.124 2.645-.136 3.943 1.614 5.936l38.064 43.295v-.006Zm-58.747 8.564 1.874-3.304c.35-.617.255-1.554-.213-2.087l-1.851-2.106c-.468-.534-1.133-.462-1.482.154l-1.24 2.183c-.35.617-.255 1.554.214 2.088l2.704 3.072h-.006Z"/><path fill="#1B1B1C" d="M253.147 146.546c.468.534 1.133.462 1.483-.154l1.239-2.183c.35-.617.255-1.554-.213-2.088l-2.705-3.072-1.791 3.155c-.397.694-.285 1.756.243 2.355l1.744 1.981v.006Zm31.565 28.633c.469.534 1.133.463 1.483-.154l1.239-2.183c.35-.616.255-1.553-.213-2.087l-1.744-1.981c-.528-.599-1.281-.522-1.678.172l-1.791 3.155 2.704 3.072v.006Z"/><path fill="#1B1B1C" d="M278.547 175.434c.528.599 1.281.522 1.678-.172l1.792-3.155-2.592-2.948c-.528-.599-1.281-.522-1.679.172l-1.156 2.034c-.35.617-.255 1.554.213 2.088l1.744 1.981Z"/><path fill="#1B1B1C" stroke="#1B1B1C" stroke-linecap="round" stroke-linejoin="round" stroke-width=".912" d="M323.018 92.1c-5.089-5.788-13.309-9.797-26.487-9.014l-45.199-51.414c13.178-.783 21.398 3.226 26.487 9.015a586747.88 586747.88 0 0 1 45.199 51.414Z"/><path fill="#1B1B1C" d="M276.421 60.211 251.34 31.678c13.178-.783 21.398 3.226 26.487 9.015"/><path stroke="url(#y)" stroke-linecap="round" stroke-linejoin="round" stroke-width=".912" d="M276.421 60.211 251.34 31.678c13.178-.783 21.398 3.226 26.487 9.015"/><path fill="url(#z)" stroke="#1B1B1C" stroke-miterlimit="10" stroke-width=".912" d="M323.015 92.1c10.664 12.129 7.58 32.075 7.58 32.075L285.396 72.76s3.084-19.939-7.579-32.073L323.015 92.1Z"/><path fill="#1B1B1C" d="M297.325 80.24c.468.534.83.385.801-.32l-.024-.688c-.024-.576-.35-1.4-.73-1.827l-2.864-3.256.071 1.975c.024.575.35 1.4.729 1.827l2.011 2.289h.006Zm-2.817-6.091-.071-1.975c-.024-.575-.35-1.4-.73-1.827l-2.01-2.289c-.469-.534-.83-.386-.801.32l.024.688c.024.575.35 1.4.729 1.827l2.865 3.256h-.006Zm26.804 33.372c.379.433.67.314.652-.261l-.071-1.975-2.865-3.256c-.379-.433-.67-.314-.652.261l.023.688c.024.706.428 1.72.896 2.254l2.011 2.289h.006Zm3.44 1.02c.379.433.67.314.652-.261l-.024-.688c-.023-.706-.427-1.72-.895-2.254l-1.851-2.105c-.468-.534-.83-.385-.8.32l.065 1.732 2.865 3.256h-.012Z"/><path stroke="url(#A)" stroke-linecap="round" stroke-linejoin="round" stroke-width=".912" d="M259.48 357.254c0 6.31 2.895 9.347 2.895 9.347"/><path stroke="url(#B)" stroke-linecap="round" stroke-linejoin="round" stroke-width=".912" d="M292.89 371.103c-.391 2.882.083 4.952.397 5.93"/><path stroke="url(#C)" stroke-linecap="round" stroke-linejoin="round" stroke-width=".912" d="M234.136 455.201s-3.57-7.485-4.312-14.673"/><path fill="#1B1B1C" d="m226.442 447.639-17.466-.658-9.97-2.882.896-19.661c-.712-5.035-5.403-9.774-10.427-10.533l-3.932-.593c-3.469-.522-3.641-.415-4.643 2.953l-5.753 19.388c-1.127 3.808-.653 9.857 1.061 13.439l4.733 9.905c2.111 4.412 7.746 8.854 12.526 9.875l35.502 7.585"/><path stroke="#1B1B1C" stroke-linecap="round" stroke-linejoin="round" stroke-width=".912" d="m226.442 447.639-17.466-.658-9.97-2.882.896-19.661c-.712-5.035-5.403-9.774-10.427-10.533l-3.932-.593c-3.469-.522-3.641-.415-4.643 2.953l-5.753 19.388c-1.127 3.808-.653 9.857 1.061 13.439l4.733 9.905c2.111 4.412 7.746 8.854 12.526 9.875l35.502 7.585"/><path fill="#1B1B1C" stroke="#1B1B1C" stroke-linecap="round" stroke-linejoin="round" stroke-width=".912" d="M142.459 436.02c-1.613-2.301-3.179-6.476-3.481-9.27l-2.147-19.992c-.421-3.909 2.402-6.53 6.269-5.824l4.922.895c5.273.961 10.515 6.032 11.648 11.275l2.076 9.608 10.32 9.097 25.982 2.871 31.772 18.166-60.506 4.798c-7.556.599-13.09-1.987-17.17-7.805l-9.685-13.819Z"/><path stroke="url(#D)" stroke-linecap="round" stroke-linejoin="round" stroke-width=".912" d="m144.582 439.045-2.124-3.03c-1.613-2.302-3.173-6.465-3.475-9.252l-2.147-19.999"/><path stroke="url(#E)" stroke-linecap="round" stroke-linejoin="round" stroke-width=".912" d="m140.078 418.507 7.141 1.696c2.532.605 2.728.486 3.481-2.005l2.325-7.692s-2.55-3.784-7.734-4.78l-4.59-.73"/><path stroke="url(#F)" stroke-linecap="round" stroke-linejoin="round" stroke-width=".912" d="m161.059 419.515 1.061 4.91c1.192 5.528-.795 8.695-.795 8.695"/><path stroke="url(#G)" stroke-linecap="round" stroke-linejoin="round" stroke-width=".912" d="M167.684 429.467s2.829 2.609 2.947 5.219"/><path stroke="url(#H)" stroke-linecap="round" stroke-linejoin="round" stroke-width=".912" d="m178.984 422.724-3.837 12.929c-1.127 3.808-.653 9.857 1.061 13.439l4.733 9.905c.261.551.581 1.103.949 1.649"/><path stroke="url(#I)" stroke-linecap="round" stroke-linejoin="round" stroke-width=".912" d="m226.447 447.639-17.467-.658-9.074-2.366"/><path stroke="url(#J)" stroke-linecap="round" stroke-linejoin="round" stroke-width=".912" d="m199.9 430.286-.51 9.596c-.124 3.872-2.111 6.743-4.656 7.834"/><path stroke="url(#K)" stroke-linecap="round" stroke-linejoin="round" stroke-width=".912" d="m208.539 450.451.439 3.499"/><path stroke="url(#L)" stroke-linecap="round" stroke-linejoin="round" stroke-width=".912" d="m180.281 428.975 5.468 1.062c1.572.308 3.399-.635 4.057-2.094l3.861-8.528s-1.886-2.568-6.506-3.167l-4.009-.522"/><defs><linearGradient id="a" x1="180.255" x2="180.255" y1="332.496" y2="440.062" gradientUnits="userSpaceOnUse"><stop offset=".06" stop-color="#FFF9A8"/><stop offset=".777" stop-color="#FFAEFE"/></linearGradient><linearGradient id="b" x1="282.198" x2="282.198" y1="382.127" y2="439.887" gradientUnits="userSpaceOnUse"><stop offset=".046" stop-color="#2ECCFF"/><stop offset=".277" stop-color="#2D9FFF"/><stop offset="1" stop-color="#0029FF"/></linearGradient><linearGradient id="c" x1="234.629" x2="234.629" y1="429.467" y2="440.059" gradientUnits="userSpaceOnUse"><stop offset=".046" stop-color="#2ECCFF"/><stop offset=".277" stop-color="#2D9FFF"/><stop offset="1" stop-color="#0029FF"/></linearGradient><linearGradient id="d" x1="203.477" x2="203.477" y1="353.885" y2="429.458" gradientUnits="userSpaceOnUse"><stop offset=".046" stop-color="#2ECCFF"/><stop offset=".277" stop-color="#2D9FFF"/><stop offset="1" stop-color="#0029FF"/></linearGradient><linearGradient id="e" x1="264.778" x2="264.778" y1="392.844" y2="419.236" gradientUnits="userSpaceOnUse"><stop offset=".06" stop-color="#FFF9A8"/><stop offset=".777" stop-color="#FFAEFE"/></linearGradient><linearGradient id="f" x1="255.395" x2="255.395" y1="393.585" y2="422.207" gradientUnits="userSpaceOnUse"><stop offset=".046" stop-color="#2ECCFF"/><stop offset=".277" stop-color="#2D9FFF"/><stop offset="1" stop-color="#0029FF"/></linearGradient><linearGradient id="g" x1="247.788" x2="247.788" y1="397.778" y2="409.759" gradientUnits="userSpaceOnUse"><stop offset=".06" stop-color="#FFF465"/><stop offset=".777" stop-color="#48FF91"/></linearGradient><linearGradient id="h" x1="107.278" x2="107.278" y1="398.722" y2="412.196" gradientUnits="userSpaceOnUse"><stop offset=".046" stop-color="#2ECCFF"/><stop offset=".277" stop-color="#2D9FFF"/><stop offset="1" stop-color="#0029FF"/></linearGradient><linearGradient id="i" x1="334.803" x2="334.803" y1="80.84" y2="109.192" gradientUnits="userSpaceOnUse"><stop offset=".046" stop-color="#2ECCFF"/><stop offset=".277" stop-color="#2D9FFF"/><stop offset="1" stop-color="#0029FF"/></linearGradient><linearGradient id="j" x1="65.711" x2="65.711" y1="128.984" y2="264.164" gradientUnits="userSpaceOnUse"><stop offset=".046" stop-color="#2ECCFF"/><stop offset=".277" stop-color="#2D9FFF"/><stop offset="1" stop-color="#0029FF"/></linearGradient><linearGradient id="k" x1="111.446" x2="111.446" y1="62.636" y2="218.04" gradientUnits="userSpaceOnUse"><stop offset=".046" stop-color="#2ECCFF"/><stop offset=".277" stop-color="#2D9FFF"/><stop offset="1" stop-color="#0029FF"/></linearGradient><linearGradient id="l" x1="171.682" x2="171.682" y1="15.628" y2="163.394" gradientUnits="userSpaceOnUse"><stop offset=".046" stop-color="#2ECCFF"/><stop offset=".277" stop-color="#2D9FFF"/><stop offset="1" stop-color="#0029FF"/></linearGradient><linearGradient id="m" x1="231.672" x2="231.672" y1=".57" y2="114.88" gradientUnits="userSpaceOnUse"><stop offset=".046" stop-color="#2ECCFF"/><stop offset=".277" stop-color="#2D9FFF"/><stop offset="1" stop-color="#0029FF"/></linearGradient><linearGradient id="n" x1="275.331" x2="275.331" y1="16.738" y2="85.481" gradientUnits="userSpaceOnUse"><stop offset=".046" stop-color="#2ECCFF"/><stop offset=".277" stop-color="#2D9FFF"/><stop offset="1" stop-color="#0029FF"/></linearGradient><linearGradient id="o" x1="37.055" x2="37.055" y1="196.909" y2="280.409" gradientUnits="userSpaceOnUse"><stop offset=".046" stop-color="#2ECCFF"/><stop offset=".277" stop-color="#2D9FFF"/><stop offset="1" stop-color="#0029FF"/></linearGradient><linearGradient id="p" x1="48.221" x2="64.215" y1="253.561" y2="299.413" gradientUnits="userSpaceOnUse"><stop offset=".06" stop-color="#FFF465"/><stop offset=".777" stop-color="#48FF91"/></linearGradient><linearGradient id="q" x1="61.2" x2="61.2" y1="242.149" y2="303.847" gradientUnits="userSpaceOnUse"><stop offset=".046" stop-color="#2ECCFF"/><stop offset=".277" stop-color="#2D9FFF"/><stop offset="1" stop-color="#0029FF"/></linearGradient><linearGradient id="r" x1="111.453" x2="111.453" y1="239.487" y2="298.462" gradientUnits="userSpaceOnUse"><stop offset=".06" stop-color="#FFF465"/><stop offset=".777" stop-color="#48FF91"/></linearGradient><linearGradient id="s" x1="169.759" x2="169.759" y1="157.713" y2="305.473" gradientUnits="userSpaceOnUse"><stop offset=".06" stop-color="#FFF9A8"/><stop offset=".777" stop-color="#FFAEFE"/></linearGradient><linearGradient id="t" x1="171.838" x2="171.838" y1="203.623" y2="269.585" gradientUnits="userSpaceOnUse"><stop offset=".06" stop-color="#FFF465"/><stop offset=".777" stop-color="#48FF91"/></linearGradient><linearGradient id="u" x1="230.002" x2="230.002" y1="103.073" y2="258.477" gradientUnits="userSpaceOnUse"><stop offset=".06" stop-color="#FFF9A8"/><stop offset=".777" stop-color="#FFAEFE"/></linearGradient><linearGradient id="v" x1="232.534" x2="239.816" y1="149.743" y2="215.708" gradientUnits="userSpaceOnUse"><stop offset=".06" stop-color="#FFF465"/><stop offset=".777" stop-color="#48FF91"/></linearGradient><linearGradient id="w" x1="275.742" x2="275.742" y1="56.943" y2="192.129" gradientUnits="userSpaceOnUse"><stop offset=".046" stop-color="#2ECCFF"/><stop offset=".277" stop-color="#2D9FFF"/><stop offset="1" stop-color="#0029FF"/></linearGradient><linearGradient id="x" x1="271.489" x2="299.304" y1="91.884" y2="148.236" gradientUnits="userSpaceOnUse"><stop offset=".06" stop-color="#FFF465"/><stop offset=".777" stop-color="#48FF91"/></linearGradient><linearGradient id="y" x1="264.583" x2="264.583" y1="31.58" y2="60.211" gradientUnits="userSpaceOnUse"><stop offset=".046" stop-color="#2ECCFF"/><stop offset=".277" stop-color="#2D9FFF"/><stop offset="1" stop-color="#0029FF"/></linearGradient><linearGradient id="z" x1="304.213" x2="304.213" y1="40.233" y2="124.175" gradientUnits="userSpaceOnUse"><stop offset=".046" stop-color="#2ECCFF"/><stop offset=".277" stop-color="#2D9FFF"/><stop offset="1" stop-color="#0029FF"/></linearGradient><linearGradient id="A" x1="260.928" x2="260.928" y1="357.254" y2="366.601" gradientUnits="userSpaceOnUse"><stop offset=".046" stop-color="#2ECCFF"/><stop offset=".277" stop-color="#2D9FFF"/><stop offset="1" stop-color="#0029FF"/></linearGradient><linearGradient id="B" x1="293.015" x2="293.015" y1="371.103" y2="377.033" gradientUnits="userSpaceOnUse"><stop offset=".046" stop-color="#2ECCFF"/><stop offset=".277" stop-color="#2D9FFF"/><stop offset="1" stop-color="#0029FF"/></linearGradient><linearGradient id="C" x1="231.98" x2="231.98" y1="440.528" y2="455.201" gradientUnits="userSpaceOnUse"><stop offset=".046" stop-color="#2ECCFF"/><stop offset=".277" stop-color="#2D9FFF"/><stop offset="1" stop-color="#0029FF"/></linearGradient><linearGradient id="D" x1="140.709" x2="140.709" y1="406.764" y2="439.045" gradientUnits="userSpaceOnUse"><stop offset=".046" stop-color="#2ECCFF"/><stop offset=".277" stop-color="#2D9FFF"/><stop offset="1" stop-color="#0029FF"/></linearGradient><linearGradient id="E" x1="146.552" x2="146.552" y1="404.996" y2="420.508" gradientUnits="userSpaceOnUse"><stop offset=".046" stop-color="#2ECCFF"/><stop offset=".277" stop-color="#2D9FFF"/><stop offset="1" stop-color="#0029FF"/></linearGradient><linearGradient id="F" x1="161.78" x2="161.78" y1="419.515" y2="433.12" gradientUnits="userSpaceOnUse"><stop offset=".046" stop-color="#2ECCFF"/><stop offset=".277" stop-color="#2D9FFF"/><stop offset="1" stop-color="#0029FF"/></linearGradient><linearGradient id="G" x1="169.157" x2="169.157" y1="429.467" y2="434.686" gradientUnits="userSpaceOnUse"><stop offset=".046" stop-color="#2ECCFF"/><stop offset=".277" stop-color="#2D9FFF"/><stop offset="1" stop-color="#0029FF"/></linearGradient><linearGradient id="H" x1="178.213" x2="178.213" y1="422.724" y2="460.646" gradientUnits="userSpaceOnUse"><stop offset=".046" stop-color="#2ECCFF"/><stop offset=".277" stop-color="#2D9FFF"/><stop offset="1" stop-color="#0029FF"/></linearGradient><linearGradient id="I" x1="213.176" x2="213.176" y1="444.615" y2="447.639" gradientUnits="userSpaceOnUse"><stop offset=".046" stop-color="#2ECCFF"/><stop offset=".277" stop-color="#2D9FFF"/><stop offset="1" stop-color="#0029FF"/></linearGradient><linearGradient id="J" x1="197.317" x2="197.317" y1="430.286" y2="447.716" gradientUnits="userSpaceOnUse"><stop offset=".046" stop-color="#2ECCFF"/><stop offset=".277" stop-color="#2D9FFF"/><stop offset="1" stop-color="#0029FF"/></linearGradient><linearGradient id="K" x1="208.758" x2="208.758" y1="450.451" y2="453.95" gradientUnits="userSpaceOnUse"><stop offset=".046" stop-color="#2ECCFF"/><stop offset=".277" stop-color="#2D9FFF"/><stop offset="1" stop-color="#0029FF"/></linearGradient><linearGradient id="L" x1="186.974" x2="186.974" y1="415.726" y2="430.095" gradientUnits="userSpaceOnUse"><stop offset=".046" stop-color="#2ECCFF"/><stop offset=".277" stop-color="#2D9FFF"/><stop offset="1" stop-color="#0029FF"/></linearGradient></defs></svg>